G04 #@! TF.FileFunction,Copper,L1,Top,Signal*
%FSLAX46Y46*%
G04 Gerber Fmt 4.6, Leading zero omitted, Abs format (unit mm)*
G04 Created by KiCad (PCBNEW (2015-09-12 BZR 6188)-product) date vie 27 nov 2015 02:47:37 ART*
%MOMM*%
G01*
G04 APERTURE LIST*
%ADD10C,0.100000*%
%ADD11C,0.150000*%
%ADD12R,2.000000X1.524000*%
%ADD13O,2.000000X1.524000*%
%ADD14R,2.199640X0.599440*%
%ADD15R,1.600000X2.000000*%
%ADD16R,2.000000X1.600000*%
%ADD17R,1.651000X1.651000*%
%ADD18C,1.651000*%
%ADD19C,4.064000*%
%ADD20R,1.778000X1.778000*%
%ADD21C,1.778000*%
%ADD22R,1.520000X0.600000*%
%ADD23C,1.270000*%
%ADD24C,0.304800*%
%ADD25C,0.508000*%
%ADD26C,0.482600*%
G04 APERTURE END LIST*
D10*
D11*
X102235000Y-134620000D02*
X102235000Y-73660000D01*
X142875000Y-134620000D02*
X102235000Y-134620000D01*
X142875000Y-73660000D02*
X142875000Y-134620000D01*
X102235000Y-73660000D02*
X142875000Y-73660000D01*
D12*
X134620000Y-80010000D03*
D13*
X137160000Y-80010000D03*
X134620000Y-92710000D03*
X137160000Y-82550000D03*
X134620000Y-95250000D03*
X137160000Y-85090000D03*
X134620000Y-97790000D03*
X137160000Y-87630000D03*
X134620000Y-100330000D03*
X137160000Y-90170000D03*
X134620000Y-102870000D03*
X137160000Y-92710000D03*
X134620000Y-105410000D03*
X137160000Y-95250000D03*
X134620000Y-107950000D03*
X137160000Y-97790000D03*
X134620000Y-110490000D03*
X137160000Y-100330000D03*
X134620000Y-113030000D03*
X137160000Y-102870000D03*
X134620000Y-115570000D03*
X137160000Y-105410000D03*
X134620000Y-118110000D03*
X137160000Y-107950000D03*
X137160000Y-110490000D03*
X134620000Y-120650000D03*
X137160000Y-113030000D03*
X137160000Y-118110000D03*
X137160000Y-120650000D03*
X137160000Y-123190000D03*
X137160000Y-125730000D03*
X134620000Y-123190000D03*
X134620000Y-125730000D03*
X134620000Y-82550000D03*
X134620000Y-85090000D03*
X134620000Y-87630000D03*
X134620000Y-90170000D03*
X134620000Y-128270000D03*
X137160000Y-128270000D03*
X137160000Y-115570000D03*
D14*
X121099580Y-97663000D03*
X121099580Y-98933000D03*
X121099580Y-100203000D03*
X121099580Y-101473000D03*
X121099580Y-102743000D03*
X121099580Y-104013000D03*
X121099580Y-105283000D03*
X121099580Y-106553000D03*
X126296420Y-106553000D03*
X126296420Y-105283000D03*
X126296420Y-104013000D03*
X126296420Y-102743000D03*
X126296420Y-101473000D03*
X126296420Y-100203000D03*
X126296420Y-98933000D03*
X126296420Y-97663000D03*
D15*
X117348000Y-92996000D03*
X117348000Y-96996000D03*
X117348000Y-100108000D03*
X117348000Y-104108000D03*
D16*
X121698000Y-92456000D03*
X125698000Y-92456000D03*
X125698000Y-108966000D03*
X121698000Y-108966000D03*
X125698000Y-95250000D03*
X121698000Y-95250000D03*
D17*
X113132400Y-94584000D03*
D18*
X113132400Y-91815400D03*
X113132400Y-89046800D03*
X113132400Y-86278200D03*
X113132400Y-83509600D03*
X110287600Y-93199700D03*
X110287600Y-90431100D03*
X110287600Y-87662500D03*
X110287600Y-84893900D03*
D19*
X111710000Y-101543600D03*
X111710000Y-76550000D03*
D16*
X121698000Y-118872000D03*
X125698000Y-118872000D03*
D20*
X105410000Y-115570000D03*
D21*
X105410000Y-113030000D03*
X105410000Y-110490000D03*
D22*
X126398000Y-116205000D03*
X126398000Y-114935000D03*
X126398000Y-113665000D03*
X126398000Y-112395000D03*
X120998000Y-112395000D03*
X120998000Y-113665000D03*
X120998000Y-114935000D03*
X120998000Y-116205000D03*
D23*
X112014000Y-108204000D03*
X113538000Y-108204000D03*
X115062000Y-108204000D03*
X116586000Y-108204000D03*
X115316000Y-122428000D03*
X113792000Y-122428000D03*
X113792000Y-120904000D03*
X115316000Y-120904000D03*
X123190000Y-83820000D03*
X123190000Y-82296000D03*
X121666000Y-82296000D03*
X121666000Y-83820000D03*
X128396994Y-114173000D03*
X119634000Y-92456000D03*
X119634000Y-94488000D03*
X123698000Y-118872000D03*
X128524000Y-98806000D03*
X123698000Y-108966000D03*
X123190000Y-100330000D03*
X124206000Y-101600000D03*
X105664000Y-90424000D03*
X122681584Y-114351823D03*
X122697876Y-116078000D03*
X122697828Y-112522000D03*
X129540000Y-106680000D03*
X129540000Y-108712006D03*
D24*
X123698000Y-118872000D02*
X123698000Y-120396000D01*
X123698000Y-120396000D02*
X123190000Y-120904000D01*
X123190000Y-120904000D02*
X115316000Y-120904000D01*
X113538000Y-108204000D02*
X112014000Y-108204000D01*
X116586000Y-108204000D02*
X115062000Y-108204000D01*
X113792000Y-120904000D02*
X113792000Y-122428000D01*
X121666000Y-82296000D02*
X123190000Y-82296000D01*
X119634000Y-92456000D02*
X119634000Y-85852000D01*
X119634000Y-85852000D02*
X121666000Y-83820000D01*
D25*
X127666000Y-114935000D02*
X128396994Y-114204006D01*
X126398000Y-114935000D02*
X127666000Y-114935000D01*
X128396994Y-114204006D02*
X128396994Y-114173000D01*
X121698000Y-92456000D02*
X119634000Y-92456000D01*
X121698000Y-95250000D02*
X120396000Y-95250000D01*
X120396000Y-95250000D02*
X119634000Y-94488000D01*
X121698000Y-118872000D02*
X123698000Y-118872000D01*
X120998000Y-116205000D02*
X120998000Y-117013000D01*
X120998000Y-117013000D02*
X121698000Y-117713000D01*
X121698000Y-117713000D02*
X121698000Y-118872000D01*
X126296420Y-98933000D02*
X128397000Y-98933000D01*
X128397000Y-98933000D02*
X128524000Y-98806000D01*
X125698000Y-108966000D02*
X123698000Y-108966000D01*
X127635000Y-97663000D02*
X126296420Y-97663000D01*
X128270000Y-95168066D02*
X128270000Y-97028000D01*
X128270000Y-97028000D02*
X127635000Y-97663000D01*
X128270000Y-83820000D02*
X128270000Y-95168066D01*
X128188066Y-95250000D02*
X128270000Y-95168066D01*
X125698000Y-95250000D02*
X128188066Y-95250000D01*
X134620000Y-80010000D02*
X132080000Y-80010000D01*
X132080000Y-80010000D02*
X128270000Y-83820000D01*
X117348000Y-92996000D02*
X117348000Y-94141432D01*
X117348000Y-94141432D02*
X119380000Y-96173432D01*
X119380000Y-96173432D02*
X119380000Y-96774000D01*
X120269000Y-97663000D02*
X121099580Y-97663000D01*
X119380000Y-96774000D02*
X120269000Y-97663000D01*
X117348000Y-96996000D02*
X118078000Y-96996000D01*
X118821190Y-99532430D02*
X119491760Y-100203000D01*
X118078000Y-96996000D02*
X118821190Y-97739190D01*
X118821190Y-97739190D02*
X118821190Y-99532430D01*
X119491760Y-100203000D02*
X121099580Y-100203000D01*
X121099580Y-101473000D02*
X117729000Y-101473000D01*
X117729000Y-101473000D02*
X117348000Y-101092000D01*
X117348000Y-101092000D02*
X117348000Y-100108000D01*
X121099580Y-102743000D02*
X117729000Y-102743000D01*
X117729000Y-102743000D02*
X117348000Y-103124000D01*
X117348000Y-103124000D02*
X117348000Y-104108000D01*
X122707400Y-98933000D02*
X121099580Y-98933000D01*
X124460000Y-92456000D02*
X123698000Y-93218000D01*
X123698000Y-97942400D02*
X122707400Y-98933000D01*
X125698000Y-92456000D02*
X124460000Y-92456000D01*
X123698000Y-93218000D02*
X123698000Y-97942400D01*
X121698000Y-108966000D02*
X121698000Y-107918000D01*
X121698000Y-107918000D02*
X122047000Y-107569000D01*
X122047000Y-107569000D02*
X122809000Y-107569000D01*
X122809000Y-107569000D02*
X123190000Y-107188000D01*
X122707400Y-104013000D02*
X121099580Y-104013000D01*
X123190000Y-107188000D02*
X123190000Y-104495600D01*
X123190000Y-104495600D02*
X122707400Y-104013000D01*
D24*
X123190000Y-100330000D02*
X124206000Y-100330000D01*
X124206000Y-100330000D02*
X124333000Y-100203000D01*
X124333000Y-100203000D02*
X126296420Y-100203000D01*
X124333000Y-101473000D02*
X124206000Y-101600000D01*
X126296420Y-101473000D02*
X124333000Y-101473000D01*
X106426000Y-102362000D02*
X106426000Y-91186000D01*
X106426000Y-91186000D02*
X105664000Y-90424000D01*
X110998000Y-106934000D02*
X106426000Y-102362000D01*
X119313960Y-106934000D02*
X110998000Y-106934000D01*
X121099580Y-106553000D02*
X119694960Y-106553000D01*
X119694960Y-106553000D02*
X119313960Y-106934000D01*
X110287600Y-87662500D02*
X108933500Y-87662500D01*
X108933500Y-87662500D02*
X107442000Y-89154000D01*
X107442000Y-89154000D02*
X107442000Y-101854000D01*
X107442000Y-101854000D02*
X111506000Y-105918000D01*
X111506000Y-105918000D02*
X118364000Y-105918000D01*
X118364000Y-105918000D02*
X118999000Y-105283000D01*
X118999000Y-105283000D02*
X121099580Y-105283000D01*
D25*
X125698000Y-118872000D02*
X125698000Y-125952000D01*
X125698000Y-125952000D02*
X129794000Y-130048000D01*
X139446000Y-128765718D02*
X139446000Y-80788000D01*
X129794000Y-130048000D02*
X138163718Y-130048000D01*
X138163718Y-130048000D02*
X139446000Y-128765718D01*
X139446000Y-80788000D02*
X138668000Y-80010000D01*
X138668000Y-80010000D02*
X137160000Y-80010000D01*
X124714000Y-114081000D02*
X124714000Y-116580000D01*
X124714000Y-116580000D02*
X125698000Y-117564000D01*
X125698000Y-117564000D02*
X125698000Y-118872000D01*
X126398000Y-113665000D02*
X125130000Y-113665000D01*
X125130000Y-113665000D02*
X124714000Y-114081000D01*
D24*
X123316583Y-113716824D02*
X122681584Y-114351823D01*
X124265477Y-112767930D02*
X123316583Y-113716824D01*
X124265477Y-112073477D02*
X124265477Y-112767930D01*
X123621798Y-111429798D02*
X124265477Y-112073477D01*
X120998000Y-111790200D02*
X121358402Y-111429798D01*
X120998000Y-112395000D02*
X120998000Y-111790200D01*
X121358402Y-111429798D02*
X123621798Y-111429798D01*
D26*
X119858000Y-114935000D02*
X120998000Y-114935000D01*
X105410000Y-115570000D02*
X106743500Y-115570000D01*
X113214918Y-117597315D02*
X113483125Y-117428789D01*
X110299218Y-114693700D02*
X110458075Y-114711598D01*
X115372819Y-112054151D02*
X115425619Y-112205043D01*
X113483125Y-117428789D02*
X113707107Y-117204807D01*
X111321728Y-117204807D02*
X111545710Y-117428789D01*
X106743500Y-115570000D02*
X107619800Y-114693700D01*
X115976110Y-114385090D02*
X116244317Y-114553616D01*
X116244317Y-114553616D02*
X116543300Y-114658235D01*
X111013118Y-116322850D02*
X111048583Y-116637617D01*
X110942419Y-115097850D02*
X110995219Y-115248742D01*
X111153202Y-116936600D02*
X111321728Y-117204807D01*
X107619800Y-114693700D02*
X110299218Y-114693700D01*
X110458075Y-114711598D02*
X110608967Y-114764398D01*
X111813917Y-117597315D02*
X112112900Y-117701934D01*
X110608967Y-114764398D02*
X110744327Y-114849450D01*
X110995219Y-115248742D02*
X111013118Y-115407600D01*
X110744327Y-114849450D02*
X110857367Y-114962490D01*
X112601168Y-117737400D02*
X112915935Y-117701934D01*
X115287767Y-111918791D02*
X115372819Y-112054151D01*
X110857367Y-114962490D02*
X110942419Y-115097850D01*
X112915935Y-117701934D02*
X113214918Y-117597315D01*
X111013118Y-115407600D02*
X111013118Y-116322850D01*
X111048583Y-116637617D02*
X111153202Y-116936600D01*
X114729618Y-111650000D02*
X114888475Y-111667899D01*
X111545710Y-117428789D02*
X111813917Y-117597315D01*
X114015718Y-112363900D02*
X114033616Y-112205043D01*
X114284508Y-111805751D02*
X114419868Y-111720699D01*
X115174727Y-111805751D02*
X115287767Y-111918791D01*
X112112900Y-117701934D02*
X112427667Y-117737400D01*
X112427667Y-117737400D02*
X112601168Y-117737400D01*
X113707107Y-117204807D02*
X113875633Y-116936600D01*
X115583602Y-113892901D02*
X115752128Y-114161108D01*
X114033616Y-112205043D02*
X114086416Y-112054151D01*
X113875633Y-116936600D02*
X113980252Y-116637617D01*
X113980252Y-116637617D02*
X114015718Y-116322850D01*
X116543300Y-114658235D02*
X116858067Y-114693700D01*
X115478983Y-113593918D02*
X115583602Y-113892901D01*
X114015718Y-116322850D02*
X114015718Y-112363900D01*
X114888475Y-111667899D02*
X115039367Y-111720699D01*
X114086416Y-112054151D02*
X114171468Y-111918791D01*
X114171468Y-111918791D02*
X114284508Y-111805751D01*
X114419868Y-111720699D02*
X114570760Y-111667899D01*
X114570760Y-111667899D02*
X114729618Y-111650000D01*
X115039367Y-111720699D02*
X115174727Y-111805751D01*
X115425619Y-112205043D02*
X115443518Y-112363900D01*
X116858067Y-114693700D02*
X119616700Y-114693700D01*
X115443518Y-112363900D02*
X115443518Y-113279151D01*
X115443518Y-113279151D02*
X115478983Y-113593918D01*
X119616700Y-114693700D02*
X119858000Y-114935000D01*
X115752128Y-114161108D02*
X115976110Y-114385090D01*
D24*
X120998000Y-114935000D02*
X121554876Y-114935000D01*
X121554876Y-114935000D02*
X122697876Y-116078000D01*
X122681992Y-116078000D02*
X122697876Y-116078000D01*
D26*
X111267925Y-114214910D02*
X111491907Y-114438892D01*
X111818416Y-116394957D02*
X111871216Y-116545849D01*
X113157619Y-116545849D02*
X113210419Y-116394957D01*
X113210419Y-116394957D02*
X113228318Y-116236100D01*
X105410000Y-113030000D02*
X106743500Y-113030000D01*
X115430118Y-111002685D02*
X115698325Y-111171211D01*
X116248816Y-113351258D02*
X116301616Y-113502150D01*
X112514418Y-116950000D02*
X112673275Y-116932101D01*
X114029117Y-111002685D02*
X114328100Y-110898066D01*
X119616700Y-113906300D02*
X119858000Y-113665000D01*
X116635068Y-113835602D02*
X116785960Y-113888402D01*
X111800518Y-115320849D02*
X111800518Y-116236100D01*
X113368402Y-111663400D02*
X113536928Y-111395193D01*
X111956268Y-116681209D02*
X112069308Y-116794249D01*
X111491907Y-114438892D02*
X111660433Y-114707099D01*
X110700735Y-113941765D02*
X110999718Y-114046384D01*
X106743500Y-113030000D02*
X107619800Y-113906300D01*
X113072567Y-116681209D02*
X113157619Y-116545849D01*
X113760910Y-111171211D02*
X114029117Y-111002685D01*
X112204668Y-116879301D02*
X112355560Y-116932101D01*
X112673275Y-116932101D02*
X112824167Y-116879301D01*
X116785960Y-113888402D02*
X116944818Y-113906300D01*
X107619800Y-113906300D02*
X110385968Y-113906300D01*
X116386668Y-113637510D02*
X116499708Y-113750550D01*
X111660433Y-114707099D02*
X111765052Y-115006082D01*
X110385968Y-113906300D02*
X110700735Y-113941765D01*
X110999718Y-114046384D02*
X111267925Y-114214910D01*
X111765052Y-115006082D02*
X111800518Y-115320849D01*
X113228318Y-112277150D02*
X113263783Y-111962383D01*
X116301616Y-113502150D02*
X116386668Y-113637510D01*
X111800518Y-116236100D02*
X111818416Y-116394957D01*
X111871216Y-116545849D02*
X111956268Y-116681209D01*
X112069308Y-116794249D02*
X112204668Y-116879301D01*
X113263783Y-111962383D02*
X113368402Y-111663400D01*
X112355560Y-116932101D02*
X112514418Y-116950000D01*
X116195452Y-111962383D02*
X116230918Y-112277150D01*
X112824167Y-116879301D02*
X112959527Y-116794249D01*
X112959527Y-116794249D02*
X113072567Y-116681209D01*
X113228318Y-116236100D02*
X113228318Y-112277150D01*
X113536928Y-111395193D02*
X113760910Y-111171211D01*
X114328100Y-110898066D02*
X114642867Y-110862600D01*
X114642867Y-110862600D02*
X114816368Y-110862600D01*
X114816368Y-110862600D02*
X115131135Y-110898066D01*
X115131135Y-110898066D02*
X115430118Y-111002685D01*
X115698325Y-111171211D02*
X115922307Y-111395193D01*
X115922307Y-111395193D02*
X116090833Y-111663400D01*
X116090833Y-111663400D02*
X116195452Y-111962383D01*
X116230918Y-112277150D02*
X116230918Y-113192400D01*
X116230918Y-113192400D02*
X116248816Y-113351258D01*
X116499708Y-113750550D02*
X116635068Y-113835602D01*
X116944818Y-113906300D02*
X119616700Y-113906300D01*
X119858000Y-113665000D02*
X120998000Y-113665000D01*
D24*
X122697828Y-112522000D02*
X121554828Y-113665000D01*
X121554828Y-113665000D02*
X120998000Y-113665000D01*
X128270000Y-106680000D02*
X128143000Y-106553000D01*
X128143000Y-106553000D02*
X126296420Y-106553000D01*
X129540000Y-106680000D02*
X128270000Y-106680000D01*
X130810000Y-106172000D02*
X130810000Y-107442006D01*
X130810000Y-107442006D02*
X130174999Y-108077007D01*
X129921000Y-105283000D02*
X130810000Y-106172000D01*
X126296420Y-105283000D02*
X129921000Y-105283000D01*
X130174999Y-108077007D02*
X129540000Y-108712006D01*
X126296420Y-104013000D02*
X130175000Y-104013000D01*
X130175000Y-104013000D02*
X131826000Y-105664000D01*
X131826000Y-105664000D02*
X131826000Y-109474000D01*
X131826000Y-109474000D02*
X132842000Y-110490000D01*
X132842000Y-110490000D02*
X134620000Y-110490000D01*
X126296420Y-102743000D02*
X130683000Y-102743000D01*
X130683000Y-102743000D02*
X132842000Y-104902000D01*
X132842000Y-104902000D02*
X132842000Y-107476800D01*
X132842000Y-107476800D02*
X133315200Y-107950000D01*
X133315200Y-107950000D02*
X134620000Y-107950000D01*
X126398000Y-116205000D02*
X131318000Y-116205000D01*
X131318000Y-116205000D02*
X131953000Y-115570000D01*
X131953000Y-115570000D02*
X134620000Y-115570000D01*
X126398000Y-112395000D02*
X131318000Y-112395000D01*
X131318000Y-112395000D02*
X131953000Y-113030000D01*
X131953000Y-113030000D02*
X134620000Y-113030000D01*
G36*
X110551184Y-74333389D02*
X110142711Y-74600686D01*
X109793936Y-74942231D01*
X109518143Y-75345017D01*
X109325838Y-75793699D01*
X109224344Y-76271189D01*
X109217528Y-76759299D01*
X109305650Y-77239436D01*
X109485353Y-77693313D01*
X109749791Y-78103642D01*
X110088894Y-78454793D01*
X110489744Y-78733391D01*
X110937073Y-78928824D01*
X111413843Y-79033649D01*
X111901893Y-79043872D01*
X112382634Y-78959105D01*
X112837755Y-78782575D01*
X113249920Y-78521007D01*
X113603429Y-78184364D01*
X113884819Y-77785469D01*
X114083370Y-77339515D01*
X114191521Y-76863489D01*
X114199307Y-76305921D01*
X114104490Y-75827061D01*
X113918467Y-75375737D01*
X113648325Y-74969140D01*
X113304353Y-74622758D01*
X112899652Y-74349784D01*
X112524774Y-74192200D01*
X142342800Y-74192200D01*
X142342800Y-134087800D01*
X102767200Y-134087800D01*
X102767200Y-111760000D01*
X103987600Y-111760000D01*
X103987600Y-116713000D01*
X103998023Y-116768391D01*
X104030758Y-116819264D01*
X104080708Y-116853393D01*
X104140000Y-116865400D01*
X104315758Y-116865400D01*
X104393011Y-116900223D01*
X104521000Y-116918412D01*
X106299000Y-116918412D01*
X106371807Y-116912606D01*
X106495297Y-116874364D01*
X106508900Y-116865400D01*
X106612779Y-116865400D01*
X109234455Y-119736759D01*
X109287708Y-119774393D01*
X109347000Y-119786400D01*
X117602000Y-119786400D01*
X117671895Y-119769427D01*
X117719077Y-119731564D01*
X118255463Y-119087900D01*
X120240800Y-119087900D01*
X120240800Y-119717031D01*
X120258370Y-119805361D01*
X120292835Y-119888566D01*
X120342870Y-119963448D01*
X120406552Y-120027131D01*
X120481435Y-120077165D01*
X120564640Y-120111630D01*
X120652970Y-120129200D01*
X121482100Y-120129200D01*
X121596400Y-120014900D01*
X121596400Y-118973600D01*
X121799600Y-118973600D01*
X121799600Y-120014900D01*
X121913900Y-120129200D01*
X122743030Y-120129200D01*
X122831360Y-120111630D01*
X122914565Y-120077165D01*
X122989448Y-120027131D01*
X123053130Y-119963448D01*
X123103165Y-119888566D01*
X123137630Y-119805361D01*
X123155200Y-119717031D01*
X123155200Y-119087900D01*
X123040900Y-118973600D01*
X121799600Y-118973600D01*
X121596400Y-118973600D01*
X120355100Y-118973600D01*
X120240800Y-119087900D01*
X118255463Y-119087900D01*
X119139572Y-118026969D01*
X120240800Y-118026969D01*
X120240800Y-118656100D01*
X120355100Y-118770400D01*
X121596400Y-118770400D01*
X121596400Y-117729100D01*
X121799600Y-117729100D01*
X121799600Y-118770400D01*
X123040900Y-118770400D01*
X123155200Y-118656100D01*
X123155200Y-118026969D01*
X123137630Y-117938639D01*
X123103165Y-117855434D01*
X123053130Y-117780552D01*
X122989448Y-117716869D01*
X122914565Y-117666835D01*
X122831360Y-117632370D01*
X122743030Y-117614800D01*
X121913900Y-117614800D01*
X121799600Y-117729100D01*
X121596400Y-117729100D01*
X121482100Y-117614800D01*
X120652970Y-117614800D01*
X120564640Y-117632370D01*
X120481435Y-117666835D01*
X120406552Y-117716869D01*
X120342870Y-117780552D01*
X120292835Y-117855434D01*
X120258370Y-117938639D01*
X120240800Y-118026969D01*
X119139572Y-118026969D01*
X120057718Y-116925195D01*
X120104639Y-116944630D01*
X120192969Y-116962200D01*
X120782100Y-116962200D01*
X120896400Y-116847900D01*
X120896400Y-116306600D01*
X120876400Y-116306600D01*
X120876400Y-116103400D01*
X120896400Y-116103400D01*
X120896400Y-116083400D01*
X121099600Y-116083400D01*
X121099600Y-116103400D01*
X121119600Y-116103400D01*
X121119600Y-116306600D01*
X121099600Y-116306600D01*
X121099600Y-116847900D01*
X121213900Y-116962200D01*
X121803031Y-116962200D01*
X121891361Y-116944630D01*
X121974566Y-116910165D01*
X121979744Y-116906705D01*
X121986574Y-116913777D01*
X122162457Y-117036019D01*
X122358734Y-117121770D01*
X122567929Y-117167765D01*
X122782074Y-117172250D01*
X122993011Y-117135056D01*
X123192707Y-117057600D01*
X123373555Y-116942830D01*
X123528667Y-116795119D01*
X123652134Y-116620094D01*
X123739253Y-116424420D01*
X123786707Y-116215551D01*
X123790123Y-115970904D01*
X123748520Y-115760792D01*
X123666898Y-115562762D01*
X123548366Y-115384357D01*
X123397439Y-115232373D01*
X123364258Y-115209992D01*
X123512375Y-115068942D01*
X123635842Y-114893917D01*
X123722961Y-114698243D01*
X123770415Y-114489374D01*
X123773831Y-114244727D01*
X123753494Y-114142017D01*
X124044022Y-113851489D01*
X124038208Y-113870504D01*
X124018341Y-113933133D01*
X124017924Y-113936851D01*
X124016831Y-113940426D01*
X124010193Y-114005772D01*
X124002869Y-114071070D01*
X124002818Y-114078377D01*
X124002804Y-114078517D01*
X124002816Y-114078648D01*
X124002800Y-114081000D01*
X124002800Y-116580000D01*
X124009207Y-116645346D01*
X124014936Y-116710826D01*
X124015980Y-116714421D01*
X124016345Y-116718139D01*
X124035321Y-116780990D01*
X124053661Y-116844117D01*
X124055382Y-116847438D01*
X124056463Y-116851017D01*
X124087299Y-116909012D01*
X124117537Y-116967347D01*
X124119870Y-116970270D01*
X124121626Y-116973572D01*
X124163151Y-117024487D01*
X124204133Y-117075824D01*
X124209262Y-117081024D01*
X124209353Y-117081136D01*
X124209457Y-117081222D01*
X124211106Y-117082894D01*
X124740800Y-117612588D01*
X124698000Y-117612588D01*
X124625193Y-117618394D01*
X124501703Y-117656636D01*
X124393757Y-117727768D01*
X124309902Y-117826156D01*
X124256777Y-117944011D01*
X124238588Y-118072000D01*
X124238588Y-119672000D01*
X124244394Y-119744807D01*
X124282636Y-119868297D01*
X124353768Y-119976243D01*
X124452156Y-120060098D01*
X124570011Y-120113223D01*
X124698000Y-120131412D01*
X124986800Y-120131412D01*
X124986800Y-125952000D01*
X124993207Y-126017346D01*
X124998936Y-126082826D01*
X124999980Y-126086421D01*
X125000345Y-126090139D01*
X125019321Y-126152990D01*
X125037661Y-126216117D01*
X125039382Y-126219438D01*
X125040463Y-126223017D01*
X125071299Y-126281012D01*
X125101537Y-126339347D01*
X125103870Y-126342270D01*
X125105626Y-126345572D01*
X125147151Y-126396487D01*
X125188133Y-126447824D01*
X125193262Y-126453024D01*
X125193353Y-126453136D01*
X125193457Y-126453222D01*
X125195106Y-126454894D01*
X129291106Y-130550895D01*
X129341835Y-130592564D01*
X129392195Y-130634821D01*
X129395476Y-130636625D01*
X129398363Y-130638996D01*
X129456238Y-130670028D01*
X129513829Y-130701689D01*
X129517393Y-130702819D01*
X129520689Y-130704587D01*
X129583504Y-130723792D01*
X129646133Y-130743659D01*
X129649851Y-130744076D01*
X129653426Y-130745169D01*
X129718768Y-130751806D01*
X129784070Y-130759131D01*
X129791378Y-130759182D01*
X129791518Y-130759196D01*
X129791649Y-130759184D01*
X129794000Y-130759200D01*
X138163718Y-130759200D01*
X138229064Y-130752793D01*
X138294544Y-130747064D01*
X138298139Y-130746020D01*
X138301857Y-130745655D01*
X138364708Y-130726679D01*
X138427835Y-130708339D01*
X138431156Y-130706618D01*
X138434735Y-130705537D01*
X138492730Y-130674701D01*
X138551065Y-130644463D01*
X138553988Y-130642130D01*
X138557290Y-130640374D01*
X138608205Y-130598849D01*
X138659542Y-130557867D01*
X138664742Y-130552738D01*
X138664854Y-130552647D01*
X138664940Y-130552543D01*
X138666612Y-130550894D01*
X139948895Y-129268612D01*
X139990564Y-129217883D01*
X140032821Y-129167523D01*
X140034625Y-129164242D01*
X140036996Y-129161355D01*
X140068028Y-129103480D01*
X140099689Y-129045889D01*
X140100819Y-129042325D01*
X140102587Y-129039029D01*
X140121792Y-128976214D01*
X140141659Y-128913585D01*
X140142076Y-128909867D01*
X140143169Y-128906292D01*
X140149806Y-128840950D01*
X140157131Y-128775648D01*
X140157182Y-128768340D01*
X140157196Y-128768200D01*
X140157184Y-128768069D01*
X140157200Y-128765718D01*
X140157200Y-80788000D01*
X140150793Y-80722654D01*
X140145064Y-80657174D01*
X140144020Y-80653579D01*
X140143655Y-80649861D01*
X140124679Y-80587010D01*
X140106339Y-80523883D01*
X140104618Y-80520562D01*
X140103537Y-80516983D01*
X140072712Y-80459008D01*
X140042463Y-80400652D01*
X140040128Y-80397727D01*
X140038374Y-80394428D01*
X139996866Y-80343535D01*
X139955867Y-80292176D01*
X139950738Y-80286976D01*
X139950647Y-80286864D01*
X139950543Y-80286778D01*
X139948894Y-80285106D01*
X139170894Y-79507106D01*
X139120172Y-79465442D01*
X139069805Y-79423179D01*
X139066526Y-79421377D01*
X139063638Y-79419004D01*
X139005742Y-79387960D01*
X138948171Y-79356311D01*
X138944608Y-79355181D01*
X138941311Y-79353413D01*
X138878496Y-79334208D01*
X138815867Y-79314341D01*
X138812149Y-79313924D01*
X138808574Y-79312831D01*
X138743228Y-79306193D01*
X138677930Y-79298869D01*
X138670623Y-79298818D01*
X138670483Y-79298804D01*
X138670352Y-79298816D01*
X138668000Y-79298800D01*
X138390170Y-79298800D01*
X138276136Y-79156970D01*
X138093859Y-79004022D01*
X137885345Y-78889390D01*
X137658537Y-78817442D01*
X137422074Y-78790919D01*
X137405051Y-78790800D01*
X136914949Y-78790800D01*
X136678138Y-78814019D01*
X136450348Y-78882793D01*
X136240254Y-78994502D01*
X136062536Y-79139446D01*
X136035364Y-79051703D01*
X135964232Y-78943757D01*
X135865844Y-78859902D01*
X135747989Y-78806777D01*
X135620000Y-78788588D01*
X133620000Y-78788588D01*
X133547193Y-78794394D01*
X133423703Y-78832636D01*
X133315757Y-78903768D01*
X133231902Y-79002156D01*
X133178777Y-79120011D01*
X133160588Y-79248000D01*
X133160588Y-79298800D01*
X132080000Y-79298800D01*
X132014699Y-79305203D01*
X131949174Y-79310936D01*
X131945579Y-79311980D01*
X131941861Y-79312345D01*
X131879010Y-79331321D01*
X131815883Y-79349661D01*
X131812562Y-79351382D01*
X131808983Y-79352463D01*
X131750988Y-79383299D01*
X131692653Y-79413537D01*
X131689730Y-79415870D01*
X131686428Y-79417626D01*
X131635513Y-79459151D01*
X131584176Y-79500133D01*
X131578972Y-79505265D01*
X131578864Y-79505353D01*
X131578782Y-79505453D01*
X131577106Y-79507105D01*
X127767106Y-83317106D01*
X127725442Y-83367828D01*
X127683179Y-83418195D01*
X127681377Y-83421474D01*
X127679004Y-83424362D01*
X127647960Y-83482258D01*
X127616311Y-83539829D01*
X127615181Y-83543392D01*
X127613413Y-83546689D01*
X127594208Y-83609504D01*
X127574341Y-83672133D01*
X127573924Y-83675851D01*
X127572831Y-83679426D01*
X127566193Y-83744772D01*
X127558869Y-83810070D01*
X127558818Y-83817377D01*
X127558804Y-83817517D01*
X127558816Y-83817648D01*
X127558800Y-83820000D01*
X127558800Y-94538800D01*
X127157412Y-94538800D01*
X127157412Y-94450000D01*
X127151606Y-94377193D01*
X127113364Y-94253703D01*
X127042232Y-94145757D01*
X126943844Y-94061902D01*
X126825989Y-94008777D01*
X126698000Y-93990588D01*
X124698000Y-93990588D01*
X124625193Y-93996394D01*
X124501703Y-94034636D01*
X124409200Y-94095592D01*
X124409200Y-93607487D01*
X124452156Y-93644098D01*
X124570011Y-93697223D01*
X124698000Y-93715412D01*
X126698000Y-93715412D01*
X126770807Y-93709606D01*
X126894297Y-93671364D01*
X127002243Y-93600232D01*
X127086098Y-93501844D01*
X127139223Y-93383989D01*
X127157412Y-93256000D01*
X127157412Y-91656000D01*
X127151606Y-91583193D01*
X127113364Y-91459703D01*
X127042232Y-91351757D01*
X126943844Y-91267902D01*
X126825989Y-91214777D01*
X126698000Y-91196588D01*
X124698000Y-91196588D01*
X124625193Y-91202394D01*
X124501703Y-91240636D01*
X124393757Y-91311768D01*
X124309902Y-91410156D01*
X124256777Y-91528011D01*
X124238588Y-91656000D01*
X124238588Y-91783254D01*
X124195883Y-91795661D01*
X124192562Y-91797382D01*
X124188983Y-91798463D01*
X124130988Y-91829299D01*
X124072653Y-91859537D01*
X124069730Y-91861870D01*
X124066428Y-91863626D01*
X124015513Y-91905151D01*
X123964176Y-91946133D01*
X123958972Y-91951265D01*
X123958864Y-91951353D01*
X123958782Y-91951453D01*
X123957106Y-91953105D01*
X123195106Y-92715106D01*
X123155200Y-92763688D01*
X123155200Y-92671900D01*
X123040900Y-92557600D01*
X121799600Y-92557600D01*
X121799600Y-93598900D01*
X121913900Y-93713200D01*
X122743030Y-93713200D01*
X122831360Y-93695630D01*
X122914565Y-93661165D01*
X122986800Y-93612900D01*
X122986800Y-94093100D01*
X122914565Y-94044835D01*
X122831360Y-94010370D01*
X122743030Y-93992800D01*
X121913900Y-93992800D01*
X121799600Y-94107100D01*
X121799600Y-95148400D01*
X121819600Y-95148400D01*
X121819600Y-95351600D01*
X121799600Y-95351600D01*
X121799600Y-96392900D01*
X121913900Y-96507200D01*
X122743030Y-96507200D01*
X122831360Y-96489630D01*
X122914565Y-96455165D01*
X122986800Y-96406900D01*
X122986800Y-97647812D01*
X122656645Y-97977967D01*
X122658812Y-97962720D01*
X122658812Y-97363280D01*
X122653006Y-97290473D01*
X122614764Y-97166983D01*
X122543632Y-97059037D01*
X122445244Y-96975182D01*
X122327389Y-96922057D01*
X122199400Y-96903868D01*
X120515656Y-96903868D01*
X120091200Y-96479412D01*
X120091200Y-96173432D01*
X120084793Y-96108086D01*
X120079064Y-96042606D01*
X120078020Y-96039011D01*
X120077655Y-96035293D01*
X120058679Y-95972442D01*
X120040339Y-95909315D01*
X120038618Y-95905994D01*
X120037537Y-95902415D01*
X120006701Y-95844420D01*
X119976463Y-95786085D01*
X119974130Y-95783162D01*
X119972374Y-95779860D01*
X119930849Y-95728945D01*
X119889867Y-95677608D01*
X119884738Y-95672408D01*
X119884647Y-95672296D01*
X119884543Y-95672210D01*
X119882894Y-95670538D01*
X119678256Y-95465900D01*
X120240800Y-95465900D01*
X120240800Y-96095031D01*
X120258370Y-96183361D01*
X120292835Y-96266566D01*
X120342870Y-96341448D01*
X120406552Y-96405131D01*
X120481435Y-96455165D01*
X120564640Y-96489630D01*
X120652970Y-96507200D01*
X121482100Y-96507200D01*
X121596400Y-96392900D01*
X121596400Y-95351600D01*
X120355100Y-95351600D01*
X120240800Y-95465900D01*
X119678256Y-95465900D01*
X118617325Y-94404969D01*
X120240800Y-94404969D01*
X120240800Y-95034100D01*
X120355100Y-95148400D01*
X121596400Y-95148400D01*
X121596400Y-94107100D01*
X121482100Y-93992800D01*
X120652970Y-93992800D01*
X120564640Y-94010370D01*
X120481435Y-94044835D01*
X120406552Y-94094869D01*
X120342870Y-94158552D01*
X120292835Y-94233434D01*
X120258370Y-94316639D01*
X120240800Y-94404969D01*
X118617325Y-94404969D01*
X118498414Y-94286058D01*
X118536098Y-94241844D01*
X118589223Y-94123989D01*
X118607412Y-93996000D01*
X118607412Y-92671900D01*
X120240800Y-92671900D01*
X120240800Y-93301031D01*
X120258370Y-93389361D01*
X120292835Y-93472566D01*
X120342870Y-93547448D01*
X120406552Y-93611131D01*
X120481435Y-93661165D01*
X120564640Y-93695630D01*
X120652970Y-93713200D01*
X121482100Y-93713200D01*
X121596400Y-93598900D01*
X121596400Y-92557600D01*
X120355100Y-92557600D01*
X120240800Y-92671900D01*
X118607412Y-92671900D01*
X118607412Y-91996000D01*
X118601606Y-91923193D01*
X118563364Y-91799703D01*
X118492232Y-91691757D01*
X118397443Y-91610969D01*
X120240800Y-91610969D01*
X120240800Y-92240100D01*
X120355100Y-92354400D01*
X121596400Y-92354400D01*
X121596400Y-91313100D01*
X121799600Y-91313100D01*
X121799600Y-92354400D01*
X123040900Y-92354400D01*
X123155200Y-92240100D01*
X123155200Y-91610969D01*
X123137630Y-91522639D01*
X123103165Y-91439434D01*
X123053130Y-91364552D01*
X122989448Y-91300869D01*
X122914565Y-91250835D01*
X122831360Y-91216370D01*
X122743030Y-91198800D01*
X121913900Y-91198800D01*
X121799600Y-91313100D01*
X121596400Y-91313100D01*
X121482100Y-91198800D01*
X120652970Y-91198800D01*
X120564640Y-91216370D01*
X120481435Y-91250835D01*
X120406552Y-91300869D01*
X120342870Y-91364552D01*
X120292835Y-91439434D01*
X120258370Y-91522639D01*
X120240800Y-91610969D01*
X118397443Y-91610969D01*
X118393844Y-91607902D01*
X118275989Y-91554777D01*
X118148000Y-91536588D01*
X116548000Y-91536588D01*
X116475193Y-91542394D01*
X116351703Y-91580636D01*
X116243757Y-91651768D01*
X116159902Y-91750156D01*
X116106777Y-91868011D01*
X116088588Y-91996000D01*
X116088588Y-93996000D01*
X116094394Y-94068807D01*
X116132636Y-94192297D01*
X116203768Y-94300243D01*
X116302156Y-94384098D01*
X116420011Y-94437223D01*
X116548000Y-94455412D01*
X116713307Y-94455412D01*
X116721299Y-94470444D01*
X116751537Y-94528779D01*
X116753870Y-94531702D01*
X116755626Y-94535004D01*
X116797151Y-94585919D01*
X116838133Y-94637256D01*
X116843262Y-94642456D01*
X116843353Y-94642568D01*
X116843457Y-94642654D01*
X116845106Y-94644326D01*
X117737368Y-95536588D01*
X116548000Y-95536588D01*
X116475193Y-95542394D01*
X116351703Y-95580636D01*
X116243757Y-95651768D01*
X116159902Y-95750156D01*
X116106777Y-95868011D01*
X116088588Y-95996000D01*
X116088588Y-97996000D01*
X116094394Y-98068807D01*
X116132636Y-98192297D01*
X116203768Y-98300243D01*
X116302156Y-98384098D01*
X116420011Y-98437223D01*
X116548000Y-98455412D01*
X118109990Y-98455412D01*
X118109990Y-98648588D01*
X116548000Y-98648588D01*
X116475193Y-98654394D01*
X116351703Y-98692636D01*
X116243757Y-98763768D01*
X116159902Y-98862156D01*
X116106777Y-98980011D01*
X116088588Y-99108000D01*
X116088588Y-101108000D01*
X116094394Y-101180807D01*
X116132636Y-101304297D01*
X116203768Y-101412243D01*
X116302156Y-101496098D01*
X116420011Y-101549223D01*
X116548000Y-101567412D01*
X116821838Y-101567412D01*
X116838133Y-101587824D01*
X116843262Y-101593024D01*
X116843353Y-101593136D01*
X116843457Y-101593222D01*
X116845106Y-101594894D01*
X117226105Y-101975894D01*
X117276825Y-102017556D01*
X117327195Y-102059821D01*
X117330477Y-102061625D01*
X117333362Y-102063995D01*
X117391220Y-102095018D01*
X117415209Y-102108206D01*
X117399973Y-102116307D01*
X117341652Y-102146537D01*
X117338727Y-102148872D01*
X117335428Y-102150626D01*
X117284535Y-102192134D01*
X117233176Y-102233133D01*
X117227972Y-102238265D01*
X117227864Y-102238353D01*
X117227781Y-102238453D01*
X117226105Y-102240106D01*
X116845106Y-102621106D01*
X116822532Y-102648588D01*
X116548000Y-102648588D01*
X116475193Y-102654394D01*
X116351703Y-102692636D01*
X116243757Y-102763768D01*
X116159902Y-102862156D01*
X116106777Y-102980011D01*
X116088588Y-103108000D01*
X116088588Y-105108000D01*
X116094394Y-105180807D01*
X116132636Y-105304297D01*
X116135340Y-105308400D01*
X111758504Y-105308400D01*
X108203003Y-101752899D01*
X109217528Y-101752899D01*
X109305650Y-102233036D01*
X109485353Y-102686913D01*
X109749791Y-103097242D01*
X110088894Y-103448393D01*
X110489744Y-103726991D01*
X110937073Y-103922424D01*
X111413843Y-104027249D01*
X111901893Y-104037472D01*
X112382634Y-103952705D01*
X112837755Y-103776175D01*
X113249920Y-103514607D01*
X113603429Y-103177964D01*
X113884819Y-102779069D01*
X114083370Y-102333115D01*
X114191521Y-101857089D01*
X114199307Y-101299521D01*
X114104490Y-100820661D01*
X113918467Y-100369337D01*
X113648325Y-99962740D01*
X113304353Y-99616358D01*
X112899652Y-99343384D01*
X112449638Y-99154216D01*
X111971451Y-99056058D01*
X111483306Y-99052650D01*
X111003795Y-99144122D01*
X110551184Y-99326989D01*
X110142711Y-99594286D01*
X109793936Y-99935831D01*
X109518143Y-100338617D01*
X109325838Y-100787299D01*
X109224344Y-101264789D01*
X109217528Y-101752899D01*
X108203003Y-101752899D01*
X108051600Y-101601496D01*
X108051600Y-93307553D01*
X109003214Y-93307553D01*
X109048624Y-93554971D01*
X109141226Y-93788856D01*
X109277493Y-94000301D01*
X109452234Y-94181251D01*
X109658795Y-94324815D01*
X109889306Y-94425522D01*
X110134988Y-94479539D01*
X110386484Y-94484807D01*
X110634212Y-94441126D01*
X110868739Y-94350159D01*
X111081130Y-94215372D01*
X111263295Y-94041898D01*
X111408297Y-93836345D01*
X111442955Y-93758500D01*
X111847488Y-93758500D01*
X111847488Y-95409500D01*
X111853294Y-95482307D01*
X111891536Y-95605797D01*
X111962668Y-95713743D01*
X112061056Y-95797598D01*
X112178911Y-95850723D01*
X112306900Y-95868912D01*
X113957900Y-95868912D01*
X114030707Y-95863106D01*
X114154197Y-95824864D01*
X114262143Y-95753732D01*
X114345998Y-95655344D01*
X114399123Y-95537489D01*
X114417312Y-95409500D01*
X114417312Y-93758500D01*
X114411506Y-93685693D01*
X114373264Y-93562203D01*
X114302132Y-93454257D01*
X114203744Y-93370402D01*
X114085889Y-93317277D01*
X113957900Y-93299088D01*
X112306900Y-93299088D01*
X112234093Y-93304894D01*
X112110603Y-93343136D01*
X112002657Y-93414268D01*
X111918802Y-93512656D01*
X111865677Y-93630511D01*
X111847488Y-93758500D01*
X111442955Y-93758500D01*
X111510612Y-93606542D01*
X111566343Y-93361243D01*
X111570355Y-93073925D01*
X111521495Y-92827165D01*
X111425636Y-92594595D01*
X111286431Y-92385074D01*
X111109180Y-92206581D01*
X110900635Y-92065916D01*
X110668740Y-91968436D01*
X110448625Y-91923253D01*
X111848014Y-91923253D01*
X111893424Y-92170671D01*
X111986026Y-92404556D01*
X112122293Y-92616001D01*
X112297034Y-92796951D01*
X112503595Y-92940515D01*
X112734106Y-93041222D01*
X112979788Y-93095239D01*
X113231284Y-93100507D01*
X113479012Y-93056826D01*
X113713539Y-92965859D01*
X113925930Y-92831072D01*
X114108095Y-92657598D01*
X114253097Y-92452045D01*
X114355412Y-92222242D01*
X114411143Y-91976943D01*
X114415155Y-91689625D01*
X114366295Y-91442865D01*
X114270436Y-91210295D01*
X114131231Y-91000774D01*
X113953980Y-90822281D01*
X113745435Y-90681616D01*
X113513540Y-90584136D01*
X113267127Y-90533555D01*
X113015583Y-90531799D01*
X112768488Y-90578934D01*
X112535255Y-90673167D01*
X112324767Y-90810907D01*
X112145041Y-90986907D01*
X112002923Y-91194465D01*
X111903827Y-91425674D01*
X111851527Y-91671727D01*
X111848014Y-91923253D01*
X110448625Y-91923253D01*
X110422327Y-91917855D01*
X110170783Y-91916099D01*
X109923688Y-91963234D01*
X109690455Y-92057467D01*
X109479967Y-92195207D01*
X109300241Y-92371207D01*
X109158123Y-92578765D01*
X109059027Y-92809974D01*
X109006727Y-93056027D01*
X109003214Y-93307553D01*
X108051600Y-93307553D01*
X108051600Y-90538953D01*
X109003214Y-90538953D01*
X109048624Y-90786371D01*
X109141226Y-91020256D01*
X109277493Y-91231701D01*
X109452234Y-91412651D01*
X109658795Y-91556215D01*
X109889306Y-91656922D01*
X110134988Y-91710939D01*
X110386484Y-91716207D01*
X110634212Y-91672526D01*
X110868739Y-91581559D01*
X111081130Y-91446772D01*
X111263295Y-91273298D01*
X111408297Y-91067745D01*
X111510612Y-90837942D01*
X111566343Y-90592643D01*
X111570355Y-90305325D01*
X111521495Y-90058565D01*
X111425636Y-89825995D01*
X111286431Y-89616474D01*
X111109180Y-89437981D01*
X110900635Y-89297316D01*
X110668740Y-89199836D01*
X110448625Y-89154653D01*
X111848014Y-89154653D01*
X111893424Y-89402071D01*
X111986026Y-89635956D01*
X112122293Y-89847401D01*
X112297034Y-90028351D01*
X112503595Y-90171915D01*
X112734106Y-90272622D01*
X112979788Y-90326639D01*
X113231284Y-90331907D01*
X113479012Y-90288226D01*
X113713539Y-90197259D01*
X113925930Y-90062472D01*
X114108095Y-89888998D01*
X114253097Y-89683445D01*
X114355412Y-89453642D01*
X114411143Y-89208343D01*
X114415155Y-88921025D01*
X114366295Y-88674265D01*
X114270436Y-88441695D01*
X114131231Y-88232174D01*
X113953980Y-88053681D01*
X113745435Y-87913016D01*
X113513540Y-87815536D01*
X113267127Y-87764955D01*
X113015583Y-87763199D01*
X112768488Y-87810334D01*
X112535255Y-87904567D01*
X112324767Y-88042307D01*
X112145041Y-88218307D01*
X112002923Y-88425865D01*
X111903827Y-88657074D01*
X111851527Y-88903127D01*
X111848014Y-89154653D01*
X110448625Y-89154653D01*
X110422327Y-89149255D01*
X110170783Y-89147499D01*
X109923688Y-89194634D01*
X109690455Y-89288867D01*
X109479967Y-89426607D01*
X109300241Y-89602607D01*
X109158123Y-89810165D01*
X109059027Y-90041374D01*
X109006727Y-90287427D01*
X109003214Y-90538953D01*
X108051600Y-90538953D01*
X108051600Y-89406504D01*
X109166787Y-88291318D01*
X109277493Y-88463101D01*
X109452234Y-88644051D01*
X109658795Y-88787615D01*
X109889306Y-88888322D01*
X110134988Y-88942339D01*
X110386484Y-88947607D01*
X110634212Y-88903926D01*
X110868739Y-88812959D01*
X111081130Y-88678172D01*
X111263295Y-88504698D01*
X111408297Y-88299145D01*
X111510612Y-88069342D01*
X111566343Y-87824043D01*
X111570355Y-87536725D01*
X111521495Y-87289965D01*
X111425636Y-87057395D01*
X111286431Y-86847874D01*
X111109180Y-86669381D01*
X110900635Y-86528716D01*
X110668740Y-86431236D01*
X110448625Y-86386053D01*
X111848014Y-86386053D01*
X111893424Y-86633471D01*
X111986026Y-86867356D01*
X112122293Y-87078801D01*
X112297034Y-87259751D01*
X112503595Y-87403315D01*
X112734106Y-87504022D01*
X112979788Y-87558039D01*
X113231284Y-87563307D01*
X113479012Y-87519626D01*
X113713539Y-87428659D01*
X113925930Y-87293872D01*
X114108095Y-87120398D01*
X114253097Y-86914845D01*
X114355412Y-86685042D01*
X114411143Y-86439743D01*
X114415155Y-86152425D01*
X114366295Y-85905665D01*
X114270436Y-85673095D01*
X114131231Y-85463574D01*
X113953980Y-85285081D01*
X113745435Y-85144416D01*
X113513540Y-85046936D01*
X113267127Y-84996355D01*
X113015583Y-84994599D01*
X112768488Y-85041734D01*
X112535255Y-85135967D01*
X112324767Y-85273707D01*
X112145041Y-85449707D01*
X112002923Y-85657265D01*
X111903827Y-85888474D01*
X111851527Y-86134527D01*
X111848014Y-86386053D01*
X110448625Y-86386053D01*
X110422327Y-86380655D01*
X110170783Y-86378899D01*
X109923688Y-86426034D01*
X109690455Y-86520267D01*
X109479967Y-86658007D01*
X109300241Y-86834007D01*
X109158123Y-87041565D01*
X109153265Y-87052900D01*
X108933500Y-87052900D01*
X108877516Y-87058389D01*
X108821364Y-87063302D01*
X108818282Y-87064198D01*
X108815095Y-87064510D01*
X108761229Y-87080773D01*
X108707114Y-87096495D01*
X108704267Y-87097971D01*
X108701199Y-87098897D01*
X108651504Y-87125320D01*
X108601488Y-87151246D01*
X108598981Y-87153247D01*
X108596153Y-87154751D01*
X108552555Y-87190308D01*
X108508508Y-87225471D01*
X108504042Y-87229875D01*
X108503955Y-87229946D01*
X108503888Y-87230027D01*
X108502448Y-87231447D01*
X107010948Y-88722948D01*
X106975230Y-88766431D01*
X106939011Y-88809596D01*
X106937467Y-88812405D01*
X106935432Y-88814882D01*
X106908826Y-88864501D01*
X106881695Y-88913853D01*
X106880725Y-88916910D01*
X106879211Y-88919734D01*
X106862757Y-88973553D01*
X106845721Y-89027257D01*
X106845363Y-89030445D01*
X106844427Y-89033508D01*
X106838742Y-89089473D01*
X106832459Y-89145489D01*
X106832416Y-89151758D01*
X106832404Y-89151872D01*
X106832414Y-89151978D01*
X106832400Y-89154000D01*
X106832400Y-90730296D01*
X106736322Y-90634218D01*
X106752831Y-90561551D01*
X106756247Y-90316904D01*
X106714644Y-90106792D01*
X106633022Y-89908762D01*
X106514490Y-89730357D01*
X106363563Y-89578373D01*
X106185990Y-89458599D01*
X105988535Y-89375596D01*
X105778718Y-89332527D01*
X105564532Y-89331032D01*
X105354134Y-89371167D01*
X105155540Y-89451405D01*
X104976312Y-89568688D01*
X104823278Y-89718550D01*
X104702267Y-89895283D01*
X104617888Y-90092154D01*
X104573355Y-90301665D01*
X104570364Y-90515835D01*
X104609030Y-90726508D01*
X104687879Y-90925658D01*
X104803908Y-91105700D01*
X104952698Y-91259777D01*
X105128581Y-91382019D01*
X105324858Y-91467770D01*
X105534053Y-91513765D01*
X105748198Y-91518250D01*
X105816400Y-91506224D01*
X105816400Y-102362000D01*
X105821894Y-102418029D01*
X105826803Y-102474137D01*
X105827697Y-102477215D01*
X105828010Y-102480405D01*
X105844282Y-102534300D01*
X105859995Y-102588386D01*
X105861471Y-102591233D01*
X105862397Y-102594301D01*
X105888820Y-102643996D01*
X105914746Y-102694012D01*
X105916747Y-102696519D01*
X105918251Y-102699347D01*
X105953808Y-102742945D01*
X105988971Y-102786992D01*
X105993371Y-102791453D01*
X105993446Y-102791545D01*
X105993531Y-102791615D01*
X105994948Y-102793052D01*
X110566947Y-107365052D01*
X110610429Y-107400768D01*
X110653596Y-107436989D01*
X110656408Y-107438535D01*
X110658882Y-107440567D01*
X110708462Y-107467152D01*
X110757853Y-107494305D01*
X110760910Y-107495275D01*
X110763734Y-107496789D01*
X110817565Y-107513247D01*
X110871257Y-107530279D01*
X110874444Y-107530636D01*
X110877507Y-107531573D01*
X110933478Y-107537258D01*
X110989489Y-107543541D01*
X110995758Y-107543584D01*
X110995872Y-107543596D01*
X110995978Y-107543586D01*
X110998000Y-107543600D01*
X119313960Y-107543600D01*
X119369989Y-107538106D01*
X119426097Y-107533197D01*
X119429175Y-107532303D01*
X119432365Y-107531990D01*
X119486260Y-107515718D01*
X119540346Y-107500005D01*
X119543193Y-107498529D01*
X119546261Y-107497603D01*
X119595956Y-107471180D01*
X119645972Y-107445254D01*
X119648479Y-107443253D01*
X119651307Y-107441749D01*
X119694905Y-107406192D01*
X119738952Y-107371029D01*
X119743413Y-107366629D01*
X119743505Y-107366554D01*
X119743575Y-107366469D01*
X119745012Y-107365052D01*
X119833412Y-107276652D01*
X119871771Y-107293943D01*
X119999760Y-107312132D01*
X121298080Y-107312132D01*
X121195106Y-107415106D01*
X121153442Y-107465828D01*
X121111179Y-107516195D01*
X121109377Y-107519474D01*
X121107004Y-107522362D01*
X121075960Y-107580258D01*
X121044311Y-107637829D01*
X121043181Y-107641392D01*
X121041413Y-107644689D01*
X121022488Y-107706588D01*
X120698000Y-107706588D01*
X120625193Y-107712394D01*
X120501703Y-107750636D01*
X120393757Y-107821768D01*
X120309902Y-107920156D01*
X120256777Y-108038011D01*
X120238588Y-108166000D01*
X120238588Y-109766000D01*
X120244394Y-109838807D01*
X120282636Y-109962297D01*
X120353768Y-110070243D01*
X120452156Y-110154098D01*
X120570011Y-110207223D01*
X120698000Y-110225412D01*
X122698000Y-110225412D01*
X122770807Y-110219606D01*
X122894297Y-110181364D01*
X123002243Y-110110232D01*
X123086098Y-110011844D01*
X123139223Y-109893989D01*
X123157412Y-109766000D01*
X123157412Y-109181900D01*
X124240800Y-109181900D01*
X124240800Y-109811031D01*
X124258370Y-109899361D01*
X124292835Y-109982566D01*
X124342870Y-110057448D01*
X124406552Y-110121131D01*
X124481435Y-110171165D01*
X124564640Y-110205630D01*
X124652970Y-110223200D01*
X125482100Y-110223200D01*
X125596400Y-110108900D01*
X125596400Y-109067600D01*
X125799600Y-109067600D01*
X125799600Y-110108900D01*
X125913900Y-110223200D01*
X126743030Y-110223200D01*
X126831360Y-110205630D01*
X126914565Y-110171165D01*
X126989448Y-110121131D01*
X127053130Y-110057448D01*
X127103165Y-109982566D01*
X127137630Y-109899361D01*
X127155200Y-109811031D01*
X127155200Y-109181900D01*
X127040900Y-109067600D01*
X125799600Y-109067600D01*
X125596400Y-109067600D01*
X124355100Y-109067600D01*
X124240800Y-109181900D01*
X123157412Y-109181900D01*
X123157412Y-108185645D01*
X123196347Y-108165463D01*
X123199270Y-108163130D01*
X123202572Y-108161374D01*
X123252113Y-108120969D01*
X124240800Y-108120969D01*
X124240800Y-108750100D01*
X124355100Y-108864400D01*
X125596400Y-108864400D01*
X125596400Y-107823100D01*
X125799600Y-107823100D01*
X125799600Y-108864400D01*
X127040900Y-108864400D01*
X127155200Y-108750100D01*
X127155200Y-108120969D01*
X127137630Y-108032639D01*
X127103165Y-107949434D01*
X127053130Y-107874552D01*
X126989448Y-107810869D01*
X126914565Y-107760835D01*
X126831360Y-107726370D01*
X126743030Y-107708800D01*
X125913900Y-107708800D01*
X125799600Y-107823100D01*
X125596400Y-107823100D01*
X125482100Y-107708800D01*
X124652970Y-107708800D01*
X124564640Y-107726370D01*
X124481435Y-107760835D01*
X124406552Y-107810869D01*
X124342870Y-107874552D01*
X124292835Y-107949434D01*
X124258370Y-108032639D01*
X124240800Y-108120969D01*
X123252113Y-108120969D01*
X123253487Y-108119849D01*
X123304824Y-108078867D01*
X123310024Y-108073738D01*
X123310136Y-108073647D01*
X123310222Y-108073543D01*
X123311894Y-108071894D01*
X123692894Y-107690895D01*
X123734556Y-107640175D01*
X123776821Y-107589805D01*
X123778625Y-107586523D01*
X123780995Y-107583638D01*
X123812018Y-107525780D01*
X123843689Y-107468171D01*
X123844819Y-107464607D01*
X123846587Y-107461311D01*
X123865796Y-107398483D01*
X123885659Y-107335867D01*
X123886076Y-107332150D01*
X123887169Y-107328575D01*
X123893807Y-107263223D01*
X123901131Y-107197930D01*
X123901182Y-107190623D01*
X123901196Y-107190483D01*
X123901184Y-107190352D01*
X123901200Y-107188000D01*
X123901200Y-104495600D01*
X123894793Y-104430254D01*
X123889064Y-104364774D01*
X123888020Y-104361179D01*
X123887655Y-104357461D01*
X123868665Y-104294563D01*
X123850338Y-104231483D01*
X123848619Y-104228166D01*
X123847537Y-104224583D01*
X123816693Y-104166573D01*
X123786463Y-104108252D01*
X123784128Y-104105327D01*
X123782374Y-104102028D01*
X123740866Y-104051135D01*
X123699867Y-103999776D01*
X123694735Y-103994572D01*
X123694647Y-103994464D01*
X123694547Y-103994381D01*
X123692894Y-103992705D01*
X123210294Y-103510106D01*
X123159572Y-103468442D01*
X123109205Y-103426179D01*
X123105926Y-103424377D01*
X123103038Y-103422004D01*
X123045142Y-103390960D01*
X122987571Y-103359311D01*
X122984008Y-103358181D01*
X122980711Y-103356413D01*
X122917896Y-103337208D01*
X122855267Y-103317341D01*
X122851549Y-103316924D01*
X122847974Y-103315831D01*
X122782628Y-103309193D01*
X122717330Y-103301869D01*
X122710023Y-103301818D01*
X122709883Y-103301804D01*
X122709752Y-103301816D01*
X122707400Y-103301800D01*
X122576217Y-103301800D01*
X122587498Y-103288564D01*
X122640623Y-103170709D01*
X122658812Y-103042720D01*
X122658812Y-102443280D01*
X122653006Y-102370473D01*
X122614764Y-102246983D01*
X122543632Y-102139037D01*
X122509566Y-102110003D01*
X122587498Y-102018564D01*
X122640623Y-101900709D01*
X122658812Y-101772720D01*
X122658812Y-101289867D01*
X122850858Y-101373770D01*
X123060053Y-101419765D01*
X123127362Y-101421175D01*
X123115355Y-101477665D01*
X123112364Y-101691835D01*
X123151030Y-101902508D01*
X123229879Y-102101658D01*
X123345908Y-102281700D01*
X123494698Y-102435777D01*
X123670581Y-102558019D01*
X123866858Y-102643770D01*
X124076053Y-102689765D01*
X124290198Y-102694250D01*
X124501135Y-102657056D01*
X124700831Y-102579600D01*
X124737188Y-102556527D01*
X124737188Y-103042720D01*
X124742994Y-103115527D01*
X124781236Y-103239017D01*
X124852368Y-103346963D01*
X124886434Y-103375997D01*
X124808502Y-103467436D01*
X124755377Y-103585291D01*
X124737188Y-103713280D01*
X124737188Y-104312720D01*
X124742994Y-104385527D01*
X124781236Y-104509017D01*
X124852368Y-104616963D01*
X124886434Y-104645997D01*
X124808502Y-104737436D01*
X124755377Y-104855291D01*
X124737188Y-104983280D01*
X124737188Y-105582720D01*
X124742994Y-105655527D01*
X124781236Y-105779017D01*
X124852368Y-105886963D01*
X124886434Y-105915997D01*
X124808502Y-106007436D01*
X124755377Y-106125291D01*
X124737188Y-106253280D01*
X124737188Y-106852720D01*
X124742994Y-106925527D01*
X124781236Y-107049017D01*
X124852368Y-107156963D01*
X124950756Y-107240818D01*
X125068611Y-107293943D01*
X125196600Y-107312132D01*
X127396240Y-107312132D01*
X127469047Y-107306326D01*
X127592537Y-107268084D01*
X127700483Y-107196952D01*
X127729761Y-107162600D01*
X127901297Y-107162600D01*
X127925596Y-107182989D01*
X127928405Y-107184533D01*
X127930882Y-107186568D01*
X127980501Y-107213174D01*
X128029853Y-107240305D01*
X128032910Y-107241275D01*
X128035734Y-107242789D01*
X128089553Y-107259243D01*
X128143257Y-107276279D01*
X128146445Y-107276637D01*
X128149508Y-107277573D01*
X128205473Y-107283258D01*
X128261489Y-107289541D01*
X128267758Y-107289584D01*
X128267872Y-107289596D01*
X128267978Y-107289586D01*
X128270000Y-107289600D01*
X128633443Y-107289600D01*
X128679908Y-107361700D01*
X128828698Y-107515777D01*
X129004581Y-107638019D01*
X129138107Y-107696355D01*
X129031540Y-107739411D01*
X128852312Y-107856694D01*
X128699278Y-108006556D01*
X128578267Y-108183289D01*
X128493888Y-108380160D01*
X128449355Y-108589671D01*
X128446364Y-108803841D01*
X128485030Y-109014514D01*
X128563879Y-109213664D01*
X128679908Y-109393706D01*
X128828698Y-109547783D01*
X129004581Y-109670025D01*
X129200858Y-109755776D01*
X129410053Y-109801771D01*
X129624198Y-109806256D01*
X129835135Y-109769062D01*
X130034831Y-109691606D01*
X130215679Y-109576836D01*
X130370791Y-109429125D01*
X130494258Y-109254100D01*
X130581377Y-109058426D01*
X130628831Y-108849557D01*
X130632247Y-108604910D01*
X130611910Y-108502200D01*
X131216400Y-107897710D01*
X131216400Y-109474000D01*
X131221894Y-109530029D01*
X131226803Y-109586137D01*
X131227697Y-109589215D01*
X131228010Y-109592405D01*
X131244282Y-109646300D01*
X131259995Y-109700386D01*
X131261471Y-109703233D01*
X131262397Y-109706301D01*
X131288820Y-109755996D01*
X131314746Y-109806012D01*
X131316747Y-109808519D01*
X131318251Y-109811347D01*
X131353808Y-109854945D01*
X131388971Y-109898992D01*
X131393371Y-109903453D01*
X131393446Y-109903545D01*
X131393531Y-109903615D01*
X131394948Y-109905052D01*
X132410948Y-110921052D01*
X132454431Y-110956770D01*
X132497596Y-110992989D01*
X132500405Y-110994533D01*
X132502882Y-110996568D01*
X132552501Y-111023174D01*
X132601853Y-111050305D01*
X132604910Y-111051275D01*
X132607734Y-111052789D01*
X132661553Y-111069243D01*
X132715257Y-111086279D01*
X132718445Y-111086637D01*
X132721508Y-111087573D01*
X132777473Y-111093258D01*
X132833489Y-111099541D01*
X132839758Y-111099584D01*
X132839872Y-111099596D01*
X132839978Y-111099586D01*
X132842000Y-111099600D01*
X133324450Y-111099600D01*
X133354766Y-111157589D01*
X133503864Y-111343030D01*
X133686141Y-111495978D01*
X133894655Y-111610610D01*
X134121463Y-111682558D01*
X134357926Y-111709081D01*
X134374949Y-111709200D01*
X134865051Y-111709200D01*
X135101862Y-111685981D01*
X135329652Y-111617207D01*
X135539746Y-111505498D01*
X135724141Y-111355109D01*
X135875814Y-111171768D01*
X135892227Y-111141413D01*
X135988053Y-111280262D01*
X136160171Y-111447281D01*
X136361566Y-111577513D01*
X136584498Y-111665952D01*
X136820400Y-111709200D01*
X137058400Y-111709200D01*
X137058400Y-110591600D01*
X137261600Y-110591600D01*
X137261600Y-111709200D01*
X137499600Y-111709200D01*
X137735502Y-111665952D01*
X137958434Y-111577513D01*
X138159829Y-111447281D01*
X138331947Y-111280262D01*
X138468174Y-111082873D01*
X138563275Y-110862701D01*
X138582107Y-110780411D01*
X138498219Y-110591600D01*
X137261600Y-110591600D01*
X137058400Y-110591600D01*
X137038400Y-110591600D01*
X137038400Y-110388400D01*
X137058400Y-110388400D01*
X137058400Y-109270800D01*
X137261600Y-109270800D01*
X137261600Y-110388400D01*
X138498219Y-110388400D01*
X138582107Y-110199589D01*
X138563275Y-110117299D01*
X138468174Y-109897127D01*
X138331947Y-109699738D01*
X138159829Y-109532719D01*
X137958434Y-109402487D01*
X137735502Y-109314048D01*
X137499600Y-109270800D01*
X137261600Y-109270800D01*
X137058400Y-109270800D01*
X136820400Y-109270800D01*
X136584498Y-109314048D01*
X136361566Y-109402487D01*
X136160171Y-109532719D01*
X135988053Y-109699738D01*
X135893060Y-109837380D01*
X135885234Y-109822411D01*
X135736136Y-109636970D01*
X135553859Y-109484022D01*
X135345345Y-109369390D01*
X135118537Y-109297442D01*
X134882074Y-109270919D01*
X134865051Y-109270800D01*
X134374949Y-109270800D01*
X134138138Y-109294019D01*
X133910348Y-109362793D01*
X133700254Y-109474502D01*
X133515859Y-109624891D01*
X133364186Y-109808232D01*
X133325165Y-109880400D01*
X133094504Y-109880400D01*
X132435600Y-109221496D01*
X132435600Y-107932504D01*
X132884148Y-108381052D01*
X132927631Y-108416770D01*
X132970796Y-108452989D01*
X132973605Y-108454533D01*
X132976082Y-108456568D01*
X133025701Y-108483174D01*
X133075053Y-108510305D01*
X133078110Y-108511275D01*
X133080934Y-108512789D01*
X133134753Y-108529243D01*
X133188457Y-108546279D01*
X133191645Y-108546637D01*
X133194708Y-108547573D01*
X133250673Y-108553258D01*
X133306689Y-108559541D01*
X133312958Y-108559584D01*
X133313072Y-108559596D01*
X133313178Y-108559586D01*
X133315200Y-108559600D01*
X133324450Y-108559600D01*
X133354766Y-108617589D01*
X133503864Y-108803030D01*
X133686141Y-108955978D01*
X133894655Y-109070610D01*
X134121463Y-109142558D01*
X134357926Y-109169081D01*
X134374949Y-109169200D01*
X134865051Y-109169200D01*
X135101862Y-109145981D01*
X135329652Y-109077207D01*
X135539746Y-108965498D01*
X135724141Y-108815109D01*
X135875814Y-108631768D01*
X135892227Y-108601413D01*
X135988053Y-108740262D01*
X136160171Y-108907281D01*
X136361566Y-109037513D01*
X136584498Y-109125952D01*
X136820400Y-109169200D01*
X137058400Y-109169200D01*
X137058400Y-108051600D01*
X137261600Y-108051600D01*
X137261600Y-109169200D01*
X137499600Y-109169200D01*
X137735502Y-109125952D01*
X137958434Y-109037513D01*
X138159829Y-108907281D01*
X138331947Y-108740262D01*
X138468174Y-108542873D01*
X138563275Y-108322701D01*
X138582107Y-108240411D01*
X138498219Y-108051600D01*
X137261600Y-108051600D01*
X137058400Y-108051600D01*
X137038400Y-108051600D01*
X137038400Y-107848400D01*
X137058400Y-107848400D01*
X137058400Y-106730800D01*
X137261600Y-106730800D01*
X137261600Y-107848400D01*
X138498219Y-107848400D01*
X138582107Y-107659589D01*
X138563275Y-107577299D01*
X138468174Y-107357127D01*
X138331947Y-107159738D01*
X138159829Y-106992719D01*
X137958434Y-106862487D01*
X137735502Y-106774048D01*
X137499600Y-106730800D01*
X137261600Y-106730800D01*
X137058400Y-106730800D01*
X136820400Y-106730800D01*
X136584498Y-106774048D01*
X136361566Y-106862487D01*
X136160171Y-106992719D01*
X135988053Y-107159738D01*
X135893060Y-107297380D01*
X135885234Y-107282411D01*
X135736136Y-107096970D01*
X135553859Y-106944022D01*
X135345345Y-106829390D01*
X135118537Y-106757442D01*
X134882074Y-106730919D01*
X134865051Y-106730800D01*
X134374949Y-106730800D01*
X134138138Y-106754019D01*
X133910348Y-106822793D01*
X133700254Y-106934502D01*
X133515859Y-107084891D01*
X133451600Y-107162567D01*
X133451600Y-106198027D01*
X133503864Y-106263030D01*
X133686141Y-106415978D01*
X133894655Y-106530610D01*
X134121463Y-106602558D01*
X134357926Y-106629081D01*
X134374949Y-106629200D01*
X134865051Y-106629200D01*
X135101862Y-106605981D01*
X135329652Y-106537207D01*
X135539746Y-106425498D01*
X135724141Y-106275109D01*
X135875814Y-106091768D01*
X135892227Y-106061413D01*
X135988053Y-106200262D01*
X136160171Y-106367281D01*
X136361566Y-106497513D01*
X136584498Y-106585952D01*
X136820400Y-106629200D01*
X137058400Y-106629200D01*
X137058400Y-105511600D01*
X137261600Y-105511600D01*
X137261600Y-106629200D01*
X137499600Y-106629200D01*
X137735502Y-106585952D01*
X137958434Y-106497513D01*
X138159829Y-106367281D01*
X138331947Y-106200262D01*
X138468174Y-106002873D01*
X138563275Y-105782701D01*
X138582107Y-105700411D01*
X138498219Y-105511600D01*
X137261600Y-105511600D01*
X137058400Y-105511600D01*
X137038400Y-105511600D01*
X137038400Y-105308400D01*
X137058400Y-105308400D01*
X137058400Y-104190800D01*
X137261600Y-104190800D01*
X137261600Y-105308400D01*
X138498219Y-105308400D01*
X138582107Y-105119589D01*
X138563275Y-105037299D01*
X138468174Y-104817127D01*
X138331947Y-104619738D01*
X138159829Y-104452719D01*
X137958434Y-104322487D01*
X137735502Y-104234048D01*
X137499600Y-104190800D01*
X137261600Y-104190800D01*
X137058400Y-104190800D01*
X136820400Y-104190800D01*
X136584498Y-104234048D01*
X136361566Y-104322487D01*
X136160171Y-104452719D01*
X135988053Y-104619738D01*
X135893060Y-104757380D01*
X135885234Y-104742411D01*
X135736136Y-104556970D01*
X135553859Y-104404022D01*
X135345345Y-104289390D01*
X135118537Y-104217442D01*
X134882074Y-104190919D01*
X134865051Y-104190800D01*
X134374949Y-104190800D01*
X134138138Y-104214019D01*
X133910348Y-104282793D01*
X133700254Y-104394502D01*
X133515859Y-104544891D01*
X133407893Y-104675399D01*
X133406529Y-104672767D01*
X133405603Y-104669699D01*
X133379180Y-104620004D01*
X133353254Y-104569988D01*
X133351253Y-104567481D01*
X133349749Y-104564653D01*
X133314192Y-104521055D01*
X133279029Y-104477008D01*
X133274629Y-104472547D01*
X133274554Y-104472455D01*
X133274469Y-104472385D01*
X133273052Y-104470948D01*
X131663592Y-102861488D01*
X133155779Y-102861488D01*
X133177344Y-103098455D01*
X133244526Y-103326720D01*
X133354766Y-103537589D01*
X133503864Y-103723030D01*
X133686141Y-103875978D01*
X133894655Y-103990610D01*
X134121463Y-104062558D01*
X134357926Y-104089081D01*
X134374949Y-104089200D01*
X134865051Y-104089200D01*
X135101862Y-104065981D01*
X135329652Y-103997207D01*
X135539746Y-103885498D01*
X135724141Y-103735109D01*
X135875814Y-103551768D01*
X135892227Y-103521413D01*
X135988053Y-103660262D01*
X136160171Y-103827281D01*
X136361566Y-103957513D01*
X136584498Y-104045952D01*
X136820400Y-104089200D01*
X137058400Y-104089200D01*
X137058400Y-102971600D01*
X137261600Y-102971600D01*
X137261600Y-104089200D01*
X137499600Y-104089200D01*
X137735502Y-104045952D01*
X137958434Y-103957513D01*
X138159829Y-103827281D01*
X138331947Y-103660262D01*
X138468174Y-103462873D01*
X138563275Y-103242701D01*
X138582107Y-103160411D01*
X138498219Y-102971600D01*
X137261600Y-102971600D01*
X137058400Y-102971600D01*
X137038400Y-102971600D01*
X137038400Y-102768400D01*
X137058400Y-102768400D01*
X137058400Y-101650800D01*
X137261600Y-101650800D01*
X137261600Y-102768400D01*
X138498219Y-102768400D01*
X138582107Y-102579589D01*
X138563275Y-102497299D01*
X138468174Y-102277127D01*
X138331947Y-102079738D01*
X138159829Y-101912719D01*
X137958434Y-101782487D01*
X137735502Y-101694048D01*
X137499600Y-101650800D01*
X137261600Y-101650800D01*
X137058400Y-101650800D01*
X136820400Y-101650800D01*
X136584498Y-101694048D01*
X136361566Y-101782487D01*
X136160171Y-101912719D01*
X135988053Y-102079738D01*
X135893060Y-102217380D01*
X135885234Y-102202411D01*
X135736136Y-102016970D01*
X135553859Y-101864022D01*
X135345345Y-101749390D01*
X135118537Y-101677442D01*
X134882074Y-101650919D01*
X134865051Y-101650800D01*
X134374949Y-101650800D01*
X134138138Y-101674019D01*
X133910348Y-101742793D01*
X133700254Y-101854502D01*
X133515859Y-102004891D01*
X133364186Y-102188232D01*
X133251013Y-102397541D01*
X133180651Y-102624846D01*
X133155779Y-102861488D01*
X131663592Y-102861488D01*
X131114052Y-102311948D01*
X131070569Y-102276230D01*
X131027404Y-102240011D01*
X131024595Y-102238467D01*
X131022118Y-102236432D01*
X130972499Y-102209826D01*
X130923147Y-102182695D01*
X130920090Y-102181725D01*
X130917266Y-102180211D01*
X130863447Y-102163757D01*
X130809743Y-102146721D01*
X130806555Y-102146363D01*
X130803492Y-102145427D01*
X130747527Y-102139742D01*
X130691511Y-102133459D01*
X130685242Y-102133416D01*
X130685128Y-102133404D01*
X130685022Y-102133414D01*
X130683000Y-102133400D01*
X127733858Y-102133400D01*
X127706406Y-102110003D01*
X127784338Y-102018564D01*
X127837463Y-101900709D01*
X127855652Y-101772720D01*
X127855652Y-101173280D01*
X127849846Y-101100473D01*
X127811604Y-100976983D01*
X127740472Y-100869037D01*
X127706406Y-100840003D01*
X127784338Y-100748564D01*
X127837463Y-100630709D01*
X127855652Y-100502720D01*
X127855652Y-100321488D01*
X133155779Y-100321488D01*
X133177344Y-100558455D01*
X133244526Y-100786720D01*
X133354766Y-100997589D01*
X133503864Y-101183030D01*
X133686141Y-101335978D01*
X133894655Y-101450610D01*
X134121463Y-101522558D01*
X134357926Y-101549081D01*
X134374949Y-101549200D01*
X134865051Y-101549200D01*
X135101862Y-101525981D01*
X135329652Y-101457207D01*
X135539746Y-101345498D01*
X135724141Y-101195109D01*
X135875814Y-101011768D01*
X135889218Y-100986977D01*
X135894766Y-100997589D01*
X136043864Y-101183030D01*
X136226141Y-101335978D01*
X136434655Y-101450610D01*
X136661463Y-101522558D01*
X136897926Y-101549081D01*
X136914949Y-101549200D01*
X137405051Y-101549200D01*
X137641862Y-101525981D01*
X137869652Y-101457207D01*
X138079746Y-101345498D01*
X138264141Y-101195109D01*
X138415814Y-101011768D01*
X138528987Y-100802459D01*
X138599349Y-100575154D01*
X138624221Y-100338512D01*
X138602656Y-100101545D01*
X138535474Y-99873280D01*
X138425234Y-99662411D01*
X138276136Y-99476970D01*
X138093859Y-99324022D01*
X137885345Y-99209390D01*
X137658537Y-99137442D01*
X137422074Y-99110919D01*
X137405051Y-99110800D01*
X136914949Y-99110800D01*
X136678138Y-99134019D01*
X136450348Y-99202793D01*
X136240254Y-99314502D01*
X136055859Y-99464891D01*
X135904186Y-99648232D01*
X135890782Y-99673023D01*
X135885234Y-99662411D01*
X135736136Y-99476970D01*
X135553859Y-99324022D01*
X135345345Y-99209390D01*
X135118537Y-99137442D01*
X134882074Y-99110919D01*
X134865051Y-99110800D01*
X134374949Y-99110800D01*
X134138138Y-99134019D01*
X133910348Y-99202793D01*
X133700254Y-99314502D01*
X133515859Y-99464891D01*
X133364186Y-99648232D01*
X133251013Y-99857541D01*
X133180651Y-100084846D01*
X133155779Y-100321488D01*
X127855652Y-100321488D01*
X127855652Y-99903280D01*
X127849846Y-99830473D01*
X127811604Y-99706983D01*
X127740472Y-99599037D01*
X127705936Y-99569602D01*
X127751371Y-99524168D01*
X127801405Y-99449285D01*
X127835870Y-99366080D01*
X127853440Y-99277750D01*
X127853440Y-99148900D01*
X127739140Y-99034600D01*
X126398020Y-99034600D01*
X126398020Y-99054600D01*
X126194820Y-99054600D01*
X126194820Y-99034600D01*
X124853700Y-99034600D01*
X124739400Y-99148900D01*
X124739400Y-99277750D01*
X124756970Y-99366080D01*
X124791435Y-99449285D01*
X124841469Y-99524168D01*
X124884992Y-99567690D01*
X124863079Y-99593400D01*
X124333000Y-99593400D01*
X124276971Y-99598894D01*
X124220863Y-99603803D01*
X124217785Y-99604697D01*
X124214595Y-99605010D01*
X124160700Y-99621282D01*
X124106614Y-99636995D01*
X124103767Y-99638471D01*
X124100699Y-99639397D01*
X124057700Y-99662260D01*
X124040490Y-99636357D01*
X123889563Y-99484373D01*
X123711990Y-99364599D01*
X123514535Y-99281596D01*
X123390129Y-99256059D01*
X124200894Y-98445294D01*
X124242558Y-98394572D01*
X124284821Y-98344205D01*
X124286623Y-98340926D01*
X124288996Y-98338038D01*
X124320040Y-98280142D01*
X124351689Y-98222571D01*
X124352819Y-98219008D01*
X124354587Y-98215711D01*
X124373792Y-98152896D01*
X124393659Y-98090267D01*
X124394076Y-98086549D01*
X124395169Y-98082974D01*
X124401807Y-98017628D01*
X124409131Y-97952330D01*
X124409182Y-97945023D01*
X124409196Y-97944883D01*
X124409184Y-97944752D01*
X124409200Y-97942400D01*
X124409200Y-96401487D01*
X124452156Y-96438098D01*
X124570011Y-96491223D01*
X124698000Y-96509412D01*
X126698000Y-96509412D01*
X126770807Y-96503606D01*
X126894297Y-96465364D01*
X127002243Y-96394232D01*
X127086098Y-96295844D01*
X127139223Y-96177989D01*
X127157412Y-96050000D01*
X127157412Y-95961200D01*
X127558800Y-95961200D01*
X127558800Y-96733411D01*
X127388344Y-96903868D01*
X125196600Y-96903868D01*
X125123793Y-96909674D01*
X125000303Y-96947916D01*
X124892357Y-97019048D01*
X124808502Y-97117436D01*
X124755377Y-97235291D01*
X124737188Y-97363280D01*
X124737188Y-97962720D01*
X124742994Y-98035527D01*
X124781236Y-98159017D01*
X124852368Y-98266963D01*
X124886904Y-98296398D01*
X124841469Y-98341832D01*
X124791435Y-98416715D01*
X124756970Y-98499920D01*
X124739400Y-98588250D01*
X124739400Y-98717100D01*
X124853700Y-98831400D01*
X126194820Y-98831400D01*
X126194820Y-98811400D01*
X126398020Y-98811400D01*
X126398020Y-98831400D01*
X127739140Y-98831400D01*
X127853440Y-98717100D01*
X127853440Y-98588250D01*
X127835870Y-98499920D01*
X127801405Y-98416715D01*
X127764941Y-98362141D01*
X127765826Y-98362064D01*
X127769421Y-98361020D01*
X127773139Y-98360655D01*
X127835990Y-98341679D01*
X127899117Y-98323339D01*
X127902438Y-98321618D01*
X127906017Y-98320537D01*
X127964012Y-98289701D01*
X128022347Y-98259463D01*
X128025270Y-98257130D01*
X128028572Y-98255374D01*
X128079487Y-98213849D01*
X128130824Y-98172867D01*
X128136024Y-98167738D01*
X128136136Y-98167647D01*
X128136222Y-98167543D01*
X128137894Y-98165894D01*
X128522300Y-97781488D01*
X133155779Y-97781488D01*
X133177344Y-98018455D01*
X133244526Y-98246720D01*
X133354766Y-98457589D01*
X133503864Y-98643030D01*
X133686141Y-98795978D01*
X133894655Y-98910610D01*
X134121463Y-98982558D01*
X134357926Y-99009081D01*
X134374949Y-99009200D01*
X134865051Y-99009200D01*
X135101862Y-98985981D01*
X135329652Y-98917207D01*
X135539746Y-98805498D01*
X135724141Y-98655109D01*
X135875814Y-98471768D01*
X135889218Y-98446977D01*
X135894766Y-98457589D01*
X136043864Y-98643030D01*
X136226141Y-98795978D01*
X136434655Y-98910610D01*
X136661463Y-98982558D01*
X136897926Y-99009081D01*
X136914949Y-99009200D01*
X137405051Y-99009200D01*
X137641862Y-98985981D01*
X137869652Y-98917207D01*
X138079746Y-98805498D01*
X138264141Y-98655109D01*
X138415814Y-98471768D01*
X138528987Y-98262459D01*
X138599349Y-98035154D01*
X138624221Y-97798512D01*
X138602656Y-97561545D01*
X138535474Y-97333280D01*
X138425234Y-97122411D01*
X138276136Y-96936970D01*
X138093859Y-96784022D01*
X137885345Y-96669390D01*
X137658537Y-96597442D01*
X137422074Y-96570919D01*
X137405051Y-96570800D01*
X136914949Y-96570800D01*
X136678138Y-96594019D01*
X136450348Y-96662793D01*
X136240254Y-96774502D01*
X136055859Y-96924891D01*
X135904186Y-97108232D01*
X135890782Y-97133023D01*
X135885234Y-97122411D01*
X135736136Y-96936970D01*
X135553859Y-96784022D01*
X135345345Y-96669390D01*
X135118537Y-96597442D01*
X134882074Y-96570919D01*
X134865051Y-96570800D01*
X134374949Y-96570800D01*
X134138138Y-96594019D01*
X133910348Y-96662793D01*
X133700254Y-96774502D01*
X133515859Y-96924891D01*
X133364186Y-97108232D01*
X133251013Y-97317541D01*
X133180651Y-97544846D01*
X133155779Y-97781488D01*
X128522300Y-97781488D01*
X128772895Y-97530894D01*
X128814564Y-97480165D01*
X128856821Y-97429805D01*
X128858625Y-97426524D01*
X128860996Y-97423637D01*
X128892028Y-97365762D01*
X128923689Y-97308171D01*
X128924819Y-97304607D01*
X128926587Y-97301311D01*
X128945792Y-97238496D01*
X128965659Y-97175867D01*
X128966076Y-97172149D01*
X128967169Y-97168574D01*
X128973806Y-97103232D01*
X128981131Y-97037930D01*
X128981182Y-97030622D01*
X128981196Y-97030482D01*
X128981184Y-97030351D01*
X128981200Y-97028000D01*
X128981200Y-95241488D01*
X133155779Y-95241488D01*
X133177344Y-95478455D01*
X133244526Y-95706720D01*
X133354766Y-95917589D01*
X133503864Y-96103030D01*
X133686141Y-96255978D01*
X133894655Y-96370610D01*
X134121463Y-96442558D01*
X134357926Y-96469081D01*
X134374949Y-96469200D01*
X134865051Y-96469200D01*
X135101862Y-96445981D01*
X135329652Y-96377207D01*
X135539746Y-96265498D01*
X135724141Y-96115109D01*
X135875814Y-95931768D01*
X135889218Y-95906977D01*
X135894766Y-95917589D01*
X136043864Y-96103030D01*
X136226141Y-96255978D01*
X136434655Y-96370610D01*
X136661463Y-96442558D01*
X136897926Y-96469081D01*
X136914949Y-96469200D01*
X137405051Y-96469200D01*
X137641862Y-96445981D01*
X137869652Y-96377207D01*
X138079746Y-96265498D01*
X138264141Y-96115109D01*
X138415814Y-95931768D01*
X138528987Y-95722459D01*
X138599349Y-95495154D01*
X138624221Y-95258512D01*
X138602656Y-95021545D01*
X138535474Y-94793280D01*
X138425234Y-94582411D01*
X138276136Y-94396970D01*
X138093859Y-94244022D01*
X137885345Y-94129390D01*
X137658537Y-94057442D01*
X137422074Y-94030919D01*
X137405051Y-94030800D01*
X136914949Y-94030800D01*
X136678138Y-94054019D01*
X136450348Y-94122793D01*
X136240254Y-94234502D01*
X136055859Y-94384891D01*
X135904186Y-94568232D01*
X135890782Y-94593023D01*
X135885234Y-94582411D01*
X135736136Y-94396970D01*
X135553859Y-94244022D01*
X135345345Y-94129390D01*
X135118537Y-94057442D01*
X134882074Y-94030919D01*
X134865051Y-94030800D01*
X134374949Y-94030800D01*
X134138138Y-94054019D01*
X133910348Y-94122793D01*
X133700254Y-94234502D01*
X133515859Y-94384891D01*
X133364186Y-94568232D01*
X133251013Y-94777541D01*
X133180651Y-95004846D01*
X133155779Y-95241488D01*
X128981200Y-95241488D01*
X128981200Y-92701488D01*
X133155779Y-92701488D01*
X133177344Y-92938455D01*
X133244526Y-93166720D01*
X133354766Y-93377589D01*
X133503864Y-93563030D01*
X133686141Y-93715978D01*
X133894655Y-93830610D01*
X134121463Y-93902558D01*
X134357926Y-93929081D01*
X134374949Y-93929200D01*
X134865051Y-93929200D01*
X135101862Y-93905981D01*
X135329652Y-93837207D01*
X135539746Y-93725498D01*
X135724141Y-93575109D01*
X135875814Y-93391768D01*
X135889218Y-93366977D01*
X135894766Y-93377589D01*
X136043864Y-93563030D01*
X136226141Y-93715978D01*
X136434655Y-93830610D01*
X136661463Y-93902558D01*
X136897926Y-93929081D01*
X136914949Y-93929200D01*
X137405051Y-93929200D01*
X137641862Y-93905981D01*
X137869652Y-93837207D01*
X138079746Y-93725498D01*
X138264141Y-93575109D01*
X138415814Y-93391768D01*
X138528987Y-93182459D01*
X138599349Y-92955154D01*
X138624221Y-92718512D01*
X138602656Y-92481545D01*
X138535474Y-92253280D01*
X138425234Y-92042411D01*
X138276136Y-91856970D01*
X138093859Y-91704022D01*
X137885345Y-91589390D01*
X137658537Y-91517442D01*
X137422074Y-91490919D01*
X137405051Y-91490800D01*
X136914949Y-91490800D01*
X136678138Y-91514019D01*
X136450348Y-91582793D01*
X136240254Y-91694502D01*
X136055859Y-91844891D01*
X135904186Y-92028232D01*
X135890782Y-92053023D01*
X135885234Y-92042411D01*
X135736136Y-91856970D01*
X135553859Y-91704022D01*
X135345345Y-91589390D01*
X135118537Y-91517442D01*
X134882074Y-91490919D01*
X134865051Y-91490800D01*
X134374949Y-91490800D01*
X134138138Y-91514019D01*
X133910348Y-91582793D01*
X133700254Y-91694502D01*
X133515859Y-91844891D01*
X133364186Y-92028232D01*
X133251013Y-92237541D01*
X133180651Y-92464846D01*
X133155779Y-92701488D01*
X128981200Y-92701488D01*
X128981200Y-90161488D01*
X133155779Y-90161488D01*
X133177344Y-90398455D01*
X133244526Y-90626720D01*
X133354766Y-90837589D01*
X133503864Y-91023030D01*
X133686141Y-91175978D01*
X133894655Y-91290610D01*
X134121463Y-91362558D01*
X134357926Y-91389081D01*
X134374949Y-91389200D01*
X134865051Y-91389200D01*
X135101862Y-91365981D01*
X135329652Y-91297207D01*
X135539746Y-91185498D01*
X135724141Y-91035109D01*
X135875814Y-90851768D01*
X135889218Y-90826977D01*
X135894766Y-90837589D01*
X136043864Y-91023030D01*
X136226141Y-91175978D01*
X136434655Y-91290610D01*
X136661463Y-91362558D01*
X136897926Y-91389081D01*
X136914949Y-91389200D01*
X137405051Y-91389200D01*
X137641862Y-91365981D01*
X137869652Y-91297207D01*
X138079746Y-91185498D01*
X138264141Y-91035109D01*
X138415814Y-90851768D01*
X138528987Y-90642459D01*
X138599349Y-90415154D01*
X138624221Y-90178512D01*
X138602656Y-89941545D01*
X138535474Y-89713280D01*
X138425234Y-89502411D01*
X138276136Y-89316970D01*
X138093859Y-89164022D01*
X137885345Y-89049390D01*
X137658537Y-88977442D01*
X137422074Y-88950919D01*
X137405051Y-88950800D01*
X136914949Y-88950800D01*
X136678138Y-88974019D01*
X136450348Y-89042793D01*
X136240254Y-89154502D01*
X136055859Y-89304891D01*
X135904186Y-89488232D01*
X135890782Y-89513023D01*
X135885234Y-89502411D01*
X135736136Y-89316970D01*
X135553859Y-89164022D01*
X135345345Y-89049390D01*
X135118537Y-88977442D01*
X134882074Y-88950919D01*
X134865051Y-88950800D01*
X134374949Y-88950800D01*
X134138138Y-88974019D01*
X133910348Y-89042793D01*
X133700254Y-89154502D01*
X133515859Y-89304891D01*
X133364186Y-89488232D01*
X133251013Y-89697541D01*
X133180651Y-89924846D01*
X133155779Y-90161488D01*
X128981200Y-90161488D01*
X128981200Y-87621488D01*
X133155779Y-87621488D01*
X133177344Y-87858455D01*
X133244526Y-88086720D01*
X133354766Y-88297589D01*
X133503864Y-88483030D01*
X133686141Y-88635978D01*
X133894655Y-88750610D01*
X134121463Y-88822558D01*
X134357926Y-88849081D01*
X134374949Y-88849200D01*
X134865051Y-88849200D01*
X135101862Y-88825981D01*
X135329652Y-88757207D01*
X135539746Y-88645498D01*
X135724141Y-88495109D01*
X135875814Y-88311768D01*
X135889218Y-88286977D01*
X135894766Y-88297589D01*
X136043864Y-88483030D01*
X136226141Y-88635978D01*
X136434655Y-88750610D01*
X136661463Y-88822558D01*
X136897926Y-88849081D01*
X136914949Y-88849200D01*
X137405051Y-88849200D01*
X137641862Y-88825981D01*
X137869652Y-88757207D01*
X138079746Y-88645498D01*
X138264141Y-88495109D01*
X138415814Y-88311768D01*
X138528987Y-88102459D01*
X138599349Y-87875154D01*
X138624221Y-87638512D01*
X138602656Y-87401545D01*
X138535474Y-87173280D01*
X138425234Y-86962411D01*
X138276136Y-86776970D01*
X138093859Y-86624022D01*
X137885345Y-86509390D01*
X137658537Y-86437442D01*
X137422074Y-86410919D01*
X137405051Y-86410800D01*
X136914949Y-86410800D01*
X136678138Y-86434019D01*
X136450348Y-86502793D01*
X136240254Y-86614502D01*
X136055859Y-86764891D01*
X135904186Y-86948232D01*
X135890782Y-86973023D01*
X135885234Y-86962411D01*
X135736136Y-86776970D01*
X135553859Y-86624022D01*
X135345345Y-86509390D01*
X135118537Y-86437442D01*
X134882074Y-86410919D01*
X134865051Y-86410800D01*
X134374949Y-86410800D01*
X134138138Y-86434019D01*
X133910348Y-86502793D01*
X133700254Y-86614502D01*
X133515859Y-86764891D01*
X133364186Y-86948232D01*
X133251013Y-87157541D01*
X133180651Y-87384846D01*
X133155779Y-87621488D01*
X128981200Y-87621488D01*
X128981200Y-85081488D01*
X133155779Y-85081488D01*
X133177344Y-85318455D01*
X133244526Y-85546720D01*
X133354766Y-85757589D01*
X133503864Y-85943030D01*
X133686141Y-86095978D01*
X133894655Y-86210610D01*
X134121463Y-86282558D01*
X134357926Y-86309081D01*
X134374949Y-86309200D01*
X134865051Y-86309200D01*
X135101862Y-86285981D01*
X135329652Y-86217207D01*
X135539746Y-86105498D01*
X135724141Y-85955109D01*
X135875814Y-85771768D01*
X135889218Y-85746977D01*
X135894766Y-85757589D01*
X136043864Y-85943030D01*
X136226141Y-86095978D01*
X136434655Y-86210610D01*
X136661463Y-86282558D01*
X136897926Y-86309081D01*
X136914949Y-86309200D01*
X137405051Y-86309200D01*
X137641862Y-86285981D01*
X137869652Y-86217207D01*
X138079746Y-86105498D01*
X138264141Y-85955109D01*
X138415814Y-85771768D01*
X138528987Y-85562459D01*
X138599349Y-85335154D01*
X138624221Y-85098512D01*
X138602656Y-84861545D01*
X138535474Y-84633280D01*
X138425234Y-84422411D01*
X138276136Y-84236970D01*
X138093859Y-84084022D01*
X137885345Y-83969390D01*
X137658537Y-83897442D01*
X137422074Y-83870919D01*
X137405051Y-83870800D01*
X136914949Y-83870800D01*
X136678138Y-83894019D01*
X136450348Y-83962793D01*
X136240254Y-84074502D01*
X136055859Y-84224891D01*
X135904186Y-84408232D01*
X135890782Y-84433023D01*
X135885234Y-84422411D01*
X135736136Y-84236970D01*
X135553859Y-84084022D01*
X135345345Y-83969390D01*
X135118537Y-83897442D01*
X134882074Y-83870919D01*
X134865051Y-83870800D01*
X134374949Y-83870800D01*
X134138138Y-83894019D01*
X133910348Y-83962793D01*
X133700254Y-84074502D01*
X133515859Y-84224891D01*
X133364186Y-84408232D01*
X133251013Y-84617541D01*
X133180651Y-84844846D01*
X133155779Y-85081488D01*
X128981200Y-85081488D01*
X128981200Y-84114588D01*
X130554300Y-82541488D01*
X133155779Y-82541488D01*
X133177344Y-82778455D01*
X133244526Y-83006720D01*
X133354766Y-83217589D01*
X133503864Y-83403030D01*
X133686141Y-83555978D01*
X133894655Y-83670610D01*
X134121463Y-83742558D01*
X134357926Y-83769081D01*
X134374949Y-83769200D01*
X134865051Y-83769200D01*
X135101862Y-83745981D01*
X135329652Y-83677207D01*
X135539746Y-83565498D01*
X135724141Y-83415109D01*
X135875814Y-83231768D01*
X135892227Y-83201413D01*
X135988053Y-83340262D01*
X136160171Y-83507281D01*
X136361566Y-83637513D01*
X136584498Y-83725952D01*
X136820400Y-83769200D01*
X137058400Y-83769200D01*
X137058400Y-82651600D01*
X137261600Y-82651600D01*
X137261600Y-83769200D01*
X137499600Y-83769200D01*
X137735502Y-83725952D01*
X137958434Y-83637513D01*
X138159829Y-83507281D01*
X138331947Y-83340262D01*
X138468174Y-83142873D01*
X138563275Y-82922701D01*
X138582107Y-82840411D01*
X138498219Y-82651600D01*
X137261600Y-82651600D01*
X137058400Y-82651600D01*
X137038400Y-82651600D01*
X137038400Y-82448400D01*
X137058400Y-82448400D01*
X137058400Y-81330800D01*
X137261600Y-81330800D01*
X137261600Y-82448400D01*
X138498219Y-82448400D01*
X138582107Y-82259589D01*
X138563275Y-82177299D01*
X138468174Y-81957127D01*
X138331947Y-81759738D01*
X138159829Y-81592719D01*
X137958434Y-81462487D01*
X137735502Y-81374048D01*
X137499600Y-81330800D01*
X137261600Y-81330800D01*
X137058400Y-81330800D01*
X136820400Y-81330800D01*
X136584498Y-81374048D01*
X136361566Y-81462487D01*
X136160171Y-81592719D01*
X135988053Y-81759738D01*
X135893060Y-81897380D01*
X135885234Y-81882411D01*
X135736136Y-81696970D01*
X135553859Y-81544022D01*
X135345345Y-81429390D01*
X135118537Y-81357442D01*
X134882074Y-81330919D01*
X134865051Y-81330800D01*
X134374949Y-81330800D01*
X134138138Y-81354019D01*
X133910348Y-81422793D01*
X133700254Y-81534502D01*
X133515859Y-81684891D01*
X133364186Y-81868232D01*
X133251013Y-82077541D01*
X133180651Y-82304846D01*
X133155779Y-82541488D01*
X130554300Y-82541488D01*
X132374589Y-80721200D01*
X133160588Y-80721200D01*
X133160588Y-80772000D01*
X133166394Y-80844807D01*
X133204636Y-80968297D01*
X133275768Y-81076243D01*
X133374156Y-81160098D01*
X133492011Y-81213223D01*
X133620000Y-81231412D01*
X135620000Y-81231412D01*
X135692807Y-81225606D01*
X135816297Y-81187364D01*
X135924243Y-81116232D01*
X136008098Y-81017844D01*
X136061223Y-80899989D01*
X136064066Y-80879982D01*
X136226141Y-81015978D01*
X136434655Y-81130610D01*
X136661463Y-81202558D01*
X136897926Y-81229081D01*
X136914949Y-81229200D01*
X137405051Y-81229200D01*
X137641862Y-81205981D01*
X137869652Y-81137207D01*
X138079746Y-81025498D01*
X138264141Y-80875109D01*
X138383292Y-80731080D01*
X138734800Y-81082588D01*
X138734800Y-128471129D01*
X138563289Y-128642640D01*
X138582107Y-128560411D01*
X138498219Y-128371600D01*
X137261600Y-128371600D01*
X137261600Y-128391600D01*
X137058400Y-128391600D01*
X137058400Y-128371600D01*
X137038400Y-128371600D01*
X137038400Y-128168400D01*
X137058400Y-128168400D01*
X137058400Y-127050800D01*
X137261600Y-127050800D01*
X137261600Y-128168400D01*
X138498219Y-128168400D01*
X138582107Y-127979589D01*
X138563275Y-127897299D01*
X138468174Y-127677127D01*
X138331947Y-127479738D01*
X138159829Y-127312719D01*
X137958434Y-127182487D01*
X137735502Y-127094048D01*
X137499600Y-127050800D01*
X137261600Y-127050800D01*
X137058400Y-127050800D01*
X136820400Y-127050800D01*
X136584498Y-127094048D01*
X136361566Y-127182487D01*
X136160171Y-127312719D01*
X135988053Y-127479738D01*
X135893060Y-127617380D01*
X135885234Y-127602411D01*
X135736136Y-127416970D01*
X135553859Y-127264022D01*
X135345345Y-127149390D01*
X135118537Y-127077442D01*
X134882074Y-127050919D01*
X134865051Y-127050800D01*
X134374949Y-127050800D01*
X134138138Y-127074019D01*
X133910348Y-127142793D01*
X133700254Y-127254502D01*
X133515859Y-127404891D01*
X133364186Y-127588232D01*
X133251013Y-127797541D01*
X133180651Y-128024846D01*
X133155779Y-128261488D01*
X133177344Y-128498455D01*
X133244526Y-128726720D01*
X133354766Y-128937589D01*
X133503864Y-129123030D01*
X133686141Y-129275978D01*
X133796775Y-129336800D01*
X130088589Y-129336800D01*
X126473277Y-125721488D01*
X133155779Y-125721488D01*
X133177344Y-125958455D01*
X133244526Y-126186720D01*
X133354766Y-126397589D01*
X133503864Y-126583030D01*
X133686141Y-126735978D01*
X133894655Y-126850610D01*
X134121463Y-126922558D01*
X134357926Y-126949081D01*
X134374949Y-126949200D01*
X134865051Y-126949200D01*
X135101862Y-126925981D01*
X135329652Y-126857207D01*
X135539746Y-126745498D01*
X135724141Y-126595109D01*
X135875814Y-126411768D01*
X135892227Y-126381413D01*
X135988053Y-126520262D01*
X136160171Y-126687281D01*
X136361566Y-126817513D01*
X136584498Y-126905952D01*
X136820400Y-126949200D01*
X137058400Y-126949200D01*
X137058400Y-125831600D01*
X137261600Y-125831600D01*
X137261600Y-126949200D01*
X137499600Y-126949200D01*
X137735502Y-126905952D01*
X137958434Y-126817513D01*
X138159829Y-126687281D01*
X138331947Y-126520262D01*
X138468174Y-126322873D01*
X138563275Y-126102701D01*
X138582107Y-126020411D01*
X138498219Y-125831600D01*
X137261600Y-125831600D01*
X137058400Y-125831600D01*
X137038400Y-125831600D01*
X137038400Y-125628400D01*
X137058400Y-125628400D01*
X137058400Y-124510800D01*
X137261600Y-124510800D01*
X137261600Y-125628400D01*
X138498219Y-125628400D01*
X138582107Y-125439589D01*
X138563275Y-125357299D01*
X138468174Y-125137127D01*
X138331947Y-124939738D01*
X138159829Y-124772719D01*
X137958434Y-124642487D01*
X137735502Y-124554048D01*
X137499600Y-124510800D01*
X137261600Y-124510800D01*
X137058400Y-124510800D01*
X136820400Y-124510800D01*
X136584498Y-124554048D01*
X136361566Y-124642487D01*
X136160171Y-124772719D01*
X135988053Y-124939738D01*
X135893060Y-125077380D01*
X135885234Y-125062411D01*
X135736136Y-124876970D01*
X135553859Y-124724022D01*
X135345345Y-124609390D01*
X135118537Y-124537442D01*
X134882074Y-124510919D01*
X134865051Y-124510800D01*
X134374949Y-124510800D01*
X134138138Y-124534019D01*
X133910348Y-124602793D01*
X133700254Y-124714502D01*
X133515859Y-124864891D01*
X133364186Y-125048232D01*
X133251013Y-125257541D01*
X133180651Y-125484846D01*
X133155779Y-125721488D01*
X126473277Y-125721488D01*
X126409200Y-125657412D01*
X126409200Y-123181488D01*
X133155779Y-123181488D01*
X133177344Y-123418455D01*
X133244526Y-123646720D01*
X133354766Y-123857589D01*
X133503864Y-124043030D01*
X133686141Y-124195978D01*
X133894655Y-124310610D01*
X134121463Y-124382558D01*
X134357926Y-124409081D01*
X134374949Y-124409200D01*
X134865051Y-124409200D01*
X135101862Y-124385981D01*
X135329652Y-124317207D01*
X135539746Y-124205498D01*
X135724141Y-124055109D01*
X135875814Y-123871768D01*
X135889218Y-123846977D01*
X135894766Y-123857589D01*
X136043864Y-124043030D01*
X136226141Y-124195978D01*
X136434655Y-124310610D01*
X136661463Y-124382558D01*
X136897926Y-124409081D01*
X136914949Y-124409200D01*
X137405051Y-124409200D01*
X137641862Y-124385981D01*
X137869652Y-124317207D01*
X138079746Y-124205498D01*
X138264141Y-124055109D01*
X138415814Y-123871768D01*
X138528987Y-123662459D01*
X138599349Y-123435154D01*
X138624221Y-123198512D01*
X138602656Y-122961545D01*
X138535474Y-122733280D01*
X138425234Y-122522411D01*
X138276136Y-122336970D01*
X138093859Y-122184022D01*
X137885345Y-122069390D01*
X137658537Y-121997442D01*
X137422074Y-121970919D01*
X137405051Y-121970800D01*
X136914949Y-121970800D01*
X136678138Y-121994019D01*
X136450348Y-122062793D01*
X136240254Y-122174502D01*
X136055859Y-122324891D01*
X135904186Y-122508232D01*
X135890782Y-122533023D01*
X135885234Y-122522411D01*
X135736136Y-122336970D01*
X135553859Y-122184022D01*
X135345345Y-122069390D01*
X135118537Y-121997442D01*
X134882074Y-121970919D01*
X134865051Y-121970800D01*
X134374949Y-121970800D01*
X134138138Y-121994019D01*
X133910348Y-122062793D01*
X133700254Y-122174502D01*
X133515859Y-122324891D01*
X133364186Y-122508232D01*
X133251013Y-122717541D01*
X133180651Y-122944846D01*
X133155779Y-123181488D01*
X126409200Y-123181488D01*
X126409200Y-120641488D01*
X133155779Y-120641488D01*
X133177344Y-120878455D01*
X133244526Y-121106720D01*
X133354766Y-121317589D01*
X133503864Y-121503030D01*
X133686141Y-121655978D01*
X133894655Y-121770610D01*
X134121463Y-121842558D01*
X134357926Y-121869081D01*
X134374949Y-121869200D01*
X134865051Y-121869200D01*
X135101862Y-121845981D01*
X135329652Y-121777207D01*
X135539746Y-121665498D01*
X135724141Y-121515109D01*
X135875814Y-121331768D01*
X135889218Y-121306977D01*
X135894766Y-121317589D01*
X136043864Y-121503030D01*
X136226141Y-121655978D01*
X136434655Y-121770610D01*
X136661463Y-121842558D01*
X136897926Y-121869081D01*
X136914949Y-121869200D01*
X137405051Y-121869200D01*
X137641862Y-121845981D01*
X137869652Y-121777207D01*
X138079746Y-121665498D01*
X138264141Y-121515109D01*
X138415814Y-121331768D01*
X138528987Y-121122459D01*
X138599349Y-120895154D01*
X138624221Y-120658512D01*
X138602656Y-120421545D01*
X138535474Y-120193280D01*
X138425234Y-119982411D01*
X138276136Y-119796970D01*
X138093859Y-119644022D01*
X137885345Y-119529390D01*
X137658537Y-119457442D01*
X137422074Y-119430919D01*
X137405051Y-119430800D01*
X136914949Y-119430800D01*
X136678138Y-119454019D01*
X136450348Y-119522793D01*
X136240254Y-119634502D01*
X136055859Y-119784891D01*
X135904186Y-119968232D01*
X135890782Y-119993023D01*
X135885234Y-119982411D01*
X135736136Y-119796970D01*
X135553859Y-119644022D01*
X135345345Y-119529390D01*
X135118537Y-119457442D01*
X134882074Y-119430919D01*
X134865051Y-119430800D01*
X134374949Y-119430800D01*
X134138138Y-119454019D01*
X133910348Y-119522793D01*
X133700254Y-119634502D01*
X133515859Y-119784891D01*
X133364186Y-119968232D01*
X133251013Y-120177541D01*
X133180651Y-120404846D01*
X133155779Y-120641488D01*
X126409200Y-120641488D01*
X126409200Y-120131412D01*
X126698000Y-120131412D01*
X126770807Y-120125606D01*
X126894297Y-120087364D01*
X127002243Y-120016232D01*
X127086098Y-119917844D01*
X127139223Y-119799989D01*
X127157412Y-119672000D01*
X127157412Y-118101488D01*
X133155779Y-118101488D01*
X133177344Y-118338455D01*
X133244526Y-118566720D01*
X133354766Y-118777589D01*
X133503864Y-118963030D01*
X133686141Y-119115978D01*
X133894655Y-119230610D01*
X134121463Y-119302558D01*
X134357926Y-119329081D01*
X134374949Y-119329200D01*
X134865051Y-119329200D01*
X135101862Y-119305981D01*
X135329652Y-119237207D01*
X135539746Y-119125498D01*
X135724141Y-118975109D01*
X135875814Y-118791768D01*
X135892227Y-118761413D01*
X135988053Y-118900262D01*
X136160171Y-119067281D01*
X136361566Y-119197513D01*
X136584498Y-119285952D01*
X136820400Y-119329200D01*
X137058400Y-119329200D01*
X137058400Y-118211600D01*
X137261600Y-118211600D01*
X137261600Y-119329200D01*
X137499600Y-119329200D01*
X137735502Y-119285952D01*
X137958434Y-119197513D01*
X138159829Y-119067281D01*
X138331947Y-118900262D01*
X138468174Y-118702873D01*
X138563275Y-118482701D01*
X138582107Y-118400411D01*
X138498219Y-118211600D01*
X137261600Y-118211600D01*
X137058400Y-118211600D01*
X137038400Y-118211600D01*
X137038400Y-118008400D01*
X137058400Y-118008400D01*
X137058400Y-116890800D01*
X137261600Y-116890800D01*
X137261600Y-118008400D01*
X138498219Y-118008400D01*
X138582107Y-117819589D01*
X138563275Y-117737299D01*
X138468174Y-117517127D01*
X138331947Y-117319738D01*
X138159829Y-117152719D01*
X137958434Y-117022487D01*
X137735502Y-116934048D01*
X137499600Y-116890800D01*
X137261600Y-116890800D01*
X137058400Y-116890800D01*
X136820400Y-116890800D01*
X136584498Y-116934048D01*
X136361566Y-117022487D01*
X136160171Y-117152719D01*
X135988053Y-117319738D01*
X135893060Y-117457380D01*
X135885234Y-117442411D01*
X135736136Y-117256970D01*
X135553859Y-117104022D01*
X135345345Y-116989390D01*
X135118537Y-116917442D01*
X134882074Y-116890919D01*
X134865051Y-116890800D01*
X134374949Y-116890800D01*
X134138138Y-116914019D01*
X133910348Y-116982793D01*
X133700254Y-117094502D01*
X133515859Y-117244891D01*
X133364186Y-117428232D01*
X133251013Y-117637541D01*
X133180651Y-117864846D01*
X133155779Y-118101488D01*
X127157412Y-118101488D01*
X127157412Y-118072000D01*
X127151606Y-117999193D01*
X127113364Y-117875703D01*
X127042232Y-117767757D01*
X126943844Y-117683902D01*
X126825989Y-117630777D01*
X126698000Y-117612588D01*
X126409200Y-117612588D01*
X126409200Y-117564000D01*
X126402793Y-117498654D01*
X126397064Y-117433174D01*
X126396020Y-117429579D01*
X126395655Y-117425861D01*
X126376679Y-117363010D01*
X126358339Y-117299883D01*
X126356618Y-117296562D01*
X126355537Y-117292983D01*
X126324712Y-117235008D01*
X126294463Y-117176652D01*
X126292128Y-117173727D01*
X126290374Y-117170428D01*
X126248866Y-117119535D01*
X126207867Y-117068176D01*
X126202738Y-117062976D01*
X126202647Y-117062864D01*
X126202543Y-117062778D01*
X126200894Y-117061106D01*
X126104200Y-116964412D01*
X127158000Y-116964412D01*
X127230807Y-116958606D01*
X127354297Y-116920364D01*
X127462243Y-116849232D01*
X127491759Y-116814600D01*
X131318000Y-116814600D01*
X131374029Y-116809106D01*
X131430137Y-116804197D01*
X131433215Y-116803303D01*
X131436405Y-116802990D01*
X131490300Y-116786718D01*
X131544386Y-116771005D01*
X131547233Y-116769529D01*
X131550301Y-116768603D01*
X131599996Y-116742180D01*
X131650012Y-116716254D01*
X131652519Y-116714253D01*
X131655347Y-116712749D01*
X131698945Y-116677192D01*
X131742992Y-116642029D01*
X131747453Y-116637629D01*
X131747545Y-116637554D01*
X131747615Y-116637469D01*
X131749052Y-116636052D01*
X132205505Y-116179600D01*
X133324450Y-116179600D01*
X133354766Y-116237589D01*
X133503864Y-116423030D01*
X133686141Y-116575978D01*
X133894655Y-116690610D01*
X134121463Y-116762558D01*
X134357926Y-116789081D01*
X134374949Y-116789200D01*
X134865051Y-116789200D01*
X135101862Y-116765981D01*
X135329652Y-116697207D01*
X135539746Y-116585498D01*
X135724141Y-116435109D01*
X135875814Y-116251768D01*
X135892227Y-116221413D01*
X135988053Y-116360262D01*
X136160171Y-116527281D01*
X136361566Y-116657513D01*
X136584498Y-116745952D01*
X136820400Y-116789200D01*
X137058400Y-116789200D01*
X137058400Y-115671600D01*
X137261600Y-115671600D01*
X137261600Y-116789200D01*
X137499600Y-116789200D01*
X137735502Y-116745952D01*
X137958434Y-116657513D01*
X138159829Y-116527281D01*
X138331947Y-116360262D01*
X138468174Y-116162873D01*
X138563275Y-115942701D01*
X138582107Y-115860411D01*
X138498219Y-115671600D01*
X137261600Y-115671600D01*
X137058400Y-115671600D01*
X137038400Y-115671600D01*
X137038400Y-115468400D01*
X137058400Y-115468400D01*
X137058400Y-114350800D01*
X137261600Y-114350800D01*
X137261600Y-115468400D01*
X138498219Y-115468400D01*
X138582107Y-115279589D01*
X138563275Y-115197299D01*
X138468174Y-114977127D01*
X138331947Y-114779738D01*
X138159829Y-114612719D01*
X137958434Y-114482487D01*
X137735502Y-114394048D01*
X137499600Y-114350800D01*
X137261600Y-114350800D01*
X137058400Y-114350800D01*
X136820400Y-114350800D01*
X136584498Y-114394048D01*
X136361566Y-114482487D01*
X136160171Y-114612719D01*
X135988053Y-114779738D01*
X135893060Y-114917380D01*
X135885234Y-114902411D01*
X135736136Y-114716970D01*
X135553859Y-114564022D01*
X135345345Y-114449390D01*
X135118537Y-114377442D01*
X134882074Y-114350919D01*
X134865051Y-114350800D01*
X134374949Y-114350800D01*
X134138138Y-114374019D01*
X133910348Y-114442793D01*
X133700254Y-114554502D01*
X133515859Y-114704891D01*
X133364186Y-114888232D01*
X133325165Y-114960400D01*
X131953000Y-114960400D01*
X131897016Y-114965889D01*
X131840864Y-114970802D01*
X131837782Y-114971698D01*
X131834595Y-114972010D01*
X131780729Y-114988273D01*
X131726614Y-115003995D01*
X131723767Y-115005471D01*
X131720699Y-115006397D01*
X131671004Y-115032820D01*
X131620988Y-115058746D01*
X131618481Y-115060747D01*
X131615653Y-115062251D01*
X131572055Y-115097808D01*
X131528008Y-115132971D01*
X131523542Y-115137375D01*
X131523455Y-115137446D01*
X131523388Y-115137527D01*
X131521948Y-115138947D01*
X131065496Y-115595400D01*
X127495947Y-115595400D01*
X127467998Y-115571580D01*
X127513131Y-115526448D01*
X127563165Y-115451565D01*
X127597630Y-115368360D01*
X127615200Y-115280030D01*
X127615200Y-115150900D01*
X127500900Y-115036600D01*
X126499600Y-115036600D01*
X126499600Y-115056600D01*
X126296400Y-115056600D01*
X126296400Y-115036600D01*
X126276400Y-115036600D01*
X126276400Y-114833400D01*
X126296400Y-114833400D01*
X126296400Y-114813400D01*
X126499600Y-114813400D01*
X126499600Y-114833400D01*
X127500900Y-114833400D01*
X127615200Y-114719100D01*
X127615200Y-114589970D01*
X127597630Y-114501640D01*
X127563165Y-114418435D01*
X127513131Y-114343552D01*
X127469866Y-114300288D01*
X127546098Y-114210844D01*
X127599223Y-114092989D01*
X127617412Y-113965000D01*
X127617412Y-113365000D01*
X127611606Y-113292193D01*
X127573364Y-113168703D01*
X127502232Y-113060757D01*
X127468442Y-113031958D01*
X127491759Y-113004600D01*
X131065496Y-113004600D01*
X131521948Y-113461053D01*
X131565461Y-113496795D01*
X131608596Y-113532989D01*
X131611405Y-113534533D01*
X131613882Y-113536568D01*
X131663501Y-113563174D01*
X131712853Y-113590305D01*
X131715910Y-113591275D01*
X131718734Y-113592789D01*
X131772553Y-113609243D01*
X131826257Y-113626279D01*
X131829445Y-113626637D01*
X131832508Y-113627573D01*
X131888469Y-113633257D01*
X131944489Y-113639541D01*
X131950759Y-113639584D01*
X131950873Y-113639596D01*
X131950979Y-113639586D01*
X131953000Y-113639600D01*
X133324450Y-113639600D01*
X133354766Y-113697589D01*
X133503864Y-113883030D01*
X133686141Y-114035978D01*
X133894655Y-114150610D01*
X134121463Y-114222558D01*
X134357926Y-114249081D01*
X134374949Y-114249200D01*
X134865051Y-114249200D01*
X135101862Y-114225981D01*
X135329652Y-114157207D01*
X135539746Y-114045498D01*
X135724141Y-113895109D01*
X135875814Y-113711768D01*
X135892227Y-113681413D01*
X135988053Y-113820262D01*
X136160171Y-113987281D01*
X136361566Y-114117513D01*
X136584498Y-114205952D01*
X136820400Y-114249200D01*
X137058400Y-114249200D01*
X137058400Y-113131600D01*
X137261600Y-113131600D01*
X137261600Y-114249200D01*
X137499600Y-114249200D01*
X137735502Y-114205952D01*
X137958434Y-114117513D01*
X138159829Y-113987281D01*
X138331947Y-113820262D01*
X138468174Y-113622873D01*
X138563275Y-113402701D01*
X138582107Y-113320411D01*
X138498219Y-113131600D01*
X137261600Y-113131600D01*
X137058400Y-113131600D01*
X137038400Y-113131600D01*
X137038400Y-112928400D01*
X137058400Y-112928400D01*
X137058400Y-111810800D01*
X137261600Y-111810800D01*
X137261600Y-112928400D01*
X138498219Y-112928400D01*
X138582107Y-112739589D01*
X138563275Y-112657299D01*
X138468174Y-112437127D01*
X138331947Y-112239738D01*
X138159829Y-112072719D01*
X137958434Y-111942487D01*
X137735502Y-111854048D01*
X137499600Y-111810800D01*
X137261600Y-111810800D01*
X137058400Y-111810800D01*
X136820400Y-111810800D01*
X136584498Y-111854048D01*
X136361566Y-111942487D01*
X136160171Y-112072719D01*
X135988053Y-112239738D01*
X135893060Y-112377380D01*
X135885234Y-112362411D01*
X135736136Y-112176970D01*
X135553859Y-112024022D01*
X135345345Y-111909390D01*
X135118537Y-111837442D01*
X134882074Y-111810919D01*
X134865051Y-111810800D01*
X134374949Y-111810800D01*
X134138138Y-111834019D01*
X133910348Y-111902793D01*
X133700254Y-112014502D01*
X133515859Y-112164891D01*
X133364186Y-112348232D01*
X133325165Y-112420400D01*
X132205505Y-112420400D01*
X131749052Y-111963948D01*
X131705569Y-111928230D01*
X131662404Y-111892011D01*
X131659595Y-111890467D01*
X131657118Y-111888432D01*
X131607499Y-111861826D01*
X131558147Y-111834695D01*
X131555090Y-111833725D01*
X131552266Y-111832211D01*
X131498447Y-111815757D01*
X131444743Y-111798721D01*
X131441555Y-111798363D01*
X131438492Y-111797427D01*
X131382527Y-111791742D01*
X131326511Y-111785459D01*
X131320242Y-111785416D01*
X131320128Y-111785404D01*
X131320022Y-111785414D01*
X131318000Y-111785400D01*
X127495947Y-111785400D01*
X127403844Y-111706902D01*
X127285989Y-111653777D01*
X127158000Y-111635588D01*
X125638000Y-111635588D01*
X125565193Y-111641394D01*
X125441703Y-111679636D01*
X125333757Y-111750768D01*
X125249902Y-111849156D01*
X125196777Y-111967011D01*
X125178588Y-112095000D01*
X125178588Y-112695000D01*
X125184394Y-112767807D01*
X125222636Y-112891297D01*
X125263823Y-112953800D01*
X125130000Y-112953800D01*
X125064654Y-112960207D01*
X124999174Y-112965936D01*
X124995579Y-112966980D01*
X124991861Y-112967345D01*
X124929010Y-112986321D01*
X124865883Y-113004661D01*
X124862562Y-113006382D01*
X124858983Y-113007463D01*
X124812545Y-113032154D01*
X124825782Y-113008077D01*
X124826752Y-113005020D01*
X124828266Y-113002196D01*
X124844720Y-112948377D01*
X124861756Y-112894673D01*
X124862114Y-112891485D01*
X124863050Y-112888422D01*
X124868735Y-112832457D01*
X124875018Y-112776441D01*
X124875061Y-112770172D01*
X124875073Y-112770058D01*
X124875063Y-112769952D01*
X124875077Y-112767930D01*
X124875077Y-112073477D01*
X124869588Y-112017493D01*
X124864675Y-111961341D01*
X124863779Y-111958259D01*
X124863467Y-111955072D01*
X124847204Y-111901206D01*
X124831482Y-111847091D01*
X124830006Y-111844244D01*
X124829080Y-111841176D01*
X124802657Y-111791481D01*
X124776731Y-111741465D01*
X124774730Y-111738958D01*
X124773226Y-111736130D01*
X124737669Y-111692532D01*
X124702506Y-111648485D01*
X124698102Y-111644019D01*
X124698031Y-111643932D01*
X124697950Y-111643865D01*
X124696530Y-111642425D01*
X124052850Y-110998746D01*
X124009367Y-110963028D01*
X123966202Y-110926809D01*
X123963393Y-110925265D01*
X123960916Y-110923230D01*
X123911297Y-110896624D01*
X123861945Y-110869493D01*
X123858888Y-110868523D01*
X123856064Y-110867009D01*
X123802245Y-110850555D01*
X123748541Y-110833519D01*
X123745353Y-110833161D01*
X123742290Y-110832225D01*
X123686325Y-110826540D01*
X123630309Y-110820257D01*
X123624040Y-110820214D01*
X123623926Y-110820202D01*
X123623820Y-110820212D01*
X123621798Y-110820198D01*
X121358402Y-110820198D01*
X121302377Y-110825691D01*
X121246265Y-110830601D01*
X121243187Y-110831495D01*
X121239997Y-110831808D01*
X121186102Y-110848080D01*
X121132016Y-110863793D01*
X121129169Y-110865269D01*
X121126101Y-110866195D01*
X121076367Y-110892639D01*
X121026390Y-110918545D01*
X121023887Y-110920543D01*
X121021055Y-110922049D01*
X120977424Y-110957634D01*
X120933409Y-110992770D01*
X120928944Y-110997173D01*
X120928857Y-110997244D01*
X120928790Y-110997325D01*
X120927349Y-110998746D01*
X120566948Y-111359148D01*
X120531230Y-111402631D01*
X120495011Y-111445796D01*
X120493467Y-111448605D01*
X120491432Y-111451082D01*
X120464826Y-111500701D01*
X120437695Y-111550053D01*
X120436725Y-111553110D01*
X120435211Y-111555934D01*
X120418757Y-111609753D01*
X120410562Y-111635588D01*
X120238000Y-111635588D01*
X120233475Y-111635949D01*
X117709763Y-109112237D01*
X117661292Y-109079607D01*
X117602000Y-109067600D01*
X109220000Y-109067600D01*
X109162653Y-109078801D01*
X109112237Y-109112237D01*
X106616874Y-111607600D01*
X106135263Y-111607600D01*
X106210897Y-111434581D01*
X105410000Y-110633684D01*
X104609103Y-111434581D01*
X104684737Y-111607600D01*
X104140000Y-111607600D01*
X104084609Y-111618023D01*
X104033736Y-111650758D01*
X103999607Y-111700708D01*
X103987600Y-111760000D01*
X102767200Y-111760000D01*
X102767200Y-110538565D01*
X104058158Y-110538565D01*
X104093608Y-110801363D01*
X104179646Y-111052196D01*
X104259004Y-111200664D01*
X104465419Y-111290897D01*
X105266316Y-110490000D01*
X105553684Y-110490000D01*
X106354581Y-111290897D01*
X106560996Y-111200664D01*
X106677524Y-110962460D01*
X106745341Y-110706100D01*
X106761842Y-110441435D01*
X106726392Y-110178637D01*
X106640354Y-109927804D01*
X106560996Y-109779336D01*
X106354581Y-109689103D01*
X105553684Y-110490000D01*
X105266316Y-110490000D01*
X104465419Y-109689103D01*
X104259004Y-109779336D01*
X104142476Y-110017540D01*
X104074659Y-110273900D01*
X104058158Y-110538565D01*
X102767200Y-110538565D01*
X102767200Y-109545419D01*
X104609103Y-109545419D01*
X105410000Y-110346316D01*
X106210897Y-109545419D01*
X106120664Y-109339004D01*
X105882460Y-109222476D01*
X105626100Y-109154659D01*
X105361435Y-109138158D01*
X105098637Y-109173608D01*
X104847804Y-109259646D01*
X104699336Y-109339004D01*
X104609103Y-109545419D01*
X102767200Y-109545419D01*
X102767200Y-85001753D01*
X109003214Y-85001753D01*
X109048624Y-85249171D01*
X109141226Y-85483056D01*
X109277493Y-85694501D01*
X109452234Y-85875451D01*
X109658795Y-86019015D01*
X109889306Y-86119722D01*
X110134988Y-86173739D01*
X110386484Y-86179007D01*
X110634212Y-86135326D01*
X110868739Y-86044359D01*
X111081130Y-85909572D01*
X111263295Y-85736098D01*
X111408297Y-85530545D01*
X111510612Y-85300742D01*
X111566343Y-85055443D01*
X111570355Y-84768125D01*
X111521495Y-84521365D01*
X111475141Y-84408901D01*
X112376783Y-84408901D01*
X112459354Y-84608821D01*
X112686733Y-84719004D01*
X112931240Y-84782711D01*
X113183477Y-84797493D01*
X113433751Y-84762782D01*
X113672445Y-84679912D01*
X113805446Y-84608821D01*
X113888017Y-84408901D01*
X113132400Y-83653284D01*
X112376783Y-84408901D01*
X111475141Y-84408901D01*
X111425636Y-84288795D01*
X111286431Y-84079274D01*
X111109180Y-83900781D01*
X110900635Y-83760116D01*
X110668740Y-83662636D01*
X110422327Y-83612055D01*
X110170783Y-83610299D01*
X109923688Y-83657434D01*
X109690455Y-83751667D01*
X109479967Y-83889407D01*
X109300241Y-84065407D01*
X109158123Y-84272965D01*
X109059027Y-84504174D01*
X109006727Y-84750227D01*
X109003214Y-85001753D01*
X102767200Y-85001753D01*
X102767200Y-83560677D01*
X111844507Y-83560677D01*
X111879218Y-83810951D01*
X111962088Y-84049645D01*
X112033179Y-84182646D01*
X112233099Y-84265217D01*
X112988716Y-83509600D01*
X113276084Y-83509600D01*
X114031701Y-84265217D01*
X114231621Y-84182646D01*
X114341804Y-83955267D01*
X114405511Y-83710760D01*
X114420293Y-83458523D01*
X114385582Y-83208249D01*
X114302712Y-82969555D01*
X114231621Y-82836554D01*
X114031701Y-82753983D01*
X113276084Y-83509600D01*
X112988716Y-83509600D01*
X112233099Y-82753983D01*
X112033179Y-82836554D01*
X111922996Y-83063933D01*
X111859289Y-83308440D01*
X111844507Y-83560677D01*
X102767200Y-83560677D01*
X102767200Y-82610299D01*
X112376783Y-82610299D01*
X113132400Y-83365916D01*
X113888017Y-82610299D01*
X113805446Y-82410379D01*
X113578067Y-82300196D01*
X113333560Y-82236489D01*
X113081323Y-82221707D01*
X112831049Y-82256418D01*
X112592355Y-82339288D01*
X112459354Y-82410379D01*
X112376783Y-82610299D01*
X102767200Y-82610299D01*
X102767200Y-74192200D01*
X110900638Y-74192200D01*
X110551184Y-74333389D01*
X110551184Y-74333389D01*
G37*
X110551184Y-74333389D02*
X110142711Y-74600686D01*
X109793936Y-74942231D01*
X109518143Y-75345017D01*
X109325838Y-75793699D01*
X109224344Y-76271189D01*
X109217528Y-76759299D01*
X109305650Y-77239436D01*
X109485353Y-77693313D01*
X109749791Y-78103642D01*
X110088894Y-78454793D01*
X110489744Y-78733391D01*
X110937073Y-78928824D01*
X111413843Y-79033649D01*
X111901893Y-79043872D01*
X112382634Y-78959105D01*
X112837755Y-78782575D01*
X113249920Y-78521007D01*
X113603429Y-78184364D01*
X113884819Y-77785469D01*
X114083370Y-77339515D01*
X114191521Y-76863489D01*
X114199307Y-76305921D01*
X114104490Y-75827061D01*
X113918467Y-75375737D01*
X113648325Y-74969140D01*
X113304353Y-74622758D01*
X112899652Y-74349784D01*
X112524774Y-74192200D01*
X142342800Y-74192200D01*
X142342800Y-134087800D01*
X102767200Y-134087800D01*
X102767200Y-111760000D01*
X103987600Y-111760000D01*
X103987600Y-116713000D01*
X103998023Y-116768391D01*
X104030758Y-116819264D01*
X104080708Y-116853393D01*
X104140000Y-116865400D01*
X104315758Y-116865400D01*
X104393011Y-116900223D01*
X104521000Y-116918412D01*
X106299000Y-116918412D01*
X106371807Y-116912606D01*
X106495297Y-116874364D01*
X106508900Y-116865400D01*
X106612779Y-116865400D01*
X109234455Y-119736759D01*
X109287708Y-119774393D01*
X109347000Y-119786400D01*
X117602000Y-119786400D01*
X117671895Y-119769427D01*
X117719077Y-119731564D01*
X118255463Y-119087900D01*
X120240800Y-119087900D01*
X120240800Y-119717031D01*
X120258370Y-119805361D01*
X120292835Y-119888566D01*
X120342870Y-119963448D01*
X120406552Y-120027131D01*
X120481435Y-120077165D01*
X120564640Y-120111630D01*
X120652970Y-120129200D01*
X121482100Y-120129200D01*
X121596400Y-120014900D01*
X121596400Y-118973600D01*
X121799600Y-118973600D01*
X121799600Y-120014900D01*
X121913900Y-120129200D01*
X122743030Y-120129200D01*
X122831360Y-120111630D01*
X122914565Y-120077165D01*
X122989448Y-120027131D01*
X123053130Y-119963448D01*
X123103165Y-119888566D01*
X123137630Y-119805361D01*
X123155200Y-119717031D01*
X123155200Y-119087900D01*
X123040900Y-118973600D01*
X121799600Y-118973600D01*
X121596400Y-118973600D01*
X120355100Y-118973600D01*
X120240800Y-119087900D01*
X118255463Y-119087900D01*
X119139572Y-118026969D01*
X120240800Y-118026969D01*
X120240800Y-118656100D01*
X120355100Y-118770400D01*
X121596400Y-118770400D01*
X121596400Y-117729100D01*
X121799600Y-117729100D01*
X121799600Y-118770400D01*
X123040900Y-118770400D01*
X123155200Y-118656100D01*
X123155200Y-118026969D01*
X123137630Y-117938639D01*
X123103165Y-117855434D01*
X123053130Y-117780552D01*
X122989448Y-117716869D01*
X122914565Y-117666835D01*
X122831360Y-117632370D01*
X122743030Y-117614800D01*
X121913900Y-117614800D01*
X121799600Y-117729100D01*
X121596400Y-117729100D01*
X121482100Y-117614800D01*
X120652970Y-117614800D01*
X120564640Y-117632370D01*
X120481435Y-117666835D01*
X120406552Y-117716869D01*
X120342870Y-117780552D01*
X120292835Y-117855434D01*
X120258370Y-117938639D01*
X120240800Y-118026969D01*
X119139572Y-118026969D01*
X120057718Y-116925195D01*
X120104639Y-116944630D01*
X120192969Y-116962200D01*
X120782100Y-116962200D01*
X120896400Y-116847900D01*
X120896400Y-116306600D01*
X120876400Y-116306600D01*
X120876400Y-116103400D01*
X120896400Y-116103400D01*
X120896400Y-116083400D01*
X121099600Y-116083400D01*
X121099600Y-116103400D01*
X121119600Y-116103400D01*
X121119600Y-116306600D01*
X121099600Y-116306600D01*
X121099600Y-116847900D01*
X121213900Y-116962200D01*
X121803031Y-116962200D01*
X121891361Y-116944630D01*
X121974566Y-116910165D01*
X121979744Y-116906705D01*
X121986574Y-116913777D01*
X122162457Y-117036019D01*
X122358734Y-117121770D01*
X122567929Y-117167765D01*
X122782074Y-117172250D01*
X122993011Y-117135056D01*
X123192707Y-117057600D01*
X123373555Y-116942830D01*
X123528667Y-116795119D01*
X123652134Y-116620094D01*
X123739253Y-116424420D01*
X123786707Y-116215551D01*
X123790123Y-115970904D01*
X123748520Y-115760792D01*
X123666898Y-115562762D01*
X123548366Y-115384357D01*
X123397439Y-115232373D01*
X123364258Y-115209992D01*
X123512375Y-115068942D01*
X123635842Y-114893917D01*
X123722961Y-114698243D01*
X123770415Y-114489374D01*
X123773831Y-114244727D01*
X123753494Y-114142017D01*
X124044022Y-113851489D01*
X124038208Y-113870504D01*
X124018341Y-113933133D01*
X124017924Y-113936851D01*
X124016831Y-113940426D01*
X124010193Y-114005772D01*
X124002869Y-114071070D01*
X124002818Y-114078377D01*
X124002804Y-114078517D01*
X124002816Y-114078648D01*
X124002800Y-114081000D01*
X124002800Y-116580000D01*
X124009207Y-116645346D01*
X124014936Y-116710826D01*
X124015980Y-116714421D01*
X124016345Y-116718139D01*
X124035321Y-116780990D01*
X124053661Y-116844117D01*
X124055382Y-116847438D01*
X124056463Y-116851017D01*
X124087299Y-116909012D01*
X124117537Y-116967347D01*
X124119870Y-116970270D01*
X124121626Y-116973572D01*
X124163151Y-117024487D01*
X124204133Y-117075824D01*
X124209262Y-117081024D01*
X124209353Y-117081136D01*
X124209457Y-117081222D01*
X124211106Y-117082894D01*
X124740800Y-117612588D01*
X124698000Y-117612588D01*
X124625193Y-117618394D01*
X124501703Y-117656636D01*
X124393757Y-117727768D01*
X124309902Y-117826156D01*
X124256777Y-117944011D01*
X124238588Y-118072000D01*
X124238588Y-119672000D01*
X124244394Y-119744807D01*
X124282636Y-119868297D01*
X124353768Y-119976243D01*
X124452156Y-120060098D01*
X124570011Y-120113223D01*
X124698000Y-120131412D01*
X124986800Y-120131412D01*
X124986800Y-125952000D01*
X124993207Y-126017346D01*
X124998936Y-126082826D01*
X124999980Y-126086421D01*
X125000345Y-126090139D01*
X125019321Y-126152990D01*
X125037661Y-126216117D01*
X125039382Y-126219438D01*
X125040463Y-126223017D01*
X125071299Y-126281012D01*
X125101537Y-126339347D01*
X125103870Y-126342270D01*
X125105626Y-126345572D01*
X125147151Y-126396487D01*
X125188133Y-126447824D01*
X125193262Y-126453024D01*
X125193353Y-126453136D01*
X125193457Y-126453222D01*
X125195106Y-126454894D01*
X129291106Y-130550895D01*
X129341835Y-130592564D01*
X129392195Y-130634821D01*
X129395476Y-130636625D01*
X129398363Y-130638996D01*
X129456238Y-130670028D01*
X129513829Y-130701689D01*
X129517393Y-130702819D01*
X129520689Y-130704587D01*
X129583504Y-130723792D01*
X129646133Y-130743659D01*
X129649851Y-130744076D01*
X129653426Y-130745169D01*
X129718768Y-130751806D01*
X129784070Y-130759131D01*
X129791378Y-130759182D01*
X129791518Y-130759196D01*
X129791649Y-130759184D01*
X129794000Y-130759200D01*
X138163718Y-130759200D01*
X138229064Y-130752793D01*
X138294544Y-130747064D01*
X138298139Y-130746020D01*
X138301857Y-130745655D01*
X138364708Y-130726679D01*
X138427835Y-130708339D01*
X138431156Y-130706618D01*
X138434735Y-130705537D01*
X138492730Y-130674701D01*
X138551065Y-130644463D01*
X138553988Y-130642130D01*
X138557290Y-130640374D01*
X138608205Y-130598849D01*
X138659542Y-130557867D01*
X138664742Y-130552738D01*
X138664854Y-130552647D01*
X138664940Y-130552543D01*
X138666612Y-130550894D01*
X139948895Y-129268612D01*
X139990564Y-129217883D01*
X140032821Y-129167523D01*
X140034625Y-129164242D01*
X140036996Y-129161355D01*
X140068028Y-129103480D01*
X140099689Y-129045889D01*
X140100819Y-129042325D01*
X140102587Y-129039029D01*
X140121792Y-128976214D01*
X140141659Y-128913585D01*
X140142076Y-128909867D01*
X140143169Y-128906292D01*
X140149806Y-128840950D01*
X140157131Y-128775648D01*
X140157182Y-128768340D01*
X140157196Y-128768200D01*
X140157184Y-128768069D01*
X140157200Y-128765718D01*
X140157200Y-80788000D01*
X140150793Y-80722654D01*
X140145064Y-80657174D01*
X140144020Y-80653579D01*
X140143655Y-80649861D01*
X140124679Y-80587010D01*
X140106339Y-80523883D01*
X140104618Y-80520562D01*
X140103537Y-80516983D01*
X140072712Y-80459008D01*
X140042463Y-80400652D01*
X140040128Y-80397727D01*
X140038374Y-80394428D01*
X139996866Y-80343535D01*
X139955867Y-80292176D01*
X139950738Y-80286976D01*
X139950647Y-80286864D01*
X139950543Y-80286778D01*
X139948894Y-80285106D01*
X139170894Y-79507106D01*
X139120172Y-79465442D01*
X139069805Y-79423179D01*
X139066526Y-79421377D01*
X139063638Y-79419004D01*
X139005742Y-79387960D01*
X138948171Y-79356311D01*
X138944608Y-79355181D01*
X138941311Y-79353413D01*
X138878496Y-79334208D01*
X138815867Y-79314341D01*
X138812149Y-79313924D01*
X138808574Y-79312831D01*
X138743228Y-79306193D01*
X138677930Y-79298869D01*
X138670623Y-79298818D01*
X138670483Y-79298804D01*
X138670352Y-79298816D01*
X138668000Y-79298800D01*
X138390170Y-79298800D01*
X138276136Y-79156970D01*
X138093859Y-79004022D01*
X137885345Y-78889390D01*
X137658537Y-78817442D01*
X137422074Y-78790919D01*
X137405051Y-78790800D01*
X136914949Y-78790800D01*
X136678138Y-78814019D01*
X136450348Y-78882793D01*
X136240254Y-78994502D01*
X136062536Y-79139446D01*
X136035364Y-79051703D01*
X135964232Y-78943757D01*
X135865844Y-78859902D01*
X135747989Y-78806777D01*
X135620000Y-78788588D01*
X133620000Y-78788588D01*
X133547193Y-78794394D01*
X133423703Y-78832636D01*
X133315757Y-78903768D01*
X133231902Y-79002156D01*
X133178777Y-79120011D01*
X133160588Y-79248000D01*
X133160588Y-79298800D01*
X132080000Y-79298800D01*
X132014699Y-79305203D01*
X131949174Y-79310936D01*
X131945579Y-79311980D01*
X131941861Y-79312345D01*
X131879010Y-79331321D01*
X131815883Y-79349661D01*
X131812562Y-79351382D01*
X131808983Y-79352463D01*
X131750988Y-79383299D01*
X131692653Y-79413537D01*
X131689730Y-79415870D01*
X131686428Y-79417626D01*
X131635513Y-79459151D01*
X131584176Y-79500133D01*
X131578972Y-79505265D01*
X131578864Y-79505353D01*
X131578782Y-79505453D01*
X131577106Y-79507105D01*
X127767106Y-83317106D01*
X127725442Y-83367828D01*
X127683179Y-83418195D01*
X127681377Y-83421474D01*
X127679004Y-83424362D01*
X127647960Y-83482258D01*
X127616311Y-83539829D01*
X127615181Y-83543392D01*
X127613413Y-83546689D01*
X127594208Y-83609504D01*
X127574341Y-83672133D01*
X127573924Y-83675851D01*
X127572831Y-83679426D01*
X127566193Y-83744772D01*
X127558869Y-83810070D01*
X127558818Y-83817377D01*
X127558804Y-83817517D01*
X127558816Y-83817648D01*
X127558800Y-83820000D01*
X127558800Y-94538800D01*
X127157412Y-94538800D01*
X127157412Y-94450000D01*
X127151606Y-94377193D01*
X127113364Y-94253703D01*
X127042232Y-94145757D01*
X126943844Y-94061902D01*
X126825989Y-94008777D01*
X126698000Y-93990588D01*
X124698000Y-93990588D01*
X124625193Y-93996394D01*
X124501703Y-94034636D01*
X124409200Y-94095592D01*
X124409200Y-93607487D01*
X124452156Y-93644098D01*
X124570011Y-93697223D01*
X124698000Y-93715412D01*
X126698000Y-93715412D01*
X126770807Y-93709606D01*
X126894297Y-93671364D01*
X127002243Y-93600232D01*
X127086098Y-93501844D01*
X127139223Y-93383989D01*
X127157412Y-93256000D01*
X127157412Y-91656000D01*
X127151606Y-91583193D01*
X127113364Y-91459703D01*
X127042232Y-91351757D01*
X126943844Y-91267902D01*
X126825989Y-91214777D01*
X126698000Y-91196588D01*
X124698000Y-91196588D01*
X124625193Y-91202394D01*
X124501703Y-91240636D01*
X124393757Y-91311768D01*
X124309902Y-91410156D01*
X124256777Y-91528011D01*
X124238588Y-91656000D01*
X124238588Y-91783254D01*
X124195883Y-91795661D01*
X124192562Y-91797382D01*
X124188983Y-91798463D01*
X124130988Y-91829299D01*
X124072653Y-91859537D01*
X124069730Y-91861870D01*
X124066428Y-91863626D01*
X124015513Y-91905151D01*
X123964176Y-91946133D01*
X123958972Y-91951265D01*
X123958864Y-91951353D01*
X123958782Y-91951453D01*
X123957106Y-91953105D01*
X123195106Y-92715106D01*
X123155200Y-92763688D01*
X123155200Y-92671900D01*
X123040900Y-92557600D01*
X121799600Y-92557600D01*
X121799600Y-93598900D01*
X121913900Y-93713200D01*
X122743030Y-93713200D01*
X122831360Y-93695630D01*
X122914565Y-93661165D01*
X122986800Y-93612900D01*
X122986800Y-94093100D01*
X122914565Y-94044835D01*
X122831360Y-94010370D01*
X122743030Y-93992800D01*
X121913900Y-93992800D01*
X121799600Y-94107100D01*
X121799600Y-95148400D01*
X121819600Y-95148400D01*
X121819600Y-95351600D01*
X121799600Y-95351600D01*
X121799600Y-96392900D01*
X121913900Y-96507200D01*
X122743030Y-96507200D01*
X122831360Y-96489630D01*
X122914565Y-96455165D01*
X122986800Y-96406900D01*
X122986800Y-97647812D01*
X122656645Y-97977967D01*
X122658812Y-97962720D01*
X122658812Y-97363280D01*
X122653006Y-97290473D01*
X122614764Y-97166983D01*
X122543632Y-97059037D01*
X122445244Y-96975182D01*
X122327389Y-96922057D01*
X122199400Y-96903868D01*
X120515656Y-96903868D01*
X120091200Y-96479412D01*
X120091200Y-96173432D01*
X120084793Y-96108086D01*
X120079064Y-96042606D01*
X120078020Y-96039011D01*
X120077655Y-96035293D01*
X120058679Y-95972442D01*
X120040339Y-95909315D01*
X120038618Y-95905994D01*
X120037537Y-95902415D01*
X120006701Y-95844420D01*
X119976463Y-95786085D01*
X119974130Y-95783162D01*
X119972374Y-95779860D01*
X119930849Y-95728945D01*
X119889867Y-95677608D01*
X119884738Y-95672408D01*
X119884647Y-95672296D01*
X119884543Y-95672210D01*
X119882894Y-95670538D01*
X119678256Y-95465900D01*
X120240800Y-95465900D01*
X120240800Y-96095031D01*
X120258370Y-96183361D01*
X120292835Y-96266566D01*
X120342870Y-96341448D01*
X120406552Y-96405131D01*
X120481435Y-96455165D01*
X120564640Y-96489630D01*
X120652970Y-96507200D01*
X121482100Y-96507200D01*
X121596400Y-96392900D01*
X121596400Y-95351600D01*
X120355100Y-95351600D01*
X120240800Y-95465900D01*
X119678256Y-95465900D01*
X118617325Y-94404969D01*
X120240800Y-94404969D01*
X120240800Y-95034100D01*
X120355100Y-95148400D01*
X121596400Y-95148400D01*
X121596400Y-94107100D01*
X121482100Y-93992800D01*
X120652970Y-93992800D01*
X120564640Y-94010370D01*
X120481435Y-94044835D01*
X120406552Y-94094869D01*
X120342870Y-94158552D01*
X120292835Y-94233434D01*
X120258370Y-94316639D01*
X120240800Y-94404969D01*
X118617325Y-94404969D01*
X118498414Y-94286058D01*
X118536098Y-94241844D01*
X118589223Y-94123989D01*
X118607412Y-93996000D01*
X118607412Y-92671900D01*
X120240800Y-92671900D01*
X120240800Y-93301031D01*
X120258370Y-93389361D01*
X120292835Y-93472566D01*
X120342870Y-93547448D01*
X120406552Y-93611131D01*
X120481435Y-93661165D01*
X120564640Y-93695630D01*
X120652970Y-93713200D01*
X121482100Y-93713200D01*
X121596400Y-93598900D01*
X121596400Y-92557600D01*
X120355100Y-92557600D01*
X120240800Y-92671900D01*
X118607412Y-92671900D01*
X118607412Y-91996000D01*
X118601606Y-91923193D01*
X118563364Y-91799703D01*
X118492232Y-91691757D01*
X118397443Y-91610969D01*
X120240800Y-91610969D01*
X120240800Y-92240100D01*
X120355100Y-92354400D01*
X121596400Y-92354400D01*
X121596400Y-91313100D01*
X121799600Y-91313100D01*
X121799600Y-92354400D01*
X123040900Y-92354400D01*
X123155200Y-92240100D01*
X123155200Y-91610969D01*
X123137630Y-91522639D01*
X123103165Y-91439434D01*
X123053130Y-91364552D01*
X122989448Y-91300869D01*
X122914565Y-91250835D01*
X122831360Y-91216370D01*
X122743030Y-91198800D01*
X121913900Y-91198800D01*
X121799600Y-91313100D01*
X121596400Y-91313100D01*
X121482100Y-91198800D01*
X120652970Y-91198800D01*
X120564640Y-91216370D01*
X120481435Y-91250835D01*
X120406552Y-91300869D01*
X120342870Y-91364552D01*
X120292835Y-91439434D01*
X120258370Y-91522639D01*
X120240800Y-91610969D01*
X118397443Y-91610969D01*
X118393844Y-91607902D01*
X118275989Y-91554777D01*
X118148000Y-91536588D01*
X116548000Y-91536588D01*
X116475193Y-91542394D01*
X116351703Y-91580636D01*
X116243757Y-91651768D01*
X116159902Y-91750156D01*
X116106777Y-91868011D01*
X116088588Y-91996000D01*
X116088588Y-93996000D01*
X116094394Y-94068807D01*
X116132636Y-94192297D01*
X116203768Y-94300243D01*
X116302156Y-94384098D01*
X116420011Y-94437223D01*
X116548000Y-94455412D01*
X116713307Y-94455412D01*
X116721299Y-94470444D01*
X116751537Y-94528779D01*
X116753870Y-94531702D01*
X116755626Y-94535004D01*
X116797151Y-94585919D01*
X116838133Y-94637256D01*
X116843262Y-94642456D01*
X116843353Y-94642568D01*
X116843457Y-94642654D01*
X116845106Y-94644326D01*
X117737368Y-95536588D01*
X116548000Y-95536588D01*
X116475193Y-95542394D01*
X116351703Y-95580636D01*
X116243757Y-95651768D01*
X116159902Y-95750156D01*
X116106777Y-95868011D01*
X116088588Y-95996000D01*
X116088588Y-97996000D01*
X116094394Y-98068807D01*
X116132636Y-98192297D01*
X116203768Y-98300243D01*
X116302156Y-98384098D01*
X116420011Y-98437223D01*
X116548000Y-98455412D01*
X118109990Y-98455412D01*
X118109990Y-98648588D01*
X116548000Y-98648588D01*
X116475193Y-98654394D01*
X116351703Y-98692636D01*
X116243757Y-98763768D01*
X116159902Y-98862156D01*
X116106777Y-98980011D01*
X116088588Y-99108000D01*
X116088588Y-101108000D01*
X116094394Y-101180807D01*
X116132636Y-101304297D01*
X116203768Y-101412243D01*
X116302156Y-101496098D01*
X116420011Y-101549223D01*
X116548000Y-101567412D01*
X116821838Y-101567412D01*
X116838133Y-101587824D01*
X116843262Y-101593024D01*
X116843353Y-101593136D01*
X116843457Y-101593222D01*
X116845106Y-101594894D01*
X117226105Y-101975894D01*
X117276825Y-102017556D01*
X117327195Y-102059821D01*
X117330477Y-102061625D01*
X117333362Y-102063995D01*
X117391220Y-102095018D01*
X117415209Y-102108206D01*
X117399973Y-102116307D01*
X117341652Y-102146537D01*
X117338727Y-102148872D01*
X117335428Y-102150626D01*
X117284535Y-102192134D01*
X117233176Y-102233133D01*
X117227972Y-102238265D01*
X117227864Y-102238353D01*
X117227781Y-102238453D01*
X117226105Y-102240106D01*
X116845106Y-102621106D01*
X116822532Y-102648588D01*
X116548000Y-102648588D01*
X116475193Y-102654394D01*
X116351703Y-102692636D01*
X116243757Y-102763768D01*
X116159902Y-102862156D01*
X116106777Y-102980011D01*
X116088588Y-103108000D01*
X116088588Y-105108000D01*
X116094394Y-105180807D01*
X116132636Y-105304297D01*
X116135340Y-105308400D01*
X111758504Y-105308400D01*
X108203003Y-101752899D01*
X109217528Y-101752899D01*
X109305650Y-102233036D01*
X109485353Y-102686913D01*
X109749791Y-103097242D01*
X110088894Y-103448393D01*
X110489744Y-103726991D01*
X110937073Y-103922424D01*
X111413843Y-104027249D01*
X111901893Y-104037472D01*
X112382634Y-103952705D01*
X112837755Y-103776175D01*
X113249920Y-103514607D01*
X113603429Y-103177964D01*
X113884819Y-102779069D01*
X114083370Y-102333115D01*
X114191521Y-101857089D01*
X114199307Y-101299521D01*
X114104490Y-100820661D01*
X113918467Y-100369337D01*
X113648325Y-99962740D01*
X113304353Y-99616358D01*
X112899652Y-99343384D01*
X112449638Y-99154216D01*
X111971451Y-99056058D01*
X111483306Y-99052650D01*
X111003795Y-99144122D01*
X110551184Y-99326989D01*
X110142711Y-99594286D01*
X109793936Y-99935831D01*
X109518143Y-100338617D01*
X109325838Y-100787299D01*
X109224344Y-101264789D01*
X109217528Y-101752899D01*
X108203003Y-101752899D01*
X108051600Y-101601496D01*
X108051600Y-93307553D01*
X109003214Y-93307553D01*
X109048624Y-93554971D01*
X109141226Y-93788856D01*
X109277493Y-94000301D01*
X109452234Y-94181251D01*
X109658795Y-94324815D01*
X109889306Y-94425522D01*
X110134988Y-94479539D01*
X110386484Y-94484807D01*
X110634212Y-94441126D01*
X110868739Y-94350159D01*
X111081130Y-94215372D01*
X111263295Y-94041898D01*
X111408297Y-93836345D01*
X111442955Y-93758500D01*
X111847488Y-93758500D01*
X111847488Y-95409500D01*
X111853294Y-95482307D01*
X111891536Y-95605797D01*
X111962668Y-95713743D01*
X112061056Y-95797598D01*
X112178911Y-95850723D01*
X112306900Y-95868912D01*
X113957900Y-95868912D01*
X114030707Y-95863106D01*
X114154197Y-95824864D01*
X114262143Y-95753732D01*
X114345998Y-95655344D01*
X114399123Y-95537489D01*
X114417312Y-95409500D01*
X114417312Y-93758500D01*
X114411506Y-93685693D01*
X114373264Y-93562203D01*
X114302132Y-93454257D01*
X114203744Y-93370402D01*
X114085889Y-93317277D01*
X113957900Y-93299088D01*
X112306900Y-93299088D01*
X112234093Y-93304894D01*
X112110603Y-93343136D01*
X112002657Y-93414268D01*
X111918802Y-93512656D01*
X111865677Y-93630511D01*
X111847488Y-93758500D01*
X111442955Y-93758500D01*
X111510612Y-93606542D01*
X111566343Y-93361243D01*
X111570355Y-93073925D01*
X111521495Y-92827165D01*
X111425636Y-92594595D01*
X111286431Y-92385074D01*
X111109180Y-92206581D01*
X110900635Y-92065916D01*
X110668740Y-91968436D01*
X110448625Y-91923253D01*
X111848014Y-91923253D01*
X111893424Y-92170671D01*
X111986026Y-92404556D01*
X112122293Y-92616001D01*
X112297034Y-92796951D01*
X112503595Y-92940515D01*
X112734106Y-93041222D01*
X112979788Y-93095239D01*
X113231284Y-93100507D01*
X113479012Y-93056826D01*
X113713539Y-92965859D01*
X113925930Y-92831072D01*
X114108095Y-92657598D01*
X114253097Y-92452045D01*
X114355412Y-92222242D01*
X114411143Y-91976943D01*
X114415155Y-91689625D01*
X114366295Y-91442865D01*
X114270436Y-91210295D01*
X114131231Y-91000774D01*
X113953980Y-90822281D01*
X113745435Y-90681616D01*
X113513540Y-90584136D01*
X113267127Y-90533555D01*
X113015583Y-90531799D01*
X112768488Y-90578934D01*
X112535255Y-90673167D01*
X112324767Y-90810907D01*
X112145041Y-90986907D01*
X112002923Y-91194465D01*
X111903827Y-91425674D01*
X111851527Y-91671727D01*
X111848014Y-91923253D01*
X110448625Y-91923253D01*
X110422327Y-91917855D01*
X110170783Y-91916099D01*
X109923688Y-91963234D01*
X109690455Y-92057467D01*
X109479967Y-92195207D01*
X109300241Y-92371207D01*
X109158123Y-92578765D01*
X109059027Y-92809974D01*
X109006727Y-93056027D01*
X109003214Y-93307553D01*
X108051600Y-93307553D01*
X108051600Y-90538953D01*
X109003214Y-90538953D01*
X109048624Y-90786371D01*
X109141226Y-91020256D01*
X109277493Y-91231701D01*
X109452234Y-91412651D01*
X109658795Y-91556215D01*
X109889306Y-91656922D01*
X110134988Y-91710939D01*
X110386484Y-91716207D01*
X110634212Y-91672526D01*
X110868739Y-91581559D01*
X111081130Y-91446772D01*
X111263295Y-91273298D01*
X111408297Y-91067745D01*
X111510612Y-90837942D01*
X111566343Y-90592643D01*
X111570355Y-90305325D01*
X111521495Y-90058565D01*
X111425636Y-89825995D01*
X111286431Y-89616474D01*
X111109180Y-89437981D01*
X110900635Y-89297316D01*
X110668740Y-89199836D01*
X110448625Y-89154653D01*
X111848014Y-89154653D01*
X111893424Y-89402071D01*
X111986026Y-89635956D01*
X112122293Y-89847401D01*
X112297034Y-90028351D01*
X112503595Y-90171915D01*
X112734106Y-90272622D01*
X112979788Y-90326639D01*
X113231284Y-90331907D01*
X113479012Y-90288226D01*
X113713539Y-90197259D01*
X113925930Y-90062472D01*
X114108095Y-89888998D01*
X114253097Y-89683445D01*
X114355412Y-89453642D01*
X114411143Y-89208343D01*
X114415155Y-88921025D01*
X114366295Y-88674265D01*
X114270436Y-88441695D01*
X114131231Y-88232174D01*
X113953980Y-88053681D01*
X113745435Y-87913016D01*
X113513540Y-87815536D01*
X113267127Y-87764955D01*
X113015583Y-87763199D01*
X112768488Y-87810334D01*
X112535255Y-87904567D01*
X112324767Y-88042307D01*
X112145041Y-88218307D01*
X112002923Y-88425865D01*
X111903827Y-88657074D01*
X111851527Y-88903127D01*
X111848014Y-89154653D01*
X110448625Y-89154653D01*
X110422327Y-89149255D01*
X110170783Y-89147499D01*
X109923688Y-89194634D01*
X109690455Y-89288867D01*
X109479967Y-89426607D01*
X109300241Y-89602607D01*
X109158123Y-89810165D01*
X109059027Y-90041374D01*
X109006727Y-90287427D01*
X109003214Y-90538953D01*
X108051600Y-90538953D01*
X108051600Y-89406504D01*
X109166787Y-88291318D01*
X109277493Y-88463101D01*
X109452234Y-88644051D01*
X109658795Y-88787615D01*
X109889306Y-88888322D01*
X110134988Y-88942339D01*
X110386484Y-88947607D01*
X110634212Y-88903926D01*
X110868739Y-88812959D01*
X111081130Y-88678172D01*
X111263295Y-88504698D01*
X111408297Y-88299145D01*
X111510612Y-88069342D01*
X111566343Y-87824043D01*
X111570355Y-87536725D01*
X111521495Y-87289965D01*
X111425636Y-87057395D01*
X111286431Y-86847874D01*
X111109180Y-86669381D01*
X110900635Y-86528716D01*
X110668740Y-86431236D01*
X110448625Y-86386053D01*
X111848014Y-86386053D01*
X111893424Y-86633471D01*
X111986026Y-86867356D01*
X112122293Y-87078801D01*
X112297034Y-87259751D01*
X112503595Y-87403315D01*
X112734106Y-87504022D01*
X112979788Y-87558039D01*
X113231284Y-87563307D01*
X113479012Y-87519626D01*
X113713539Y-87428659D01*
X113925930Y-87293872D01*
X114108095Y-87120398D01*
X114253097Y-86914845D01*
X114355412Y-86685042D01*
X114411143Y-86439743D01*
X114415155Y-86152425D01*
X114366295Y-85905665D01*
X114270436Y-85673095D01*
X114131231Y-85463574D01*
X113953980Y-85285081D01*
X113745435Y-85144416D01*
X113513540Y-85046936D01*
X113267127Y-84996355D01*
X113015583Y-84994599D01*
X112768488Y-85041734D01*
X112535255Y-85135967D01*
X112324767Y-85273707D01*
X112145041Y-85449707D01*
X112002923Y-85657265D01*
X111903827Y-85888474D01*
X111851527Y-86134527D01*
X111848014Y-86386053D01*
X110448625Y-86386053D01*
X110422327Y-86380655D01*
X110170783Y-86378899D01*
X109923688Y-86426034D01*
X109690455Y-86520267D01*
X109479967Y-86658007D01*
X109300241Y-86834007D01*
X109158123Y-87041565D01*
X109153265Y-87052900D01*
X108933500Y-87052900D01*
X108877516Y-87058389D01*
X108821364Y-87063302D01*
X108818282Y-87064198D01*
X108815095Y-87064510D01*
X108761229Y-87080773D01*
X108707114Y-87096495D01*
X108704267Y-87097971D01*
X108701199Y-87098897D01*
X108651504Y-87125320D01*
X108601488Y-87151246D01*
X108598981Y-87153247D01*
X108596153Y-87154751D01*
X108552555Y-87190308D01*
X108508508Y-87225471D01*
X108504042Y-87229875D01*
X108503955Y-87229946D01*
X108503888Y-87230027D01*
X108502448Y-87231447D01*
X107010948Y-88722948D01*
X106975230Y-88766431D01*
X106939011Y-88809596D01*
X106937467Y-88812405D01*
X106935432Y-88814882D01*
X106908826Y-88864501D01*
X106881695Y-88913853D01*
X106880725Y-88916910D01*
X106879211Y-88919734D01*
X106862757Y-88973553D01*
X106845721Y-89027257D01*
X106845363Y-89030445D01*
X106844427Y-89033508D01*
X106838742Y-89089473D01*
X106832459Y-89145489D01*
X106832416Y-89151758D01*
X106832404Y-89151872D01*
X106832414Y-89151978D01*
X106832400Y-89154000D01*
X106832400Y-90730296D01*
X106736322Y-90634218D01*
X106752831Y-90561551D01*
X106756247Y-90316904D01*
X106714644Y-90106792D01*
X106633022Y-89908762D01*
X106514490Y-89730357D01*
X106363563Y-89578373D01*
X106185990Y-89458599D01*
X105988535Y-89375596D01*
X105778718Y-89332527D01*
X105564532Y-89331032D01*
X105354134Y-89371167D01*
X105155540Y-89451405D01*
X104976312Y-89568688D01*
X104823278Y-89718550D01*
X104702267Y-89895283D01*
X104617888Y-90092154D01*
X104573355Y-90301665D01*
X104570364Y-90515835D01*
X104609030Y-90726508D01*
X104687879Y-90925658D01*
X104803908Y-91105700D01*
X104952698Y-91259777D01*
X105128581Y-91382019D01*
X105324858Y-91467770D01*
X105534053Y-91513765D01*
X105748198Y-91518250D01*
X105816400Y-91506224D01*
X105816400Y-102362000D01*
X105821894Y-102418029D01*
X105826803Y-102474137D01*
X105827697Y-102477215D01*
X105828010Y-102480405D01*
X105844282Y-102534300D01*
X105859995Y-102588386D01*
X105861471Y-102591233D01*
X105862397Y-102594301D01*
X105888820Y-102643996D01*
X105914746Y-102694012D01*
X105916747Y-102696519D01*
X105918251Y-102699347D01*
X105953808Y-102742945D01*
X105988971Y-102786992D01*
X105993371Y-102791453D01*
X105993446Y-102791545D01*
X105993531Y-102791615D01*
X105994948Y-102793052D01*
X110566947Y-107365052D01*
X110610429Y-107400768D01*
X110653596Y-107436989D01*
X110656408Y-107438535D01*
X110658882Y-107440567D01*
X110708462Y-107467152D01*
X110757853Y-107494305D01*
X110760910Y-107495275D01*
X110763734Y-107496789D01*
X110817565Y-107513247D01*
X110871257Y-107530279D01*
X110874444Y-107530636D01*
X110877507Y-107531573D01*
X110933478Y-107537258D01*
X110989489Y-107543541D01*
X110995758Y-107543584D01*
X110995872Y-107543596D01*
X110995978Y-107543586D01*
X110998000Y-107543600D01*
X119313960Y-107543600D01*
X119369989Y-107538106D01*
X119426097Y-107533197D01*
X119429175Y-107532303D01*
X119432365Y-107531990D01*
X119486260Y-107515718D01*
X119540346Y-107500005D01*
X119543193Y-107498529D01*
X119546261Y-107497603D01*
X119595956Y-107471180D01*
X119645972Y-107445254D01*
X119648479Y-107443253D01*
X119651307Y-107441749D01*
X119694905Y-107406192D01*
X119738952Y-107371029D01*
X119743413Y-107366629D01*
X119743505Y-107366554D01*
X119743575Y-107366469D01*
X119745012Y-107365052D01*
X119833412Y-107276652D01*
X119871771Y-107293943D01*
X119999760Y-107312132D01*
X121298080Y-107312132D01*
X121195106Y-107415106D01*
X121153442Y-107465828D01*
X121111179Y-107516195D01*
X121109377Y-107519474D01*
X121107004Y-107522362D01*
X121075960Y-107580258D01*
X121044311Y-107637829D01*
X121043181Y-107641392D01*
X121041413Y-107644689D01*
X121022488Y-107706588D01*
X120698000Y-107706588D01*
X120625193Y-107712394D01*
X120501703Y-107750636D01*
X120393757Y-107821768D01*
X120309902Y-107920156D01*
X120256777Y-108038011D01*
X120238588Y-108166000D01*
X120238588Y-109766000D01*
X120244394Y-109838807D01*
X120282636Y-109962297D01*
X120353768Y-110070243D01*
X120452156Y-110154098D01*
X120570011Y-110207223D01*
X120698000Y-110225412D01*
X122698000Y-110225412D01*
X122770807Y-110219606D01*
X122894297Y-110181364D01*
X123002243Y-110110232D01*
X123086098Y-110011844D01*
X123139223Y-109893989D01*
X123157412Y-109766000D01*
X123157412Y-109181900D01*
X124240800Y-109181900D01*
X124240800Y-109811031D01*
X124258370Y-109899361D01*
X124292835Y-109982566D01*
X124342870Y-110057448D01*
X124406552Y-110121131D01*
X124481435Y-110171165D01*
X124564640Y-110205630D01*
X124652970Y-110223200D01*
X125482100Y-110223200D01*
X125596400Y-110108900D01*
X125596400Y-109067600D01*
X125799600Y-109067600D01*
X125799600Y-110108900D01*
X125913900Y-110223200D01*
X126743030Y-110223200D01*
X126831360Y-110205630D01*
X126914565Y-110171165D01*
X126989448Y-110121131D01*
X127053130Y-110057448D01*
X127103165Y-109982566D01*
X127137630Y-109899361D01*
X127155200Y-109811031D01*
X127155200Y-109181900D01*
X127040900Y-109067600D01*
X125799600Y-109067600D01*
X125596400Y-109067600D01*
X124355100Y-109067600D01*
X124240800Y-109181900D01*
X123157412Y-109181900D01*
X123157412Y-108185645D01*
X123196347Y-108165463D01*
X123199270Y-108163130D01*
X123202572Y-108161374D01*
X123252113Y-108120969D01*
X124240800Y-108120969D01*
X124240800Y-108750100D01*
X124355100Y-108864400D01*
X125596400Y-108864400D01*
X125596400Y-107823100D01*
X125799600Y-107823100D01*
X125799600Y-108864400D01*
X127040900Y-108864400D01*
X127155200Y-108750100D01*
X127155200Y-108120969D01*
X127137630Y-108032639D01*
X127103165Y-107949434D01*
X127053130Y-107874552D01*
X126989448Y-107810869D01*
X126914565Y-107760835D01*
X126831360Y-107726370D01*
X126743030Y-107708800D01*
X125913900Y-107708800D01*
X125799600Y-107823100D01*
X125596400Y-107823100D01*
X125482100Y-107708800D01*
X124652970Y-107708800D01*
X124564640Y-107726370D01*
X124481435Y-107760835D01*
X124406552Y-107810869D01*
X124342870Y-107874552D01*
X124292835Y-107949434D01*
X124258370Y-108032639D01*
X124240800Y-108120969D01*
X123252113Y-108120969D01*
X123253487Y-108119849D01*
X123304824Y-108078867D01*
X123310024Y-108073738D01*
X123310136Y-108073647D01*
X123310222Y-108073543D01*
X123311894Y-108071894D01*
X123692894Y-107690895D01*
X123734556Y-107640175D01*
X123776821Y-107589805D01*
X123778625Y-107586523D01*
X123780995Y-107583638D01*
X123812018Y-107525780D01*
X123843689Y-107468171D01*
X123844819Y-107464607D01*
X123846587Y-107461311D01*
X123865796Y-107398483D01*
X123885659Y-107335867D01*
X123886076Y-107332150D01*
X123887169Y-107328575D01*
X123893807Y-107263223D01*
X123901131Y-107197930D01*
X123901182Y-107190623D01*
X123901196Y-107190483D01*
X123901184Y-107190352D01*
X123901200Y-107188000D01*
X123901200Y-104495600D01*
X123894793Y-104430254D01*
X123889064Y-104364774D01*
X123888020Y-104361179D01*
X123887655Y-104357461D01*
X123868665Y-104294563D01*
X123850338Y-104231483D01*
X123848619Y-104228166D01*
X123847537Y-104224583D01*
X123816693Y-104166573D01*
X123786463Y-104108252D01*
X123784128Y-104105327D01*
X123782374Y-104102028D01*
X123740866Y-104051135D01*
X123699867Y-103999776D01*
X123694735Y-103994572D01*
X123694647Y-103994464D01*
X123694547Y-103994381D01*
X123692894Y-103992705D01*
X123210294Y-103510106D01*
X123159572Y-103468442D01*
X123109205Y-103426179D01*
X123105926Y-103424377D01*
X123103038Y-103422004D01*
X123045142Y-103390960D01*
X122987571Y-103359311D01*
X122984008Y-103358181D01*
X122980711Y-103356413D01*
X122917896Y-103337208D01*
X122855267Y-103317341D01*
X122851549Y-103316924D01*
X122847974Y-103315831D01*
X122782628Y-103309193D01*
X122717330Y-103301869D01*
X122710023Y-103301818D01*
X122709883Y-103301804D01*
X122709752Y-103301816D01*
X122707400Y-103301800D01*
X122576217Y-103301800D01*
X122587498Y-103288564D01*
X122640623Y-103170709D01*
X122658812Y-103042720D01*
X122658812Y-102443280D01*
X122653006Y-102370473D01*
X122614764Y-102246983D01*
X122543632Y-102139037D01*
X122509566Y-102110003D01*
X122587498Y-102018564D01*
X122640623Y-101900709D01*
X122658812Y-101772720D01*
X122658812Y-101289867D01*
X122850858Y-101373770D01*
X123060053Y-101419765D01*
X123127362Y-101421175D01*
X123115355Y-101477665D01*
X123112364Y-101691835D01*
X123151030Y-101902508D01*
X123229879Y-102101658D01*
X123345908Y-102281700D01*
X123494698Y-102435777D01*
X123670581Y-102558019D01*
X123866858Y-102643770D01*
X124076053Y-102689765D01*
X124290198Y-102694250D01*
X124501135Y-102657056D01*
X124700831Y-102579600D01*
X124737188Y-102556527D01*
X124737188Y-103042720D01*
X124742994Y-103115527D01*
X124781236Y-103239017D01*
X124852368Y-103346963D01*
X124886434Y-103375997D01*
X124808502Y-103467436D01*
X124755377Y-103585291D01*
X124737188Y-103713280D01*
X124737188Y-104312720D01*
X124742994Y-104385527D01*
X124781236Y-104509017D01*
X124852368Y-104616963D01*
X124886434Y-104645997D01*
X124808502Y-104737436D01*
X124755377Y-104855291D01*
X124737188Y-104983280D01*
X124737188Y-105582720D01*
X124742994Y-105655527D01*
X124781236Y-105779017D01*
X124852368Y-105886963D01*
X124886434Y-105915997D01*
X124808502Y-106007436D01*
X124755377Y-106125291D01*
X124737188Y-106253280D01*
X124737188Y-106852720D01*
X124742994Y-106925527D01*
X124781236Y-107049017D01*
X124852368Y-107156963D01*
X124950756Y-107240818D01*
X125068611Y-107293943D01*
X125196600Y-107312132D01*
X127396240Y-107312132D01*
X127469047Y-107306326D01*
X127592537Y-107268084D01*
X127700483Y-107196952D01*
X127729761Y-107162600D01*
X127901297Y-107162600D01*
X127925596Y-107182989D01*
X127928405Y-107184533D01*
X127930882Y-107186568D01*
X127980501Y-107213174D01*
X128029853Y-107240305D01*
X128032910Y-107241275D01*
X128035734Y-107242789D01*
X128089553Y-107259243D01*
X128143257Y-107276279D01*
X128146445Y-107276637D01*
X128149508Y-107277573D01*
X128205473Y-107283258D01*
X128261489Y-107289541D01*
X128267758Y-107289584D01*
X128267872Y-107289596D01*
X128267978Y-107289586D01*
X128270000Y-107289600D01*
X128633443Y-107289600D01*
X128679908Y-107361700D01*
X128828698Y-107515777D01*
X129004581Y-107638019D01*
X129138107Y-107696355D01*
X129031540Y-107739411D01*
X128852312Y-107856694D01*
X128699278Y-108006556D01*
X128578267Y-108183289D01*
X128493888Y-108380160D01*
X128449355Y-108589671D01*
X128446364Y-108803841D01*
X128485030Y-109014514D01*
X128563879Y-109213664D01*
X128679908Y-109393706D01*
X128828698Y-109547783D01*
X129004581Y-109670025D01*
X129200858Y-109755776D01*
X129410053Y-109801771D01*
X129624198Y-109806256D01*
X129835135Y-109769062D01*
X130034831Y-109691606D01*
X130215679Y-109576836D01*
X130370791Y-109429125D01*
X130494258Y-109254100D01*
X130581377Y-109058426D01*
X130628831Y-108849557D01*
X130632247Y-108604910D01*
X130611910Y-108502200D01*
X131216400Y-107897710D01*
X131216400Y-109474000D01*
X131221894Y-109530029D01*
X131226803Y-109586137D01*
X131227697Y-109589215D01*
X131228010Y-109592405D01*
X131244282Y-109646300D01*
X131259995Y-109700386D01*
X131261471Y-109703233D01*
X131262397Y-109706301D01*
X131288820Y-109755996D01*
X131314746Y-109806012D01*
X131316747Y-109808519D01*
X131318251Y-109811347D01*
X131353808Y-109854945D01*
X131388971Y-109898992D01*
X131393371Y-109903453D01*
X131393446Y-109903545D01*
X131393531Y-109903615D01*
X131394948Y-109905052D01*
X132410948Y-110921052D01*
X132454431Y-110956770D01*
X132497596Y-110992989D01*
X132500405Y-110994533D01*
X132502882Y-110996568D01*
X132552501Y-111023174D01*
X132601853Y-111050305D01*
X132604910Y-111051275D01*
X132607734Y-111052789D01*
X132661553Y-111069243D01*
X132715257Y-111086279D01*
X132718445Y-111086637D01*
X132721508Y-111087573D01*
X132777473Y-111093258D01*
X132833489Y-111099541D01*
X132839758Y-111099584D01*
X132839872Y-111099596D01*
X132839978Y-111099586D01*
X132842000Y-111099600D01*
X133324450Y-111099600D01*
X133354766Y-111157589D01*
X133503864Y-111343030D01*
X133686141Y-111495978D01*
X133894655Y-111610610D01*
X134121463Y-111682558D01*
X134357926Y-111709081D01*
X134374949Y-111709200D01*
X134865051Y-111709200D01*
X135101862Y-111685981D01*
X135329652Y-111617207D01*
X135539746Y-111505498D01*
X135724141Y-111355109D01*
X135875814Y-111171768D01*
X135892227Y-111141413D01*
X135988053Y-111280262D01*
X136160171Y-111447281D01*
X136361566Y-111577513D01*
X136584498Y-111665952D01*
X136820400Y-111709200D01*
X137058400Y-111709200D01*
X137058400Y-110591600D01*
X137261600Y-110591600D01*
X137261600Y-111709200D01*
X137499600Y-111709200D01*
X137735502Y-111665952D01*
X137958434Y-111577513D01*
X138159829Y-111447281D01*
X138331947Y-111280262D01*
X138468174Y-111082873D01*
X138563275Y-110862701D01*
X138582107Y-110780411D01*
X138498219Y-110591600D01*
X137261600Y-110591600D01*
X137058400Y-110591600D01*
X137038400Y-110591600D01*
X137038400Y-110388400D01*
X137058400Y-110388400D01*
X137058400Y-109270800D01*
X137261600Y-109270800D01*
X137261600Y-110388400D01*
X138498219Y-110388400D01*
X138582107Y-110199589D01*
X138563275Y-110117299D01*
X138468174Y-109897127D01*
X138331947Y-109699738D01*
X138159829Y-109532719D01*
X137958434Y-109402487D01*
X137735502Y-109314048D01*
X137499600Y-109270800D01*
X137261600Y-109270800D01*
X137058400Y-109270800D01*
X136820400Y-109270800D01*
X136584498Y-109314048D01*
X136361566Y-109402487D01*
X136160171Y-109532719D01*
X135988053Y-109699738D01*
X135893060Y-109837380D01*
X135885234Y-109822411D01*
X135736136Y-109636970D01*
X135553859Y-109484022D01*
X135345345Y-109369390D01*
X135118537Y-109297442D01*
X134882074Y-109270919D01*
X134865051Y-109270800D01*
X134374949Y-109270800D01*
X134138138Y-109294019D01*
X133910348Y-109362793D01*
X133700254Y-109474502D01*
X133515859Y-109624891D01*
X133364186Y-109808232D01*
X133325165Y-109880400D01*
X133094504Y-109880400D01*
X132435600Y-109221496D01*
X132435600Y-107932504D01*
X132884148Y-108381052D01*
X132927631Y-108416770D01*
X132970796Y-108452989D01*
X132973605Y-108454533D01*
X132976082Y-108456568D01*
X133025701Y-108483174D01*
X133075053Y-108510305D01*
X133078110Y-108511275D01*
X133080934Y-108512789D01*
X133134753Y-108529243D01*
X133188457Y-108546279D01*
X133191645Y-108546637D01*
X133194708Y-108547573D01*
X133250673Y-108553258D01*
X133306689Y-108559541D01*
X133312958Y-108559584D01*
X133313072Y-108559596D01*
X133313178Y-108559586D01*
X133315200Y-108559600D01*
X133324450Y-108559600D01*
X133354766Y-108617589D01*
X133503864Y-108803030D01*
X133686141Y-108955978D01*
X133894655Y-109070610D01*
X134121463Y-109142558D01*
X134357926Y-109169081D01*
X134374949Y-109169200D01*
X134865051Y-109169200D01*
X135101862Y-109145981D01*
X135329652Y-109077207D01*
X135539746Y-108965498D01*
X135724141Y-108815109D01*
X135875814Y-108631768D01*
X135892227Y-108601413D01*
X135988053Y-108740262D01*
X136160171Y-108907281D01*
X136361566Y-109037513D01*
X136584498Y-109125952D01*
X136820400Y-109169200D01*
X137058400Y-109169200D01*
X137058400Y-108051600D01*
X137261600Y-108051600D01*
X137261600Y-109169200D01*
X137499600Y-109169200D01*
X137735502Y-109125952D01*
X137958434Y-109037513D01*
X138159829Y-108907281D01*
X138331947Y-108740262D01*
X138468174Y-108542873D01*
X138563275Y-108322701D01*
X138582107Y-108240411D01*
X138498219Y-108051600D01*
X137261600Y-108051600D01*
X137058400Y-108051600D01*
X137038400Y-108051600D01*
X137038400Y-107848400D01*
X137058400Y-107848400D01*
X137058400Y-106730800D01*
X137261600Y-106730800D01*
X137261600Y-107848400D01*
X138498219Y-107848400D01*
X138582107Y-107659589D01*
X138563275Y-107577299D01*
X138468174Y-107357127D01*
X138331947Y-107159738D01*
X138159829Y-106992719D01*
X137958434Y-106862487D01*
X137735502Y-106774048D01*
X137499600Y-106730800D01*
X137261600Y-106730800D01*
X137058400Y-106730800D01*
X136820400Y-106730800D01*
X136584498Y-106774048D01*
X136361566Y-106862487D01*
X136160171Y-106992719D01*
X135988053Y-107159738D01*
X135893060Y-107297380D01*
X135885234Y-107282411D01*
X135736136Y-107096970D01*
X135553859Y-106944022D01*
X135345345Y-106829390D01*
X135118537Y-106757442D01*
X134882074Y-106730919D01*
X134865051Y-106730800D01*
X134374949Y-106730800D01*
X134138138Y-106754019D01*
X133910348Y-106822793D01*
X133700254Y-106934502D01*
X133515859Y-107084891D01*
X133451600Y-107162567D01*
X133451600Y-106198027D01*
X133503864Y-106263030D01*
X133686141Y-106415978D01*
X133894655Y-106530610D01*
X134121463Y-106602558D01*
X134357926Y-106629081D01*
X134374949Y-106629200D01*
X134865051Y-106629200D01*
X135101862Y-106605981D01*
X135329652Y-106537207D01*
X135539746Y-106425498D01*
X135724141Y-106275109D01*
X135875814Y-106091768D01*
X135892227Y-106061413D01*
X135988053Y-106200262D01*
X136160171Y-106367281D01*
X136361566Y-106497513D01*
X136584498Y-106585952D01*
X136820400Y-106629200D01*
X137058400Y-106629200D01*
X137058400Y-105511600D01*
X137261600Y-105511600D01*
X137261600Y-106629200D01*
X137499600Y-106629200D01*
X137735502Y-106585952D01*
X137958434Y-106497513D01*
X138159829Y-106367281D01*
X138331947Y-106200262D01*
X138468174Y-106002873D01*
X138563275Y-105782701D01*
X138582107Y-105700411D01*
X138498219Y-105511600D01*
X137261600Y-105511600D01*
X137058400Y-105511600D01*
X137038400Y-105511600D01*
X137038400Y-105308400D01*
X137058400Y-105308400D01*
X137058400Y-104190800D01*
X137261600Y-104190800D01*
X137261600Y-105308400D01*
X138498219Y-105308400D01*
X138582107Y-105119589D01*
X138563275Y-105037299D01*
X138468174Y-104817127D01*
X138331947Y-104619738D01*
X138159829Y-104452719D01*
X137958434Y-104322487D01*
X137735502Y-104234048D01*
X137499600Y-104190800D01*
X137261600Y-104190800D01*
X137058400Y-104190800D01*
X136820400Y-104190800D01*
X136584498Y-104234048D01*
X136361566Y-104322487D01*
X136160171Y-104452719D01*
X135988053Y-104619738D01*
X135893060Y-104757380D01*
X135885234Y-104742411D01*
X135736136Y-104556970D01*
X135553859Y-104404022D01*
X135345345Y-104289390D01*
X135118537Y-104217442D01*
X134882074Y-104190919D01*
X134865051Y-104190800D01*
X134374949Y-104190800D01*
X134138138Y-104214019D01*
X133910348Y-104282793D01*
X133700254Y-104394502D01*
X133515859Y-104544891D01*
X133407893Y-104675399D01*
X133406529Y-104672767D01*
X133405603Y-104669699D01*
X133379180Y-104620004D01*
X133353254Y-104569988D01*
X133351253Y-104567481D01*
X133349749Y-104564653D01*
X133314192Y-104521055D01*
X133279029Y-104477008D01*
X133274629Y-104472547D01*
X133274554Y-104472455D01*
X133274469Y-104472385D01*
X133273052Y-104470948D01*
X131663592Y-102861488D01*
X133155779Y-102861488D01*
X133177344Y-103098455D01*
X133244526Y-103326720D01*
X133354766Y-103537589D01*
X133503864Y-103723030D01*
X133686141Y-103875978D01*
X133894655Y-103990610D01*
X134121463Y-104062558D01*
X134357926Y-104089081D01*
X134374949Y-104089200D01*
X134865051Y-104089200D01*
X135101862Y-104065981D01*
X135329652Y-103997207D01*
X135539746Y-103885498D01*
X135724141Y-103735109D01*
X135875814Y-103551768D01*
X135892227Y-103521413D01*
X135988053Y-103660262D01*
X136160171Y-103827281D01*
X136361566Y-103957513D01*
X136584498Y-104045952D01*
X136820400Y-104089200D01*
X137058400Y-104089200D01*
X137058400Y-102971600D01*
X137261600Y-102971600D01*
X137261600Y-104089200D01*
X137499600Y-104089200D01*
X137735502Y-104045952D01*
X137958434Y-103957513D01*
X138159829Y-103827281D01*
X138331947Y-103660262D01*
X138468174Y-103462873D01*
X138563275Y-103242701D01*
X138582107Y-103160411D01*
X138498219Y-102971600D01*
X137261600Y-102971600D01*
X137058400Y-102971600D01*
X137038400Y-102971600D01*
X137038400Y-102768400D01*
X137058400Y-102768400D01*
X137058400Y-101650800D01*
X137261600Y-101650800D01*
X137261600Y-102768400D01*
X138498219Y-102768400D01*
X138582107Y-102579589D01*
X138563275Y-102497299D01*
X138468174Y-102277127D01*
X138331947Y-102079738D01*
X138159829Y-101912719D01*
X137958434Y-101782487D01*
X137735502Y-101694048D01*
X137499600Y-101650800D01*
X137261600Y-101650800D01*
X137058400Y-101650800D01*
X136820400Y-101650800D01*
X136584498Y-101694048D01*
X136361566Y-101782487D01*
X136160171Y-101912719D01*
X135988053Y-102079738D01*
X135893060Y-102217380D01*
X135885234Y-102202411D01*
X135736136Y-102016970D01*
X135553859Y-101864022D01*
X135345345Y-101749390D01*
X135118537Y-101677442D01*
X134882074Y-101650919D01*
X134865051Y-101650800D01*
X134374949Y-101650800D01*
X134138138Y-101674019D01*
X133910348Y-101742793D01*
X133700254Y-101854502D01*
X133515859Y-102004891D01*
X133364186Y-102188232D01*
X133251013Y-102397541D01*
X133180651Y-102624846D01*
X133155779Y-102861488D01*
X131663592Y-102861488D01*
X131114052Y-102311948D01*
X131070569Y-102276230D01*
X131027404Y-102240011D01*
X131024595Y-102238467D01*
X131022118Y-102236432D01*
X130972499Y-102209826D01*
X130923147Y-102182695D01*
X130920090Y-102181725D01*
X130917266Y-102180211D01*
X130863447Y-102163757D01*
X130809743Y-102146721D01*
X130806555Y-102146363D01*
X130803492Y-102145427D01*
X130747527Y-102139742D01*
X130691511Y-102133459D01*
X130685242Y-102133416D01*
X130685128Y-102133404D01*
X130685022Y-102133414D01*
X130683000Y-102133400D01*
X127733858Y-102133400D01*
X127706406Y-102110003D01*
X127784338Y-102018564D01*
X127837463Y-101900709D01*
X127855652Y-101772720D01*
X127855652Y-101173280D01*
X127849846Y-101100473D01*
X127811604Y-100976983D01*
X127740472Y-100869037D01*
X127706406Y-100840003D01*
X127784338Y-100748564D01*
X127837463Y-100630709D01*
X127855652Y-100502720D01*
X127855652Y-100321488D01*
X133155779Y-100321488D01*
X133177344Y-100558455D01*
X133244526Y-100786720D01*
X133354766Y-100997589D01*
X133503864Y-101183030D01*
X133686141Y-101335978D01*
X133894655Y-101450610D01*
X134121463Y-101522558D01*
X134357926Y-101549081D01*
X134374949Y-101549200D01*
X134865051Y-101549200D01*
X135101862Y-101525981D01*
X135329652Y-101457207D01*
X135539746Y-101345498D01*
X135724141Y-101195109D01*
X135875814Y-101011768D01*
X135889218Y-100986977D01*
X135894766Y-100997589D01*
X136043864Y-101183030D01*
X136226141Y-101335978D01*
X136434655Y-101450610D01*
X136661463Y-101522558D01*
X136897926Y-101549081D01*
X136914949Y-101549200D01*
X137405051Y-101549200D01*
X137641862Y-101525981D01*
X137869652Y-101457207D01*
X138079746Y-101345498D01*
X138264141Y-101195109D01*
X138415814Y-101011768D01*
X138528987Y-100802459D01*
X138599349Y-100575154D01*
X138624221Y-100338512D01*
X138602656Y-100101545D01*
X138535474Y-99873280D01*
X138425234Y-99662411D01*
X138276136Y-99476970D01*
X138093859Y-99324022D01*
X137885345Y-99209390D01*
X137658537Y-99137442D01*
X137422074Y-99110919D01*
X137405051Y-99110800D01*
X136914949Y-99110800D01*
X136678138Y-99134019D01*
X136450348Y-99202793D01*
X136240254Y-99314502D01*
X136055859Y-99464891D01*
X135904186Y-99648232D01*
X135890782Y-99673023D01*
X135885234Y-99662411D01*
X135736136Y-99476970D01*
X135553859Y-99324022D01*
X135345345Y-99209390D01*
X135118537Y-99137442D01*
X134882074Y-99110919D01*
X134865051Y-99110800D01*
X134374949Y-99110800D01*
X134138138Y-99134019D01*
X133910348Y-99202793D01*
X133700254Y-99314502D01*
X133515859Y-99464891D01*
X133364186Y-99648232D01*
X133251013Y-99857541D01*
X133180651Y-100084846D01*
X133155779Y-100321488D01*
X127855652Y-100321488D01*
X127855652Y-99903280D01*
X127849846Y-99830473D01*
X127811604Y-99706983D01*
X127740472Y-99599037D01*
X127705936Y-99569602D01*
X127751371Y-99524168D01*
X127801405Y-99449285D01*
X127835870Y-99366080D01*
X127853440Y-99277750D01*
X127853440Y-99148900D01*
X127739140Y-99034600D01*
X126398020Y-99034600D01*
X126398020Y-99054600D01*
X126194820Y-99054600D01*
X126194820Y-99034600D01*
X124853700Y-99034600D01*
X124739400Y-99148900D01*
X124739400Y-99277750D01*
X124756970Y-99366080D01*
X124791435Y-99449285D01*
X124841469Y-99524168D01*
X124884992Y-99567690D01*
X124863079Y-99593400D01*
X124333000Y-99593400D01*
X124276971Y-99598894D01*
X124220863Y-99603803D01*
X124217785Y-99604697D01*
X124214595Y-99605010D01*
X124160700Y-99621282D01*
X124106614Y-99636995D01*
X124103767Y-99638471D01*
X124100699Y-99639397D01*
X124057700Y-99662260D01*
X124040490Y-99636357D01*
X123889563Y-99484373D01*
X123711990Y-99364599D01*
X123514535Y-99281596D01*
X123390129Y-99256059D01*
X124200894Y-98445294D01*
X124242558Y-98394572D01*
X124284821Y-98344205D01*
X124286623Y-98340926D01*
X124288996Y-98338038D01*
X124320040Y-98280142D01*
X124351689Y-98222571D01*
X124352819Y-98219008D01*
X124354587Y-98215711D01*
X124373792Y-98152896D01*
X124393659Y-98090267D01*
X124394076Y-98086549D01*
X124395169Y-98082974D01*
X124401807Y-98017628D01*
X124409131Y-97952330D01*
X124409182Y-97945023D01*
X124409196Y-97944883D01*
X124409184Y-97944752D01*
X124409200Y-97942400D01*
X124409200Y-96401487D01*
X124452156Y-96438098D01*
X124570011Y-96491223D01*
X124698000Y-96509412D01*
X126698000Y-96509412D01*
X126770807Y-96503606D01*
X126894297Y-96465364D01*
X127002243Y-96394232D01*
X127086098Y-96295844D01*
X127139223Y-96177989D01*
X127157412Y-96050000D01*
X127157412Y-95961200D01*
X127558800Y-95961200D01*
X127558800Y-96733411D01*
X127388344Y-96903868D01*
X125196600Y-96903868D01*
X125123793Y-96909674D01*
X125000303Y-96947916D01*
X124892357Y-97019048D01*
X124808502Y-97117436D01*
X124755377Y-97235291D01*
X124737188Y-97363280D01*
X124737188Y-97962720D01*
X124742994Y-98035527D01*
X124781236Y-98159017D01*
X124852368Y-98266963D01*
X124886904Y-98296398D01*
X124841469Y-98341832D01*
X124791435Y-98416715D01*
X124756970Y-98499920D01*
X124739400Y-98588250D01*
X124739400Y-98717100D01*
X124853700Y-98831400D01*
X126194820Y-98831400D01*
X126194820Y-98811400D01*
X126398020Y-98811400D01*
X126398020Y-98831400D01*
X127739140Y-98831400D01*
X127853440Y-98717100D01*
X127853440Y-98588250D01*
X127835870Y-98499920D01*
X127801405Y-98416715D01*
X127764941Y-98362141D01*
X127765826Y-98362064D01*
X127769421Y-98361020D01*
X127773139Y-98360655D01*
X127835990Y-98341679D01*
X127899117Y-98323339D01*
X127902438Y-98321618D01*
X127906017Y-98320537D01*
X127964012Y-98289701D01*
X128022347Y-98259463D01*
X128025270Y-98257130D01*
X128028572Y-98255374D01*
X128079487Y-98213849D01*
X128130824Y-98172867D01*
X128136024Y-98167738D01*
X128136136Y-98167647D01*
X128136222Y-98167543D01*
X128137894Y-98165894D01*
X128522300Y-97781488D01*
X133155779Y-97781488D01*
X133177344Y-98018455D01*
X133244526Y-98246720D01*
X133354766Y-98457589D01*
X133503864Y-98643030D01*
X133686141Y-98795978D01*
X133894655Y-98910610D01*
X134121463Y-98982558D01*
X134357926Y-99009081D01*
X134374949Y-99009200D01*
X134865051Y-99009200D01*
X135101862Y-98985981D01*
X135329652Y-98917207D01*
X135539746Y-98805498D01*
X135724141Y-98655109D01*
X135875814Y-98471768D01*
X135889218Y-98446977D01*
X135894766Y-98457589D01*
X136043864Y-98643030D01*
X136226141Y-98795978D01*
X136434655Y-98910610D01*
X136661463Y-98982558D01*
X136897926Y-99009081D01*
X136914949Y-99009200D01*
X137405051Y-99009200D01*
X137641862Y-98985981D01*
X137869652Y-98917207D01*
X138079746Y-98805498D01*
X138264141Y-98655109D01*
X138415814Y-98471768D01*
X138528987Y-98262459D01*
X138599349Y-98035154D01*
X138624221Y-97798512D01*
X138602656Y-97561545D01*
X138535474Y-97333280D01*
X138425234Y-97122411D01*
X138276136Y-96936970D01*
X138093859Y-96784022D01*
X137885345Y-96669390D01*
X137658537Y-96597442D01*
X137422074Y-96570919D01*
X137405051Y-96570800D01*
X136914949Y-96570800D01*
X136678138Y-96594019D01*
X136450348Y-96662793D01*
X136240254Y-96774502D01*
X136055859Y-96924891D01*
X135904186Y-97108232D01*
X135890782Y-97133023D01*
X135885234Y-97122411D01*
X135736136Y-96936970D01*
X135553859Y-96784022D01*
X135345345Y-96669390D01*
X135118537Y-96597442D01*
X134882074Y-96570919D01*
X134865051Y-96570800D01*
X134374949Y-96570800D01*
X134138138Y-96594019D01*
X133910348Y-96662793D01*
X133700254Y-96774502D01*
X133515859Y-96924891D01*
X133364186Y-97108232D01*
X133251013Y-97317541D01*
X133180651Y-97544846D01*
X133155779Y-97781488D01*
X128522300Y-97781488D01*
X128772895Y-97530894D01*
X128814564Y-97480165D01*
X128856821Y-97429805D01*
X128858625Y-97426524D01*
X128860996Y-97423637D01*
X128892028Y-97365762D01*
X128923689Y-97308171D01*
X128924819Y-97304607D01*
X128926587Y-97301311D01*
X128945792Y-97238496D01*
X128965659Y-97175867D01*
X128966076Y-97172149D01*
X128967169Y-97168574D01*
X128973806Y-97103232D01*
X128981131Y-97037930D01*
X128981182Y-97030622D01*
X128981196Y-97030482D01*
X128981184Y-97030351D01*
X128981200Y-97028000D01*
X128981200Y-95241488D01*
X133155779Y-95241488D01*
X133177344Y-95478455D01*
X133244526Y-95706720D01*
X133354766Y-95917589D01*
X133503864Y-96103030D01*
X133686141Y-96255978D01*
X133894655Y-96370610D01*
X134121463Y-96442558D01*
X134357926Y-96469081D01*
X134374949Y-96469200D01*
X134865051Y-96469200D01*
X135101862Y-96445981D01*
X135329652Y-96377207D01*
X135539746Y-96265498D01*
X135724141Y-96115109D01*
X135875814Y-95931768D01*
X135889218Y-95906977D01*
X135894766Y-95917589D01*
X136043864Y-96103030D01*
X136226141Y-96255978D01*
X136434655Y-96370610D01*
X136661463Y-96442558D01*
X136897926Y-96469081D01*
X136914949Y-96469200D01*
X137405051Y-96469200D01*
X137641862Y-96445981D01*
X137869652Y-96377207D01*
X138079746Y-96265498D01*
X138264141Y-96115109D01*
X138415814Y-95931768D01*
X138528987Y-95722459D01*
X138599349Y-95495154D01*
X138624221Y-95258512D01*
X138602656Y-95021545D01*
X138535474Y-94793280D01*
X138425234Y-94582411D01*
X138276136Y-94396970D01*
X138093859Y-94244022D01*
X137885345Y-94129390D01*
X137658537Y-94057442D01*
X137422074Y-94030919D01*
X137405051Y-94030800D01*
X136914949Y-94030800D01*
X136678138Y-94054019D01*
X136450348Y-94122793D01*
X136240254Y-94234502D01*
X136055859Y-94384891D01*
X135904186Y-94568232D01*
X135890782Y-94593023D01*
X135885234Y-94582411D01*
X135736136Y-94396970D01*
X135553859Y-94244022D01*
X135345345Y-94129390D01*
X135118537Y-94057442D01*
X134882074Y-94030919D01*
X134865051Y-94030800D01*
X134374949Y-94030800D01*
X134138138Y-94054019D01*
X133910348Y-94122793D01*
X133700254Y-94234502D01*
X133515859Y-94384891D01*
X133364186Y-94568232D01*
X133251013Y-94777541D01*
X133180651Y-95004846D01*
X133155779Y-95241488D01*
X128981200Y-95241488D01*
X128981200Y-92701488D01*
X133155779Y-92701488D01*
X133177344Y-92938455D01*
X133244526Y-93166720D01*
X133354766Y-93377589D01*
X133503864Y-93563030D01*
X133686141Y-93715978D01*
X133894655Y-93830610D01*
X134121463Y-93902558D01*
X134357926Y-93929081D01*
X134374949Y-93929200D01*
X134865051Y-93929200D01*
X135101862Y-93905981D01*
X135329652Y-93837207D01*
X135539746Y-93725498D01*
X135724141Y-93575109D01*
X135875814Y-93391768D01*
X135889218Y-93366977D01*
X135894766Y-93377589D01*
X136043864Y-93563030D01*
X136226141Y-93715978D01*
X136434655Y-93830610D01*
X136661463Y-93902558D01*
X136897926Y-93929081D01*
X136914949Y-93929200D01*
X137405051Y-93929200D01*
X137641862Y-93905981D01*
X137869652Y-93837207D01*
X138079746Y-93725498D01*
X138264141Y-93575109D01*
X138415814Y-93391768D01*
X138528987Y-93182459D01*
X138599349Y-92955154D01*
X138624221Y-92718512D01*
X138602656Y-92481545D01*
X138535474Y-92253280D01*
X138425234Y-92042411D01*
X138276136Y-91856970D01*
X138093859Y-91704022D01*
X137885345Y-91589390D01*
X137658537Y-91517442D01*
X137422074Y-91490919D01*
X137405051Y-91490800D01*
X136914949Y-91490800D01*
X136678138Y-91514019D01*
X136450348Y-91582793D01*
X136240254Y-91694502D01*
X136055859Y-91844891D01*
X135904186Y-92028232D01*
X135890782Y-92053023D01*
X135885234Y-92042411D01*
X135736136Y-91856970D01*
X135553859Y-91704022D01*
X135345345Y-91589390D01*
X135118537Y-91517442D01*
X134882074Y-91490919D01*
X134865051Y-91490800D01*
X134374949Y-91490800D01*
X134138138Y-91514019D01*
X133910348Y-91582793D01*
X133700254Y-91694502D01*
X133515859Y-91844891D01*
X133364186Y-92028232D01*
X133251013Y-92237541D01*
X133180651Y-92464846D01*
X133155779Y-92701488D01*
X128981200Y-92701488D01*
X128981200Y-90161488D01*
X133155779Y-90161488D01*
X133177344Y-90398455D01*
X133244526Y-90626720D01*
X133354766Y-90837589D01*
X133503864Y-91023030D01*
X133686141Y-91175978D01*
X133894655Y-91290610D01*
X134121463Y-91362558D01*
X134357926Y-91389081D01*
X134374949Y-91389200D01*
X134865051Y-91389200D01*
X135101862Y-91365981D01*
X135329652Y-91297207D01*
X135539746Y-91185498D01*
X135724141Y-91035109D01*
X135875814Y-90851768D01*
X135889218Y-90826977D01*
X135894766Y-90837589D01*
X136043864Y-91023030D01*
X136226141Y-91175978D01*
X136434655Y-91290610D01*
X136661463Y-91362558D01*
X136897926Y-91389081D01*
X136914949Y-91389200D01*
X137405051Y-91389200D01*
X137641862Y-91365981D01*
X137869652Y-91297207D01*
X138079746Y-91185498D01*
X138264141Y-91035109D01*
X138415814Y-90851768D01*
X138528987Y-90642459D01*
X138599349Y-90415154D01*
X138624221Y-90178512D01*
X138602656Y-89941545D01*
X138535474Y-89713280D01*
X138425234Y-89502411D01*
X138276136Y-89316970D01*
X138093859Y-89164022D01*
X137885345Y-89049390D01*
X137658537Y-88977442D01*
X137422074Y-88950919D01*
X137405051Y-88950800D01*
X136914949Y-88950800D01*
X136678138Y-88974019D01*
X136450348Y-89042793D01*
X136240254Y-89154502D01*
X136055859Y-89304891D01*
X135904186Y-89488232D01*
X135890782Y-89513023D01*
X135885234Y-89502411D01*
X135736136Y-89316970D01*
X135553859Y-89164022D01*
X135345345Y-89049390D01*
X135118537Y-88977442D01*
X134882074Y-88950919D01*
X134865051Y-88950800D01*
X134374949Y-88950800D01*
X134138138Y-88974019D01*
X133910348Y-89042793D01*
X133700254Y-89154502D01*
X133515859Y-89304891D01*
X133364186Y-89488232D01*
X133251013Y-89697541D01*
X133180651Y-89924846D01*
X133155779Y-90161488D01*
X128981200Y-90161488D01*
X128981200Y-87621488D01*
X133155779Y-87621488D01*
X133177344Y-87858455D01*
X133244526Y-88086720D01*
X133354766Y-88297589D01*
X133503864Y-88483030D01*
X133686141Y-88635978D01*
X133894655Y-88750610D01*
X134121463Y-88822558D01*
X134357926Y-88849081D01*
X134374949Y-88849200D01*
X134865051Y-88849200D01*
X135101862Y-88825981D01*
X135329652Y-88757207D01*
X135539746Y-88645498D01*
X135724141Y-88495109D01*
X135875814Y-88311768D01*
X135889218Y-88286977D01*
X135894766Y-88297589D01*
X136043864Y-88483030D01*
X136226141Y-88635978D01*
X136434655Y-88750610D01*
X136661463Y-88822558D01*
X136897926Y-88849081D01*
X136914949Y-88849200D01*
X137405051Y-88849200D01*
X137641862Y-88825981D01*
X137869652Y-88757207D01*
X138079746Y-88645498D01*
X138264141Y-88495109D01*
X138415814Y-88311768D01*
X138528987Y-88102459D01*
X138599349Y-87875154D01*
X138624221Y-87638512D01*
X138602656Y-87401545D01*
X138535474Y-87173280D01*
X138425234Y-86962411D01*
X138276136Y-86776970D01*
X138093859Y-86624022D01*
X137885345Y-86509390D01*
X137658537Y-86437442D01*
X137422074Y-86410919D01*
X137405051Y-86410800D01*
X136914949Y-86410800D01*
X136678138Y-86434019D01*
X136450348Y-86502793D01*
X136240254Y-86614502D01*
X136055859Y-86764891D01*
X135904186Y-86948232D01*
X135890782Y-86973023D01*
X135885234Y-86962411D01*
X135736136Y-86776970D01*
X135553859Y-86624022D01*
X135345345Y-86509390D01*
X135118537Y-86437442D01*
X134882074Y-86410919D01*
X134865051Y-86410800D01*
X134374949Y-86410800D01*
X134138138Y-86434019D01*
X133910348Y-86502793D01*
X133700254Y-86614502D01*
X133515859Y-86764891D01*
X133364186Y-86948232D01*
X133251013Y-87157541D01*
X133180651Y-87384846D01*
X133155779Y-87621488D01*
X128981200Y-87621488D01*
X128981200Y-85081488D01*
X133155779Y-85081488D01*
X133177344Y-85318455D01*
X133244526Y-85546720D01*
X133354766Y-85757589D01*
X133503864Y-85943030D01*
X133686141Y-86095978D01*
X133894655Y-86210610D01*
X134121463Y-86282558D01*
X134357926Y-86309081D01*
X134374949Y-86309200D01*
X134865051Y-86309200D01*
X135101862Y-86285981D01*
X135329652Y-86217207D01*
X135539746Y-86105498D01*
X135724141Y-85955109D01*
X135875814Y-85771768D01*
X135889218Y-85746977D01*
X135894766Y-85757589D01*
X136043864Y-85943030D01*
X136226141Y-86095978D01*
X136434655Y-86210610D01*
X136661463Y-86282558D01*
X136897926Y-86309081D01*
X136914949Y-86309200D01*
X137405051Y-86309200D01*
X137641862Y-86285981D01*
X137869652Y-86217207D01*
X138079746Y-86105498D01*
X138264141Y-85955109D01*
X138415814Y-85771768D01*
X138528987Y-85562459D01*
X138599349Y-85335154D01*
X138624221Y-85098512D01*
X138602656Y-84861545D01*
X138535474Y-84633280D01*
X138425234Y-84422411D01*
X138276136Y-84236970D01*
X138093859Y-84084022D01*
X137885345Y-83969390D01*
X137658537Y-83897442D01*
X137422074Y-83870919D01*
X137405051Y-83870800D01*
X136914949Y-83870800D01*
X136678138Y-83894019D01*
X136450348Y-83962793D01*
X136240254Y-84074502D01*
X136055859Y-84224891D01*
X135904186Y-84408232D01*
X135890782Y-84433023D01*
X135885234Y-84422411D01*
X135736136Y-84236970D01*
X135553859Y-84084022D01*
X135345345Y-83969390D01*
X135118537Y-83897442D01*
X134882074Y-83870919D01*
X134865051Y-83870800D01*
X134374949Y-83870800D01*
X134138138Y-83894019D01*
X133910348Y-83962793D01*
X133700254Y-84074502D01*
X133515859Y-84224891D01*
X133364186Y-84408232D01*
X133251013Y-84617541D01*
X133180651Y-84844846D01*
X133155779Y-85081488D01*
X128981200Y-85081488D01*
X128981200Y-84114588D01*
X130554300Y-82541488D01*
X133155779Y-82541488D01*
X133177344Y-82778455D01*
X133244526Y-83006720D01*
X133354766Y-83217589D01*
X133503864Y-83403030D01*
X133686141Y-83555978D01*
X133894655Y-83670610D01*
X134121463Y-83742558D01*
X134357926Y-83769081D01*
X134374949Y-83769200D01*
X134865051Y-83769200D01*
X135101862Y-83745981D01*
X135329652Y-83677207D01*
X135539746Y-83565498D01*
X135724141Y-83415109D01*
X135875814Y-83231768D01*
X135892227Y-83201413D01*
X135988053Y-83340262D01*
X136160171Y-83507281D01*
X136361566Y-83637513D01*
X136584498Y-83725952D01*
X136820400Y-83769200D01*
X137058400Y-83769200D01*
X137058400Y-82651600D01*
X137261600Y-82651600D01*
X137261600Y-83769200D01*
X137499600Y-83769200D01*
X137735502Y-83725952D01*
X137958434Y-83637513D01*
X138159829Y-83507281D01*
X138331947Y-83340262D01*
X138468174Y-83142873D01*
X138563275Y-82922701D01*
X138582107Y-82840411D01*
X138498219Y-82651600D01*
X137261600Y-82651600D01*
X137058400Y-82651600D01*
X137038400Y-82651600D01*
X137038400Y-82448400D01*
X137058400Y-82448400D01*
X137058400Y-81330800D01*
X137261600Y-81330800D01*
X137261600Y-82448400D01*
X138498219Y-82448400D01*
X138582107Y-82259589D01*
X138563275Y-82177299D01*
X138468174Y-81957127D01*
X138331947Y-81759738D01*
X138159829Y-81592719D01*
X137958434Y-81462487D01*
X137735502Y-81374048D01*
X137499600Y-81330800D01*
X137261600Y-81330800D01*
X137058400Y-81330800D01*
X136820400Y-81330800D01*
X136584498Y-81374048D01*
X136361566Y-81462487D01*
X136160171Y-81592719D01*
X135988053Y-81759738D01*
X135893060Y-81897380D01*
X135885234Y-81882411D01*
X135736136Y-81696970D01*
X135553859Y-81544022D01*
X135345345Y-81429390D01*
X135118537Y-81357442D01*
X134882074Y-81330919D01*
X134865051Y-81330800D01*
X134374949Y-81330800D01*
X134138138Y-81354019D01*
X133910348Y-81422793D01*
X133700254Y-81534502D01*
X133515859Y-81684891D01*
X133364186Y-81868232D01*
X133251013Y-82077541D01*
X133180651Y-82304846D01*
X133155779Y-82541488D01*
X130554300Y-82541488D01*
X132374589Y-80721200D01*
X133160588Y-80721200D01*
X133160588Y-80772000D01*
X133166394Y-80844807D01*
X133204636Y-80968297D01*
X133275768Y-81076243D01*
X133374156Y-81160098D01*
X133492011Y-81213223D01*
X133620000Y-81231412D01*
X135620000Y-81231412D01*
X135692807Y-81225606D01*
X135816297Y-81187364D01*
X135924243Y-81116232D01*
X136008098Y-81017844D01*
X136061223Y-80899989D01*
X136064066Y-80879982D01*
X136226141Y-81015978D01*
X136434655Y-81130610D01*
X136661463Y-81202558D01*
X136897926Y-81229081D01*
X136914949Y-81229200D01*
X137405051Y-81229200D01*
X137641862Y-81205981D01*
X137869652Y-81137207D01*
X138079746Y-81025498D01*
X138264141Y-80875109D01*
X138383292Y-80731080D01*
X138734800Y-81082588D01*
X138734800Y-128471129D01*
X138563289Y-128642640D01*
X138582107Y-128560411D01*
X138498219Y-128371600D01*
X137261600Y-128371600D01*
X137261600Y-128391600D01*
X137058400Y-128391600D01*
X137058400Y-128371600D01*
X137038400Y-128371600D01*
X137038400Y-128168400D01*
X137058400Y-128168400D01*
X137058400Y-127050800D01*
X137261600Y-127050800D01*
X137261600Y-128168400D01*
X138498219Y-128168400D01*
X138582107Y-127979589D01*
X138563275Y-127897299D01*
X138468174Y-127677127D01*
X138331947Y-127479738D01*
X138159829Y-127312719D01*
X137958434Y-127182487D01*
X137735502Y-127094048D01*
X137499600Y-127050800D01*
X137261600Y-127050800D01*
X137058400Y-127050800D01*
X136820400Y-127050800D01*
X136584498Y-127094048D01*
X136361566Y-127182487D01*
X136160171Y-127312719D01*
X135988053Y-127479738D01*
X135893060Y-127617380D01*
X135885234Y-127602411D01*
X135736136Y-127416970D01*
X135553859Y-127264022D01*
X135345345Y-127149390D01*
X135118537Y-127077442D01*
X134882074Y-127050919D01*
X134865051Y-127050800D01*
X134374949Y-127050800D01*
X134138138Y-127074019D01*
X133910348Y-127142793D01*
X133700254Y-127254502D01*
X133515859Y-127404891D01*
X133364186Y-127588232D01*
X133251013Y-127797541D01*
X133180651Y-128024846D01*
X133155779Y-128261488D01*
X133177344Y-128498455D01*
X133244526Y-128726720D01*
X133354766Y-128937589D01*
X133503864Y-129123030D01*
X133686141Y-129275978D01*
X133796775Y-129336800D01*
X130088589Y-129336800D01*
X126473277Y-125721488D01*
X133155779Y-125721488D01*
X133177344Y-125958455D01*
X133244526Y-126186720D01*
X133354766Y-126397589D01*
X133503864Y-126583030D01*
X133686141Y-126735978D01*
X133894655Y-126850610D01*
X134121463Y-126922558D01*
X134357926Y-126949081D01*
X134374949Y-126949200D01*
X134865051Y-126949200D01*
X135101862Y-126925981D01*
X135329652Y-126857207D01*
X135539746Y-126745498D01*
X135724141Y-126595109D01*
X135875814Y-126411768D01*
X135892227Y-126381413D01*
X135988053Y-126520262D01*
X136160171Y-126687281D01*
X136361566Y-126817513D01*
X136584498Y-126905952D01*
X136820400Y-126949200D01*
X137058400Y-126949200D01*
X137058400Y-125831600D01*
X137261600Y-125831600D01*
X137261600Y-126949200D01*
X137499600Y-126949200D01*
X137735502Y-126905952D01*
X137958434Y-126817513D01*
X138159829Y-126687281D01*
X138331947Y-126520262D01*
X138468174Y-126322873D01*
X138563275Y-126102701D01*
X138582107Y-126020411D01*
X138498219Y-125831600D01*
X137261600Y-125831600D01*
X137058400Y-125831600D01*
X137038400Y-125831600D01*
X137038400Y-125628400D01*
X137058400Y-125628400D01*
X137058400Y-124510800D01*
X137261600Y-124510800D01*
X137261600Y-125628400D01*
X138498219Y-125628400D01*
X138582107Y-125439589D01*
X138563275Y-125357299D01*
X138468174Y-125137127D01*
X138331947Y-124939738D01*
X138159829Y-124772719D01*
X137958434Y-124642487D01*
X137735502Y-124554048D01*
X137499600Y-124510800D01*
X137261600Y-124510800D01*
X137058400Y-124510800D01*
X136820400Y-124510800D01*
X136584498Y-124554048D01*
X136361566Y-124642487D01*
X136160171Y-124772719D01*
X135988053Y-124939738D01*
X135893060Y-125077380D01*
X135885234Y-125062411D01*
X135736136Y-124876970D01*
X135553859Y-124724022D01*
X135345345Y-124609390D01*
X135118537Y-124537442D01*
X134882074Y-124510919D01*
X134865051Y-124510800D01*
X134374949Y-124510800D01*
X134138138Y-124534019D01*
X133910348Y-124602793D01*
X133700254Y-124714502D01*
X133515859Y-124864891D01*
X133364186Y-125048232D01*
X133251013Y-125257541D01*
X133180651Y-125484846D01*
X133155779Y-125721488D01*
X126473277Y-125721488D01*
X126409200Y-125657412D01*
X126409200Y-123181488D01*
X133155779Y-123181488D01*
X133177344Y-123418455D01*
X133244526Y-123646720D01*
X133354766Y-123857589D01*
X133503864Y-124043030D01*
X133686141Y-124195978D01*
X133894655Y-124310610D01*
X134121463Y-124382558D01*
X134357926Y-124409081D01*
X134374949Y-124409200D01*
X134865051Y-124409200D01*
X135101862Y-124385981D01*
X135329652Y-124317207D01*
X135539746Y-124205498D01*
X135724141Y-124055109D01*
X135875814Y-123871768D01*
X135889218Y-123846977D01*
X135894766Y-123857589D01*
X136043864Y-124043030D01*
X136226141Y-124195978D01*
X136434655Y-124310610D01*
X136661463Y-124382558D01*
X136897926Y-124409081D01*
X136914949Y-124409200D01*
X137405051Y-124409200D01*
X137641862Y-124385981D01*
X137869652Y-124317207D01*
X138079746Y-124205498D01*
X138264141Y-124055109D01*
X138415814Y-123871768D01*
X138528987Y-123662459D01*
X138599349Y-123435154D01*
X138624221Y-123198512D01*
X138602656Y-122961545D01*
X138535474Y-122733280D01*
X138425234Y-122522411D01*
X138276136Y-122336970D01*
X138093859Y-122184022D01*
X137885345Y-122069390D01*
X137658537Y-121997442D01*
X137422074Y-121970919D01*
X137405051Y-121970800D01*
X136914949Y-121970800D01*
X136678138Y-121994019D01*
X136450348Y-122062793D01*
X136240254Y-122174502D01*
X136055859Y-122324891D01*
X135904186Y-122508232D01*
X135890782Y-122533023D01*
X135885234Y-122522411D01*
X135736136Y-122336970D01*
X135553859Y-122184022D01*
X135345345Y-122069390D01*
X135118537Y-121997442D01*
X134882074Y-121970919D01*
X134865051Y-121970800D01*
X134374949Y-121970800D01*
X134138138Y-121994019D01*
X133910348Y-122062793D01*
X133700254Y-122174502D01*
X133515859Y-122324891D01*
X133364186Y-122508232D01*
X133251013Y-122717541D01*
X133180651Y-122944846D01*
X133155779Y-123181488D01*
X126409200Y-123181488D01*
X126409200Y-120641488D01*
X133155779Y-120641488D01*
X133177344Y-120878455D01*
X133244526Y-121106720D01*
X133354766Y-121317589D01*
X133503864Y-121503030D01*
X133686141Y-121655978D01*
X133894655Y-121770610D01*
X134121463Y-121842558D01*
X134357926Y-121869081D01*
X134374949Y-121869200D01*
X134865051Y-121869200D01*
X135101862Y-121845981D01*
X135329652Y-121777207D01*
X135539746Y-121665498D01*
X135724141Y-121515109D01*
X135875814Y-121331768D01*
X135889218Y-121306977D01*
X135894766Y-121317589D01*
X136043864Y-121503030D01*
X136226141Y-121655978D01*
X136434655Y-121770610D01*
X136661463Y-121842558D01*
X136897926Y-121869081D01*
X136914949Y-121869200D01*
X137405051Y-121869200D01*
X137641862Y-121845981D01*
X137869652Y-121777207D01*
X138079746Y-121665498D01*
X138264141Y-121515109D01*
X138415814Y-121331768D01*
X138528987Y-121122459D01*
X138599349Y-120895154D01*
X138624221Y-120658512D01*
X138602656Y-120421545D01*
X138535474Y-120193280D01*
X138425234Y-119982411D01*
X138276136Y-119796970D01*
X138093859Y-119644022D01*
X137885345Y-119529390D01*
X137658537Y-119457442D01*
X137422074Y-119430919D01*
X137405051Y-119430800D01*
X136914949Y-119430800D01*
X136678138Y-119454019D01*
X136450348Y-119522793D01*
X136240254Y-119634502D01*
X136055859Y-119784891D01*
X135904186Y-119968232D01*
X135890782Y-119993023D01*
X135885234Y-119982411D01*
X135736136Y-119796970D01*
X135553859Y-119644022D01*
X135345345Y-119529390D01*
X135118537Y-119457442D01*
X134882074Y-119430919D01*
X134865051Y-119430800D01*
X134374949Y-119430800D01*
X134138138Y-119454019D01*
X133910348Y-119522793D01*
X133700254Y-119634502D01*
X133515859Y-119784891D01*
X133364186Y-119968232D01*
X133251013Y-120177541D01*
X133180651Y-120404846D01*
X133155779Y-120641488D01*
X126409200Y-120641488D01*
X126409200Y-120131412D01*
X126698000Y-120131412D01*
X126770807Y-120125606D01*
X126894297Y-120087364D01*
X127002243Y-120016232D01*
X127086098Y-119917844D01*
X127139223Y-119799989D01*
X127157412Y-119672000D01*
X127157412Y-118101488D01*
X133155779Y-118101488D01*
X133177344Y-118338455D01*
X133244526Y-118566720D01*
X133354766Y-118777589D01*
X133503864Y-118963030D01*
X133686141Y-119115978D01*
X133894655Y-119230610D01*
X134121463Y-119302558D01*
X134357926Y-119329081D01*
X134374949Y-119329200D01*
X134865051Y-119329200D01*
X135101862Y-119305981D01*
X135329652Y-119237207D01*
X135539746Y-119125498D01*
X135724141Y-118975109D01*
X135875814Y-118791768D01*
X135892227Y-118761413D01*
X135988053Y-118900262D01*
X136160171Y-119067281D01*
X136361566Y-119197513D01*
X136584498Y-119285952D01*
X136820400Y-119329200D01*
X137058400Y-119329200D01*
X137058400Y-118211600D01*
X137261600Y-118211600D01*
X137261600Y-119329200D01*
X137499600Y-119329200D01*
X137735502Y-119285952D01*
X137958434Y-119197513D01*
X138159829Y-119067281D01*
X138331947Y-118900262D01*
X138468174Y-118702873D01*
X138563275Y-118482701D01*
X138582107Y-118400411D01*
X138498219Y-118211600D01*
X137261600Y-118211600D01*
X137058400Y-118211600D01*
X137038400Y-118211600D01*
X137038400Y-118008400D01*
X137058400Y-118008400D01*
X137058400Y-116890800D01*
X137261600Y-116890800D01*
X137261600Y-118008400D01*
X138498219Y-118008400D01*
X138582107Y-117819589D01*
X138563275Y-117737299D01*
X138468174Y-117517127D01*
X138331947Y-117319738D01*
X138159829Y-117152719D01*
X137958434Y-117022487D01*
X137735502Y-116934048D01*
X137499600Y-116890800D01*
X137261600Y-116890800D01*
X137058400Y-116890800D01*
X136820400Y-116890800D01*
X136584498Y-116934048D01*
X136361566Y-117022487D01*
X136160171Y-117152719D01*
X135988053Y-117319738D01*
X135893060Y-117457380D01*
X135885234Y-117442411D01*
X135736136Y-117256970D01*
X135553859Y-117104022D01*
X135345345Y-116989390D01*
X135118537Y-116917442D01*
X134882074Y-116890919D01*
X134865051Y-116890800D01*
X134374949Y-116890800D01*
X134138138Y-116914019D01*
X133910348Y-116982793D01*
X133700254Y-117094502D01*
X133515859Y-117244891D01*
X133364186Y-117428232D01*
X133251013Y-117637541D01*
X133180651Y-117864846D01*
X133155779Y-118101488D01*
X127157412Y-118101488D01*
X127157412Y-118072000D01*
X127151606Y-117999193D01*
X127113364Y-117875703D01*
X127042232Y-117767757D01*
X126943844Y-117683902D01*
X126825989Y-117630777D01*
X126698000Y-117612588D01*
X126409200Y-117612588D01*
X126409200Y-117564000D01*
X126402793Y-117498654D01*
X126397064Y-117433174D01*
X126396020Y-117429579D01*
X126395655Y-117425861D01*
X126376679Y-117363010D01*
X126358339Y-117299883D01*
X126356618Y-117296562D01*
X126355537Y-117292983D01*
X126324712Y-117235008D01*
X126294463Y-117176652D01*
X126292128Y-117173727D01*
X126290374Y-117170428D01*
X126248866Y-117119535D01*
X126207867Y-117068176D01*
X126202738Y-117062976D01*
X126202647Y-117062864D01*
X126202543Y-117062778D01*
X126200894Y-117061106D01*
X126104200Y-116964412D01*
X127158000Y-116964412D01*
X127230807Y-116958606D01*
X127354297Y-116920364D01*
X127462243Y-116849232D01*
X127491759Y-116814600D01*
X131318000Y-116814600D01*
X131374029Y-116809106D01*
X131430137Y-116804197D01*
X131433215Y-116803303D01*
X131436405Y-116802990D01*
X131490300Y-116786718D01*
X131544386Y-116771005D01*
X131547233Y-116769529D01*
X131550301Y-116768603D01*
X131599996Y-116742180D01*
X131650012Y-116716254D01*
X131652519Y-116714253D01*
X131655347Y-116712749D01*
X131698945Y-116677192D01*
X131742992Y-116642029D01*
X131747453Y-116637629D01*
X131747545Y-116637554D01*
X131747615Y-116637469D01*
X131749052Y-116636052D01*
X132205505Y-116179600D01*
X133324450Y-116179600D01*
X133354766Y-116237589D01*
X133503864Y-116423030D01*
X133686141Y-116575978D01*
X133894655Y-116690610D01*
X134121463Y-116762558D01*
X134357926Y-116789081D01*
X134374949Y-116789200D01*
X134865051Y-116789200D01*
X135101862Y-116765981D01*
X135329652Y-116697207D01*
X135539746Y-116585498D01*
X135724141Y-116435109D01*
X135875814Y-116251768D01*
X135892227Y-116221413D01*
X135988053Y-116360262D01*
X136160171Y-116527281D01*
X136361566Y-116657513D01*
X136584498Y-116745952D01*
X136820400Y-116789200D01*
X137058400Y-116789200D01*
X137058400Y-115671600D01*
X137261600Y-115671600D01*
X137261600Y-116789200D01*
X137499600Y-116789200D01*
X137735502Y-116745952D01*
X137958434Y-116657513D01*
X138159829Y-116527281D01*
X138331947Y-116360262D01*
X138468174Y-116162873D01*
X138563275Y-115942701D01*
X138582107Y-115860411D01*
X138498219Y-115671600D01*
X137261600Y-115671600D01*
X137058400Y-115671600D01*
X137038400Y-115671600D01*
X137038400Y-115468400D01*
X137058400Y-115468400D01*
X137058400Y-114350800D01*
X137261600Y-114350800D01*
X137261600Y-115468400D01*
X138498219Y-115468400D01*
X138582107Y-115279589D01*
X138563275Y-115197299D01*
X138468174Y-114977127D01*
X138331947Y-114779738D01*
X138159829Y-114612719D01*
X137958434Y-114482487D01*
X137735502Y-114394048D01*
X137499600Y-114350800D01*
X137261600Y-114350800D01*
X137058400Y-114350800D01*
X136820400Y-114350800D01*
X136584498Y-114394048D01*
X136361566Y-114482487D01*
X136160171Y-114612719D01*
X135988053Y-114779738D01*
X135893060Y-114917380D01*
X135885234Y-114902411D01*
X135736136Y-114716970D01*
X135553859Y-114564022D01*
X135345345Y-114449390D01*
X135118537Y-114377442D01*
X134882074Y-114350919D01*
X134865051Y-114350800D01*
X134374949Y-114350800D01*
X134138138Y-114374019D01*
X133910348Y-114442793D01*
X133700254Y-114554502D01*
X133515859Y-114704891D01*
X133364186Y-114888232D01*
X133325165Y-114960400D01*
X131953000Y-114960400D01*
X131897016Y-114965889D01*
X131840864Y-114970802D01*
X131837782Y-114971698D01*
X131834595Y-114972010D01*
X131780729Y-114988273D01*
X131726614Y-115003995D01*
X131723767Y-115005471D01*
X131720699Y-115006397D01*
X131671004Y-115032820D01*
X131620988Y-115058746D01*
X131618481Y-115060747D01*
X131615653Y-115062251D01*
X131572055Y-115097808D01*
X131528008Y-115132971D01*
X131523542Y-115137375D01*
X131523455Y-115137446D01*
X131523388Y-115137527D01*
X131521948Y-115138947D01*
X131065496Y-115595400D01*
X127495947Y-115595400D01*
X127467998Y-115571580D01*
X127513131Y-115526448D01*
X127563165Y-115451565D01*
X127597630Y-115368360D01*
X127615200Y-115280030D01*
X127615200Y-115150900D01*
X127500900Y-115036600D01*
X126499600Y-115036600D01*
X126499600Y-115056600D01*
X126296400Y-115056600D01*
X126296400Y-115036600D01*
X126276400Y-115036600D01*
X126276400Y-114833400D01*
X126296400Y-114833400D01*
X126296400Y-114813400D01*
X126499600Y-114813400D01*
X126499600Y-114833400D01*
X127500900Y-114833400D01*
X127615200Y-114719100D01*
X127615200Y-114589970D01*
X127597630Y-114501640D01*
X127563165Y-114418435D01*
X127513131Y-114343552D01*
X127469866Y-114300288D01*
X127546098Y-114210844D01*
X127599223Y-114092989D01*
X127617412Y-113965000D01*
X127617412Y-113365000D01*
X127611606Y-113292193D01*
X127573364Y-113168703D01*
X127502232Y-113060757D01*
X127468442Y-113031958D01*
X127491759Y-113004600D01*
X131065496Y-113004600D01*
X131521948Y-113461053D01*
X131565461Y-113496795D01*
X131608596Y-113532989D01*
X131611405Y-113534533D01*
X131613882Y-113536568D01*
X131663501Y-113563174D01*
X131712853Y-113590305D01*
X131715910Y-113591275D01*
X131718734Y-113592789D01*
X131772553Y-113609243D01*
X131826257Y-113626279D01*
X131829445Y-113626637D01*
X131832508Y-113627573D01*
X131888469Y-113633257D01*
X131944489Y-113639541D01*
X131950759Y-113639584D01*
X131950873Y-113639596D01*
X131950979Y-113639586D01*
X131953000Y-113639600D01*
X133324450Y-113639600D01*
X133354766Y-113697589D01*
X133503864Y-113883030D01*
X133686141Y-114035978D01*
X133894655Y-114150610D01*
X134121463Y-114222558D01*
X134357926Y-114249081D01*
X134374949Y-114249200D01*
X134865051Y-114249200D01*
X135101862Y-114225981D01*
X135329652Y-114157207D01*
X135539746Y-114045498D01*
X135724141Y-113895109D01*
X135875814Y-113711768D01*
X135892227Y-113681413D01*
X135988053Y-113820262D01*
X136160171Y-113987281D01*
X136361566Y-114117513D01*
X136584498Y-114205952D01*
X136820400Y-114249200D01*
X137058400Y-114249200D01*
X137058400Y-113131600D01*
X137261600Y-113131600D01*
X137261600Y-114249200D01*
X137499600Y-114249200D01*
X137735502Y-114205952D01*
X137958434Y-114117513D01*
X138159829Y-113987281D01*
X138331947Y-113820262D01*
X138468174Y-113622873D01*
X138563275Y-113402701D01*
X138582107Y-113320411D01*
X138498219Y-113131600D01*
X137261600Y-113131600D01*
X137058400Y-113131600D01*
X137038400Y-113131600D01*
X137038400Y-112928400D01*
X137058400Y-112928400D01*
X137058400Y-111810800D01*
X137261600Y-111810800D01*
X137261600Y-112928400D01*
X138498219Y-112928400D01*
X138582107Y-112739589D01*
X138563275Y-112657299D01*
X138468174Y-112437127D01*
X138331947Y-112239738D01*
X138159829Y-112072719D01*
X137958434Y-111942487D01*
X137735502Y-111854048D01*
X137499600Y-111810800D01*
X137261600Y-111810800D01*
X137058400Y-111810800D01*
X136820400Y-111810800D01*
X136584498Y-111854048D01*
X136361566Y-111942487D01*
X136160171Y-112072719D01*
X135988053Y-112239738D01*
X135893060Y-112377380D01*
X135885234Y-112362411D01*
X135736136Y-112176970D01*
X135553859Y-112024022D01*
X135345345Y-111909390D01*
X135118537Y-111837442D01*
X134882074Y-111810919D01*
X134865051Y-111810800D01*
X134374949Y-111810800D01*
X134138138Y-111834019D01*
X133910348Y-111902793D01*
X133700254Y-112014502D01*
X133515859Y-112164891D01*
X133364186Y-112348232D01*
X133325165Y-112420400D01*
X132205505Y-112420400D01*
X131749052Y-111963948D01*
X131705569Y-111928230D01*
X131662404Y-111892011D01*
X131659595Y-111890467D01*
X131657118Y-111888432D01*
X131607499Y-111861826D01*
X131558147Y-111834695D01*
X131555090Y-111833725D01*
X131552266Y-111832211D01*
X131498447Y-111815757D01*
X131444743Y-111798721D01*
X131441555Y-111798363D01*
X131438492Y-111797427D01*
X131382527Y-111791742D01*
X131326511Y-111785459D01*
X131320242Y-111785416D01*
X131320128Y-111785404D01*
X131320022Y-111785414D01*
X131318000Y-111785400D01*
X127495947Y-111785400D01*
X127403844Y-111706902D01*
X127285989Y-111653777D01*
X127158000Y-111635588D01*
X125638000Y-111635588D01*
X125565193Y-111641394D01*
X125441703Y-111679636D01*
X125333757Y-111750768D01*
X125249902Y-111849156D01*
X125196777Y-111967011D01*
X125178588Y-112095000D01*
X125178588Y-112695000D01*
X125184394Y-112767807D01*
X125222636Y-112891297D01*
X125263823Y-112953800D01*
X125130000Y-112953800D01*
X125064654Y-112960207D01*
X124999174Y-112965936D01*
X124995579Y-112966980D01*
X124991861Y-112967345D01*
X124929010Y-112986321D01*
X124865883Y-113004661D01*
X124862562Y-113006382D01*
X124858983Y-113007463D01*
X124812545Y-113032154D01*
X124825782Y-113008077D01*
X124826752Y-113005020D01*
X124828266Y-113002196D01*
X124844720Y-112948377D01*
X124861756Y-112894673D01*
X124862114Y-112891485D01*
X124863050Y-112888422D01*
X124868735Y-112832457D01*
X124875018Y-112776441D01*
X124875061Y-112770172D01*
X124875073Y-112770058D01*
X124875063Y-112769952D01*
X124875077Y-112767930D01*
X124875077Y-112073477D01*
X124869588Y-112017493D01*
X124864675Y-111961341D01*
X124863779Y-111958259D01*
X124863467Y-111955072D01*
X124847204Y-111901206D01*
X124831482Y-111847091D01*
X124830006Y-111844244D01*
X124829080Y-111841176D01*
X124802657Y-111791481D01*
X124776731Y-111741465D01*
X124774730Y-111738958D01*
X124773226Y-111736130D01*
X124737669Y-111692532D01*
X124702506Y-111648485D01*
X124698102Y-111644019D01*
X124698031Y-111643932D01*
X124697950Y-111643865D01*
X124696530Y-111642425D01*
X124052850Y-110998746D01*
X124009367Y-110963028D01*
X123966202Y-110926809D01*
X123963393Y-110925265D01*
X123960916Y-110923230D01*
X123911297Y-110896624D01*
X123861945Y-110869493D01*
X123858888Y-110868523D01*
X123856064Y-110867009D01*
X123802245Y-110850555D01*
X123748541Y-110833519D01*
X123745353Y-110833161D01*
X123742290Y-110832225D01*
X123686325Y-110826540D01*
X123630309Y-110820257D01*
X123624040Y-110820214D01*
X123623926Y-110820202D01*
X123623820Y-110820212D01*
X123621798Y-110820198D01*
X121358402Y-110820198D01*
X121302377Y-110825691D01*
X121246265Y-110830601D01*
X121243187Y-110831495D01*
X121239997Y-110831808D01*
X121186102Y-110848080D01*
X121132016Y-110863793D01*
X121129169Y-110865269D01*
X121126101Y-110866195D01*
X121076367Y-110892639D01*
X121026390Y-110918545D01*
X121023887Y-110920543D01*
X121021055Y-110922049D01*
X120977424Y-110957634D01*
X120933409Y-110992770D01*
X120928944Y-110997173D01*
X120928857Y-110997244D01*
X120928790Y-110997325D01*
X120927349Y-110998746D01*
X120566948Y-111359148D01*
X120531230Y-111402631D01*
X120495011Y-111445796D01*
X120493467Y-111448605D01*
X120491432Y-111451082D01*
X120464826Y-111500701D01*
X120437695Y-111550053D01*
X120436725Y-111553110D01*
X120435211Y-111555934D01*
X120418757Y-111609753D01*
X120410562Y-111635588D01*
X120238000Y-111635588D01*
X120233475Y-111635949D01*
X117709763Y-109112237D01*
X117661292Y-109079607D01*
X117602000Y-109067600D01*
X109220000Y-109067600D01*
X109162653Y-109078801D01*
X109112237Y-109112237D01*
X106616874Y-111607600D01*
X106135263Y-111607600D01*
X106210897Y-111434581D01*
X105410000Y-110633684D01*
X104609103Y-111434581D01*
X104684737Y-111607600D01*
X104140000Y-111607600D01*
X104084609Y-111618023D01*
X104033736Y-111650758D01*
X103999607Y-111700708D01*
X103987600Y-111760000D01*
X102767200Y-111760000D01*
X102767200Y-110538565D01*
X104058158Y-110538565D01*
X104093608Y-110801363D01*
X104179646Y-111052196D01*
X104259004Y-111200664D01*
X104465419Y-111290897D01*
X105266316Y-110490000D01*
X105553684Y-110490000D01*
X106354581Y-111290897D01*
X106560996Y-111200664D01*
X106677524Y-110962460D01*
X106745341Y-110706100D01*
X106761842Y-110441435D01*
X106726392Y-110178637D01*
X106640354Y-109927804D01*
X106560996Y-109779336D01*
X106354581Y-109689103D01*
X105553684Y-110490000D01*
X105266316Y-110490000D01*
X104465419Y-109689103D01*
X104259004Y-109779336D01*
X104142476Y-110017540D01*
X104074659Y-110273900D01*
X104058158Y-110538565D01*
X102767200Y-110538565D01*
X102767200Y-109545419D01*
X104609103Y-109545419D01*
X105410000Y-110346316D01*
X106210897Y-109545419D01*
X106120664Y-109339004D01*
X105882460Y-109222476D01*
X105626100Y-109154659D01*
X105361435Y-109138158D01*
X105098637Y-109173608D01*
X104847804Y-109259646D01*
X104699336Y-109339004D01*
X104609103Y-109545419D01*
X102767200Y-109545419D01*
X102767200Y-85001753D01*
X109003214Y-85001753D01*
X109048624Y-85249171D01*
X109141226Y-85483056D01*
X109277493Y-85694501D01*
X109452234Y-85875451D01*
X109658795Y-86019015D01*
X109889306Y-86119722D01*
X110134988Y-86173739D01*
X110386484Y-86179007D01*
X110634212Y-86135326D01*
X110868739Y-86044359D01*
X111081130Y-85909572D01*
X111263295Y-85736098D01*
X111408297Y-85530545D01*
X111510612Y-85300742D01*
X111566343Y-85055443D01*
X111570355Y-84768125D01*
X111521495Y-84521365D01*
X111475141Y-84408901D01*
X112376783Y-84408901D01*
X112459354Y-84608821D01*
X112686733Y-84719004D01*
X112931240Y-84782711D01*
X113183477Y-84797493D01*
X113433751Y-84762782D01*
X113672445Y-84679912D01*
X113805446Y-84608821D01*
X113888017Y-84408901D01*
X113132400Y-83653284D01*
X112376783Y-84408901D01*
X111475141Y-84408901D01*
X111425636Y-84288795D01*
X111286431Y-84079274D01*
X111109180Y-83900781D01*
X110900635Y-83760116D01*
X110668740Y-83662636D01*
X110422327Y-83612055D01*
X110170783Y-83610299D01*
X109923688Y-83657434D01*
X109690455Y-83751667D01*
X109479967Y-83889407D01*
X109300241Y-84065407D01*
X109158123Y-84272965D01*
X109059027Y-84504174D01*
X109006727Y-84750227D01*
X109003214Y-85001753D01*
X102767200Y-85001753D01*
X102767200Y-83560677D01*
X111844507Y-83560677D01*
X111879218Y-83810951D01*
X111962088Y-84049645D01*
X112033179Y-84182646D01*
X112233099Y-84265217D01*
X112988716Y-83509600D01*
X113276084Y-83509600D01*
X114031701Y-84265217D01*
X114231621Y-84182646D01*
X114341804Y-83955267D01*
X114405511Y-83710760D01*
X114420293Y-83458523D01*
X114385582Y-83208249D01*
X114302712Y-82969555D01*
X114231621Y-82836554D01*
X114031701Y-82753983D01*
X113276084Y-83509600D01*
X112988716Y-83509600D01*
X112233099Y-82753983D01*
X112033179Y-82836554D01*
X111922996Y-83063933D01*
X111859289Y-83308440D01*
X111844507Y-83560677D01*
X102767200Y-83560677D01*
X102767200Y-82610299D01*
X112376783Y-82610299D01*
X113132400Y-83365916D01*
X113888017Y-82610299D01*
X113805446Y-82410379D01*
X113578067Y-82300196D01*
X113333560Y-82236489D01*
X113081323Y-82221707D01*
X112831049Y-82256418D01*
X112592355Y-82339288D01*
X112459354Y-82410379D01*
X112376783Y-82610299D01*
X102767200Y-82610299D01*
X102767200Y-74192200D01*
X110900638Y-74192200D01*
X110551184Y-74333389D01*
M02*
