G04 #@! TF.FileFunction,Legend,Top*
%FSLAX46Y46*%
G04 Gerber Fmt 4.6, Leading zero omitted, Abs format (unit mm)*
G04 Created by KiCad (PCBNEW (2015-09-12 BZR 6188)-product) date vie 27 nov 2015 02:47:37 ART*
%MOMM*%
G01*
G04 APERTURE LIST*
%ADD10C,0.100000*%
%ADD11C,0.250000*%
%ADD12C,0.150000*%
%ADD13C,0.203200*%
%ADD14C,0.254000*%
%ADD15C,0.127000*%
%ADD16C,0.400000*%
%ADD17C,0.002540*%
%ADD18C,0.114300*%
%ADD19C,0.200000*%
%ADD20C,0.180000*%
%ADD21C,0.190000*%
%ADD22C,0.125000*%
%ADD23C,0.120000*%
G04 APERTURE END LIST*
D10*
D11*
X103562569Y-133393571D02*
X103562569Y-131893571D01*
X104038759Y-132393571D02*
X104038759Y-133393571D01*
X104038759Y-132536429D02*
X104086378Y-132465000D01*
X104181616Y-132393571D01*
X104324474Y-132393571D01*
X104419712Y-132465000D01*
X104467331Y-132607857D01*
X104467331Y-133393571D01*
X104895902Y-133322143D02*
X104991140Y-133393571D01*
X105181616Y-133393571D01*
X105276855Y-133322143D01*
X105324474Y-133179286D01*
X105324474Y-133107857D01*
X105276855Y-132965000D01*
X105181616Y-132893571D01*
X105038759Y-132893571D01*
X104943521Y-132822143D01*
X104895902Y-132679286D01*
X104895902Y-132607857D01*
X104943521Y-132465000D01*
X105038759Y-132393571D01*
X105181616Y-132393571D01*
X105276855Y-132465000D01*
X105610188Y-132393571D02*
X105991140Y-132393571D01*
X105753045Y-131893571D02*
X105753045Y-133179286D01*
X105800664Y-133322143D01*
X105895902Y-133393571D01*
X105991140Y-133393571D01*
X106324474Y-133393571D02*
X106324474Y-132393571D01*
X106324474Y-131893571D02*
X106276855Y-131965000D01*
X106324474Y-132036429D01*
X106372093Y-131965000D01*
X106324474Y-131893571D01*
X106324474Y-132036429D01*
X106657807Y-132393571D02*
X107038759Y-132393571D01*
X106800664Y-131893571D02*
X106800664Y-133179286D01*
X106848283Y-133322143D01*
X106943521Y-133393571D01*
X107038759Y-133393571D01*
X107800665Y-132393571D02*
X107800665Y-133393571D01*
X107372093Y-132393571D02*
X107372093Y-133179286D01*
X107419712Y-133322143D01*
X107514950Y-133393571D01*
X107657808Y-133393571D01*
X107753046Y-133322143D01*
X107800665Y-133250714D01*
X108133998Y-132393571D02*
X108514950Y-132393571D01*
X108276855Y-131893571D02*
X108276855Y-133179286D01*
X108324474Y-133322143D01*
X108419712Y-133393571D01*
X108514950Y-133393571D01*
X108991141Y-133393571D02*
X108895903Y-133322143D01*
X108848284Y-133250714D01*
X108800665Y-133107857D01*
X108800665Y-132679286D01*
X108848284Y-132536429D01*
X108895903Y-132465000D01*
X108991141Y-132393571D01*
X109133999Y-132393571D01*
X109229237Y-132465000D01*
X109276856Y-132536429D01*
X109324475Y-132679286D01*
X109324475Y-133107857D01*
X109276856Y-133250714D01*
X109229237Y-133322143D01*
X109133999Y-133393571D01*
X108991141Y-133393571D01*
X110514951Y-133393571D02*
X110514951Y-131893571D01*
X111086380Y-133393571D01*
X111086380Y-131893571D01*
X111991142Y-133393571D02*
X111991142Y-132607857D01*
X111943523Y-132465000D01*
X111848285Y-132393571D01*
X111657808Y-132393571D01*
X111562570Y-132465000D01*
X111991142Y-133322143D02*
X111895904Y-133393571D01*
X111657808Y-133393571D01*
X111562570Y-133322143D01*
X111514951Y-133179286D01*
X111514951Y-133036429D01*
X111562570Y-132893571D01*
X111657808Y-132822143D01*
X111895904Y-132822143D01*
X111991142Y-132750714D01*
X112895904Y-133322143D02*
X112800666Y-133393571D01*
X112610189Y-133393571D01*
X112514951Y-133322143D01*
X112467332Y-133250714D01*
X112419713Y-133107857D01*
X112419713Y-132679286D01*
X112467332Y-132536429D01*
X112514951Y-132465000D01*
X112610189Y-132393571D01*
X112800666Y-132393571D01*
X112895904Y-132465000D01*
X113324475Y-133393571D02*
X113324475Y-132393571D01*
X113324475Y-131893571D02*
X113276856Y-131965000D01*
X113324475Y-132036429D01*
X113372094Y-131965000D01*
X113324475Y-131893571D01*
X113324475Y-132036429D01*
X113943522Y-133393571D02*
X113848284Y-133322143D01*
X113800665Y-133250714D01*
X113753046Y-133107857D01*
X113753046Y-132679286D01*
X113800665Y-132536429D01*
X113848284Y-132465000D01*
X113943522Y-132393571D01*
X114086380Y-132393571D01*
X114181618Y-132465000D01*
X114229237Y-132536429D01*
X114276856Y-132679286D01*
X114276856Y-133107857D01*
X114229237Y-133250714D01*
X114181618Y-133322143D01*
X114086380Y-133393571D01*
X113943522Y-133393571D01*
X114705427Y-132393571D02*
X114705427Y-133393571D01*
X114705427Y-132536429D02*
X114753046Y-132465000D01*
X114848284Y-132393571D01*
X114991142Y-132393571D01*
X115086380Y-132465000D01*
X115133999Y-132607857D01*
X115133999Y-133393571D01*
X116038761Y-133393571D02*
X116038761Y-132607857D01*
X115991142Y-132465000D01*
X115895904Y-132393571D01*
X115705427Y-132393571D01*
X115610189Y-132465000D01*
X116038761Y-133322143D02*
X115943523Y-133393571D01*
X115705427Y-133393571D01*
X115610189Y-133322143D01*
X115562570Y-133179286D01*
X115562570Y-133036429D01*
X115610189Y-132893571D01*
X115705427Y-132822143D01*
X115943523Y-132822143D01*
X116038761Y-132750714D01*
X116657808Y-133393571D02*
X116562570Y-133322143D01*
X116514951Y-133179286D01*
X116514951Y-131893571D01*
X118229238Y-133393571D02*
X118229238Y-131893571D01*
X118229238Y-133322143D02*
X118134000Y-133393571D01*
X117943523Y-133393571D01*
X117848285Y-133322143D01*
X117800666Y-133250714D01*
X117753047Y-133107857D01*
X117753047Y-132679286D01*
X117800666Y-132536429D01*
X117848285Y-132465000D01*
X117943523Y-132393571D01*
X118134000Y-132393571D01*
X118229238Y-132465000D01*
X119086381Y-133322143D02*
X118991143Y-133393571D01*
X118800666Y-133393571D01*
X118705428Y-133322143D01*
X118657809Y-133179286D01*
X118657809Y-132607857D01*
X118705428Y-132465000D01*
X118800666Y-132393571D01*
X118991143Y-132393571D01*
X119086381Y-132465000D01*
X119134000Y-132607857D01*
X119134000Y-132750714D01*
X118657809Y-132893571D01*
X120181619Y-131893571D02*
X120753048Y-131893571D01*
X120467333Y-133393571D02*
X120467333Y-131893571D01*
X121467334Y-133322143D02*
X121372096Y-133393571D01*
X121181619Y-133393571D01*
X121086381Y-133322143D01*
X121038762Y-133179286D01*
X121038762Y-132607857D01*
X121086381Y-132465000D01*
X121181619Y-132393571D01*
X121372096Y-132393571D01*
X121467334Y-132465000D01*
X121514953Y-132607857D01*
X121514953Y-132750714D01*
X121038762Y-132893571D01*
X122372096Y-133322143D02*
X122276858Y-133393571D01*
X122086381Y-133393571D01*
X121991143Y-133322143D01*
X121943524Y-133250714D01*
X121895905Y-133107857D01*
X121895905Y-132679286D01*
X121943524Y-132536429D01*
X121991143Y-132465000D01*
X122086381Y-132393571D01*
X122276858Y-132393571D01*
X122372096Y-132465000D01*
X122800667Y-132393571D02*
X122800667Y-133393571D01*
X122800667Y-132536429D02*
X122848286Y-132465000D01*
X122943524Y-132393571D01*
X123086382Y-132393571D01*
X123181620Y-132465000D01*
X123229239Y-132607857D01*
X123229239Y-133393571D01*
X123848286Y-133393571D02*
X123753048Y-133322143D01*
X123705429Y-133250714D01*
X123657810Y-133107857D01*
X123657810Y-132679286D01*
X123705429Y-132536429D01*
X123753048Y-132465000D01*
X123848286Y-132393571D01*
X123991144Y-132393571D01*
X124086382Y-132465000D01*
X124134001Y-132536429D01*
X124181620Y-132679286D01*
X124181620Y-133107857D01*
X124134001Y-133250714D01*
X124086382Y-133322143D01*
X123991144Y-133393571D01*
X123848286Y-133393571D01*
X124753048Y-133393571D02*
X124657810Y-133322143D01*
X124610191Y-133179286D01*
X124610191Y-131893571D01*
X125276858Y-133393571D02*
X125181620Y-133322143D01*
X125134001Y-133250714D01*
X125086382Y-133107857D01*
X125086382Y-132679286D01*
X125134001Y-132536429D01*
X125181620Y-132465000D01*
X125276858Y-132393571D01*
X125419716Y-132393571D01*
X125514954Y-132465000D01*
X125562573Y-132536429D01*
X125610192Y-132679286D01*
X125610192Y-133107857D01*
X125562573Y-133250714D01*
X125514954Y-133322143D01*
X125419716Y-133393571D01*
X125276858Y-133393571D01*
X126467335Y-132393571D02*
X126467335Y-133607857D01*
X126419716Y-133750714D01*
X126372097Y-133822143D01*
X126276858Y-133893571D01*
X126134001Y-133893571D01*
X126038763Y-133822143D01*
X126467335Y-133322143D02*
X126372097Y-133393571D01*
X126181620Y-133393571D01*
X126086382Y-133322143D01*
X126038763Y-133250714D01*
X125991144Y-133107857D01*
X125991144Y-132679286D01*
X126038763Y-132536429D01*
X126086382Y-132465000D01*
X126181620Y-132393571D01*
X126372097Y-132393571D01*
X126467335Y-132465000D01*
X126943525Y-133393571D02*
X126943525Y-132393571D01*
X127038763Y-131822143D02*
X126895906Y-132036429D01*
X127848287Y-133393571D02*
X127848287Y-132607857D01*
X127800668Y-132465000D01*
X127705430Y-132393571D01*
X127514953Y-132393571D01*
X127419715Y-132465000D01*
X127848287Y-133322143D02*
X127753049Y-133393571D01*
X127514953Y-133393571D01*
X127419715Y-133322143D01*
X127372096Y-133179286D01*
X127372096Y-133036429D01*
X127419715Y-132893571D01*
X127514953Y-132822143D01*
X127753049Y-132822143D01*
X127848287Y-132750714D01*
X129086382Y-133393571D02*
X129086382Y-131893571D01*
X129562572Y-132393571D02*
X129562572Y-133393571D01*
X129562572Y-132536429D02*
X129610191Y-132465000D01*
X129705429Y-132393571D01*
X129848287Y-132393571D01*
X129943525Y-132465000D01*
X129991144Y-132607857D01*
X129991144Y-133393571D01*
X130895906Y-133393571D02*
X130895906Y-131893571D01*
X130895906Y-133322143D02*
X130800668Y-133393571D01*
X130610191Y-133393571D01*
X130514953Y-133322143D01*
X130467334Y-133250714D01*
X130419715Y-133107857D01*
X130419715Y-132679286D01*
X130467334Y-132536429D01*
X130514953Y-132465000D01*
X130610191Y-132393571D01*
X130800668Y-132393571D01*
X130895906Y-132465000D01*
X131800668Y-132393571D02*
X131800668Y-133393571D01*
X131372096Y-132393571D02*
X131372096Y-133179286D01*
X131419715Y-133322143D01*
X131514953Y-133393571D01*
X131657811Y-133393571D01*
X131753049Y-133322143D01*
X131800668Y-133250714D01*
X132229239Y-133322143D02*
X132324477Y-133393571D01*
X132514953Y-133393571D01*
X132610192Y-133322143D01*
X132657811Y-133179286D01*
X132657811Y-133107857D01*
X132610192Y-132965000D01*
X132514953Y-132893571D01*
X132372096Y-132893571D01*
X132276858Y-132822143D01*
X132229239Y-132679286D01*
X132229239Y-132607857D01*
X132276858Y-132465000D01*
X132372096Y-132393571D01*
X132514953Y-132393571D01*
X132610192Y-132465000D01*
X132943525Y-132393571D02*
X133324477Y-132393571D01*
X133086382Y-131893571D02*
X133086382Y-133179286D01*
X133134001Y-133322143D01*
X133229239Y-133393571D01*
X133324477Y-133393571D01*
X133657811Y-133393571D02*
X133657811Y-132393571D01*
X133657811Y-132679286D02*
X133705430Y-132536429D01*
X133753049Y-132465000D01*
X133848287Y-132393571D01*
X133943526Y-132393571D01*
X134276859Y-133393571D02*
X134276859Y-132393571D01*
X134276859Y-131893571D02*
X134229240Y-131965000D01*
X134276859Y-132036429D01*
X134324478Y-131965000D01*
X134276859Y-131893571D01*
X134276859Y-132036429D01*
X135181621Y-133393571D02*
X135181621Y-132607857D01*
X135134002Y-132465000D01*
X135038764Y-132393571D01*
X134848287Y-132393571D01*
X134753049Y-132465000D01*
X135181621Y-133322143D02*
X135086383Y-133393571D01*
X134848287Y-133393571D01*
X134753049Y-133322143D01*
X134705430Y-133179286D01*
X134705430Y-133036429D01*
X134753049Y-132893571D01*
X134848287Y-132822143D01*
X135086383Y-132822143D01*
X135181621Y-132750714D01*
X135800668Y-133393571D02*
X135705430Y-133322143D01*
X135657811Y-133179286D01*
X135657811Y-131893571D01*
D12*
X102235000Y-134620000D02*
X102235000Y-73660000D01*
X142875000Y-134620000D02*
X102235000Y-134620000D01*
X142875000Y-73660000D02*
X142875000Y-134620000D01*
X102235000Y-73660000D02*
X142875000Y-73660000D01*
X133350000Y-129540000D02*
X133350000Y-78740000D01*
X138430000Y-129540000D02*
X138430000Y-78740000D01*
X138430000Y-129540000D02*
X133350000Y-129540000D01*
X138430000Y-78740000D02*
X133350000Y-78740000D01*
D13*
X123348000Y-97508000D02*
X123348000Y-97208000D01*
X124048000Y-97508000D02*
X124048000Y-97208000D01*
X123348000Y-97508000D02*
G75*
G03X124048000Y-97508000I350000J0D01*
G01*
D14*
X119689421Y-97658000D02*
G75*
G03X119689421Y-97658000I-141421J0D01*
G01*
D13*
X121798080Y-97170240D02*
X123348000Y-97170240D01*
X124048000Y-97170240D02*
X125597920Y-97170240D01*
X125597920Y-107045760D02*
X122298460Y-107045760D01*
X122298460Y-107045760D02*
X121798080Y-107045760D01*
D12*
X118373000Y-95996000D02*
X118373000Y-93996000D01*
X116323000Y-93996000D02*
X116323000Y-95996000D01*
X118373000Y-103108000D02*
X118373000Y-101108000D01*
X116323000Y-101108000D02*
X116323000Y-103108000D01*
X124698000Y-91431000D02*
X122698000Y-91431000D01*
X122698000Y-93481000D02*
X124698000Y-93481000D01*
X122698000Y-109991000D02*
X124698000Y-109991000D01*
X124698000Y-107941000D02*
X122698000Y-107941000D01*
X122698000Y-96275000D02*
X124698000Y-96275000D01*
X124698000Y-94225000D02*
X122698000Y-94225000D01*
D15*
X114710000Y-73646800D02*
X104710000Y-73646800D01*
X114710000Y-104446800D02*
X104710000Y-104446800D01*
X114710000Y-73646800D02*
X114710000Y-104446800D01*
D12*
X124698000Y-117847000D02*
X122698000Y-117847000D01*
X122698000Y-119897000D02*
X124698000Y-119897000D01*
D15*
X102210000Y-109200000D02*
X108010000Y-109200000D01*
X102210000Y-116860000D02*
X102210000Y-109200000D01*
X108010000Y-116860000D02*
X102210000Y-116860000D01*
X108010000Y-109200000D02*
X108010000Y-116860000D01*
X107410000Y-109200000D02*
X107410000Y-116860000D01*
X125698000Y-116800000D02*
X125698000Y-116600000D01*
X125698000Y-111800000D02*
X125698000Y-112000000D01*
X121698000Y-111800000D02*
X121698000Y-112000000D01*
X121698000Y-116800000D02*
X121698000Y-116600000D01*
D13*
X126553112Y-116876400D02*
G75*
G03X126553112Y-116876400I-80512J0D01*
G01*
D15*
X121698000Y-116800000D02*
X125698000Y-116800000D01*
X125698000Y-111800000D02*
X121698000Y-111800000D01*
D16*
X124950819Y-116176400D02*
G75*
G03X124950819Y-116176400I-178219J0D01*
G01*
D17*
G36*
X120766840Y-81696560D02*
X120807480Y-81676240D01*
X120901460Y-81617820D01*
X121036080Y-81528920D01*
X121193560Y-81424780D01*
X121351040Y-81315560D01*
X121480580Y-81229200D01*
X121572020Y-81170780D01*
X121610120Y-81150460D01*
X121630440Y-81155540D01*
X121706640Y-81193640D01*
X121815860Y-81249520D01*
X121879360Y-81282540D01*
X121978420Y-81325720D01*
X122029220Y-81335880D01*
X122036840Y-81320640D01*
X122074940Y-81244440D01*
X122130820Y-81112360D01*
X122207020Y-80939640D01*
X122293380Y-80736440D01*
X122387360Y-80518000D01*
X122478800Y-80294480D01*
X122567700Y-80081120D01*
X122646440Y-79890620D01*
X122709940Y-79735680D01*
X122750580Y-79626460D01*
X122765820Y-79580740D01*
X122760740Y-79570580D01*
X122709940Y-79522320D01*
X122623580Y-79456280D01*
X122433080Y-79301340D01*
X122247660Y-79067660D01*
X122133360Y-78803500D01*
X122095260Y-78508860D01*
X122128280Y-78237080D01*
X122234960Y-77975460D01*
X122417840Y-77739240D01*
X122638820Y-77563980D01*
X122897900Y-77452220D01*
X123190000Y-77416660D01*
X123469400Y-77447140D01*
X123736100Y-77553820D01*
X123972320Y-77734160D01*
X124071380Y-77848460D01*
X124208540Y-78087220D01*
X124287280Y-78343760D01*
X124294900Y-78407260D01*
X124284740Y-78689200D01*
X124200920Y-78958440D01*
X124053600Y-79199740D01*
X123847860Y-79395320D01*
X123819920Y-79415640D01*
X123725940Y-79486760D01*
X123662440Y-79535020D01*
X123611640Y-79575660D01*
X123969780Y-80436720D01*
X124025660Y-80573880D01*
X124124720Y-80810100D01*
X124211080Y-81013300D01*
X124279660Y-81173320D01*
X124327920Y-81282540D01*
X124348240Y-81325720D01*
X124350780Y-81328260D01*
X124381260Y-81333340D01*
X124447300Y-81307940D01*
X124566680Y-81249520D01*
X124647960Y-81208880D01*
X124739400Y-81165700D01*
X124780040Y-81150460D01*
X124815600Y-81168240D01*
X124901960Y-81226660D01*
X125031500Y-81310480D01*
X125183900Y-81414620D01*
X125331220Y-81516220D01*
X125465840Y-81605120D01*
X125564900Y-81666080D01*
X125613160Y-81694020D01*
X125620780Y-81694020D01*
X125661420Y-81668620D01*
X125740160Y-81605120D01*
X125857000Y-81493360D01*
X126022100Y-81330800D01*
X126047500Y-81305400D01*
X126184660Y-81165700D01*
X126296420Y-81048860D01*
X126370080Y-80967580D01*
X126395480Y-80929480D01*
X126395480Y-80929480D01*
X126372620Y-80881220D01*
X126309120Y-80784700D01*
X126220220Y-80647540D01*
X126111000Y-80487520D01*
X125826520Y-80073500D01*
X125984000Y-79682340D01*
X126032260Y-79562960D01*
X126093220Y-79418180D01*
X126136400Y-79314040D01*
X126161800Y-79268320D01*
X126202440Y-79253080D01*
X126311660Y-79227680D01*
X126466600Y-79194660D01*
X126649480Y-79161640D01*
X126827280Y-79128620D01*
X126987300Y-79098140D01*
X127101600Y-79075280D01*
X127152400Y-79065120D01*
X127165100Y-79057500D01*
X127175260Y-79032100D01*
X127182880Y-78978760D01*
X127185420Y-78882240D01*
X127187960Y-78729840D01*
X127187960Y-78508860D01*
X127187960Y-78486000D01*
X127185420Y-78275180D01*
X127182880Y-78107540D01*
X127177800Y-77998320D01*
X127170180Y-77955140D01*
X127170180Y-77955140D01*
X127119380Y-77942440D01*
X127007620Y-77919580D01*
X126847600Y-77886560D01*
X126657100Y-77851000D01*
X126646940Y-77848460D01*
X126456440Y-77812900D01*
X126298960Y-77779880D01*
X126187200Y-77754480D01*
X126141480Y-77739240D01*
X126131320Y-77726540D01*
X126093220Y-77652880D01*
X126037340Y-77536040D01*
X125976380Y-77391260D01*
X125912880Y-77243940D01*
X125859540Y-77109320D01*
X125823980Y-77010260D01*
X125813820Y-76964540D01*
X125813820Y-76964540D01*
X125841760Y-76918820D01*
X125907800Y-76819760D01*
X125999240Y-76685140D01*
X126111000Y-76522580D01*
X126118620Y-76509880D01*
X126227840Y-76349860D01*
X126316740Y-76215240D01*
X126375160Y-76118720D01*
X126395480Y-76075540D01*
X126395480Y-76073000D01*
X126359920Y-76024740D01*
X126278640Y-75935840D01*
X126161800Y-75813920D01*
X126022100Y-75671680D01*
X125976380Y-75628500D01*
X125821440Y-75476100D01*
X125714760Y-75377040D01*
X125646180Y-75323700D01*
X125613160Y-75311000D01*
X125613160Y-75313540D01*
X125564900Y-75341480D01*
X125463300Y-75407520D01*
X125326140Y-75501500D01*
X125163580Y-75610720D01*
X125153420Y-75618340D01*
X124993400Y-75727560D01*
X124861320Y-75816460D01*
X124764800Y-75879960D01*
X124724160Y-75905360D01*
X124716540Y-75905360D01*
X124653040Y-75885040D01*
X124538740Y-75846940D01*
X124399040Y-75791060D01*
X124251720Y-75732640D01*
X124117100Y-75676760D01*
X124015500Y-75628500D01*
X123967240Y-75603100D01*
X123967240Y-75600560D01*
X123949460Y-75542140D01*
X123921520Y-75422760D01*
X123888500Y-75257660D01*
X123850400Y-75062080D01*
X123845320Y-75031600D01*
X123809760Y-74841100D01*
X123779280Y-74683620D01*
X123756420Y-74574400D01*
X123743720Y-74528680D01*
X123718320Y-74523600D01*
X123624340Y-74515980D01*
X123482100Y-74513440D01*
X123309380Y-74510900D01*
X123129040Y-74513440D01*
X122953780Y-74515980D01*
X122801380Y-74521060D01*
X122694700Y-74528680D01*
X122648980Y-74538840D01*
X122646440Y-74541380D01*
X122631200Y-74599800D01*
X122605800Y-74719180D01*
X122570240Y-74884280D01*
X122532140Y-75082400D01*
X122527060Y-75115420D01*
X122491500Y-75305920D01*
X122458480Y-75460860D01*
X122435620Y-75570080D01*
X122422920Y-75610720D01*
X122407680Y-75620880D01*
X122328940Y-75653900D01*
X122201940Y-75707240D01*
X122041920Y-75770740D01*
X121676160Y-75920600D01*
X121229120Y-75610720D01*
X121185940Y-75582780D01*
X121025920Y-75473560D01*
X120891300Y-75384660D01*
X120799860Y-75326240D01*
X120761760Y-75303380D01*
X120759220Y-75305920D01*
X120713500Y-75344020D01*
X120624600Y-75427840D01*
X120502680Y-75547220D01*
X120362980Y-75686920D01*
X120258840Y-75791060D01*
X120134380Y-75918060D01*
X120055640Y-76001880D01*
X120012460Y-76057760D01*
X119997220Y-76090780D01*
X120002300Y-76111100D01*
X120030240Y-76156820D01*
X120096280Y-76255880D01*
X120187720Y-76393040D01*
X120296940Y-76550520D01*
X120388380Y-76685140D01*
X120484900Y-76835000D01*
X120548400Y-76941680D01*
X120571260Y-76995020D01*
X120566180Y-77017880D01*
X120533160Y-77104240D01*
X120479820Y-77238860D01*
X120413780Y-77396340D01*
X120256300Y-77751940D01*
X120022620Y-77795120D01*
X119882920Y-77823060D01*
X119684800Y-77861160D01*
X119496840Y-77896720D01*
X119202200Y-77955140D01*
X119192040Y-79037180D01*
X119237760Y-79057500D01*
X119280940Y-79070200D01*
X119390160Y-79093060D01*
X119545100Y-79123540D01*
X119730520Y-79159100D01*
X119885460Y-79189580D01*
X120045480Y-79217520D01*
X120157240Y-79240380D01*
X120208040Y-79250540D01*
X120220740Y-79268320D01*
X120261380Y-79344520D01*
X120317260Y-79466440D01*
X120378220Y-79613760D01*
X120441720Y-79763620D01*
X120497600Y-79903320D01*
X120538240Y-80010000D01*
X120550940Y-80065880D01*
X120530620Y-80109060D01*
X120469660Y-80200500D01*
X120383300Y-80332580D01*
X120276620Y-80490060D01*
X120167400Y-80647540D01*
X120078500Y-80782160D01*
X120015000Y-80878680D01*
X119989600Y-80921860D01*
X120002300Y-80952340D01*
X120063260Y-81028540D01*
X120182640Y-81150460D01*
X120357900Y-81325720D01*
X120388380Y-81353660D01*
X120528080Y-81488280D01*
X120647460Y-81597500D01*
X120728740Y-81671160D01*
X120766840Y-81696560D01*
X120766840Y-81696560D01*
G37*
X120766840Y-81696560D02*
X120807480Y-81676240D01*
X120901460Y-81617820D01*
X121036080Y-81528920D01*
X121193560Y-81424780D01*
X121351040Y-81315560D01*
X121480580Y-81229200D01*
X121572020Y-81170780D01*
X121610120Y-81150460D01*
X121630440Y-81155540D01*
X121706640Y-81193640D01*
X121815860Y-81249520D01*
X121879360Y-81282540D01*
X121978420Y-81325720D01*
X122029220Y-81335880D01*
X122036840Y-81320640D01*
X122074940Y-81244440D01*
X122130820Y-81112360D01*
X122207020Y-80939640D01*
X122293380Y-80736440D01*
X122387360Y-80518000D01*
X122478800Y-80294480D01*
X122567700Y-80081120D01*
X122646440Y-79890620D01*
X122709940Y-79735680D01*
X122750580Y-79626460D01*
X122765820Y-79580740D01*
X122760740Y-79570580D01*
X122709940Y-79522320D01*
X122623580Y-79456280D01*
X122433080Y-79301340D01*
X122247660Y-79067660D01*
X122133360Y-78803500D01*
X122095260Y-78508860D01*
X122128280Y-78237080D01*
X122234960Y-77975460D01*
X122417840Y-77739240D01*
X122638820Y-77563980D01*
X122897900Y-77452220D01*
X123190000Y-77416660D01*
X123469400Y-77447140D01*
X123736100Y-77553820D01*
X123972320Y-77734160D01*
X124071380Y-77848460D01*
X124208540Y-78087220D01*
X124287280Y-78343760D01*
X124294900Y-78407260D01*
X124284740Y-78689200D01*
X124200920Y-78958440D01*
X124053600Y-79199740D01*
X123847860Y-79395320D01*
X123819920Y-79415640D01*
X123725940Y-79486760D01*
X123662440Y-79535020D01*
X123611640Y-79575660D01*
X123969780Y-80436720D01*
X124025660Y-80573880D01*
X124124720Y-80810100D01*
X124211080Y-81013300D01*
X124279660Y-81173320D01*
X124327920Y-81282540D01*
X124348240Y-81325720D01*
X124350780Y-81328260D01*
X124381260Y-81333340D01*
X124447300Y-81307940D01*
X124566680Y-81249520D01*
X124647960Y-81208880D01*
X124739400Y-81165700D01*
X124780040Y-81150460D01*
X124815600Y-81168240D01*
X124901960Y-81226660D01*
X125031500Y-81310480D01*
X125183900Y-81414620D01*
X125331220Y-81516220D01*
X125465840Y-81605120D01*
X125564900Y-81666080D01*
X125613160Y-81694020D01*
X125620780Y-81694020D01*
X125661420Y-81668620D01*
X125740160Y-81605120D01*
X125857000Y-81493360D01*
X126022100Y-81330800D01*
X126047500Y-81305400D01*
X126184660Y-81165700D01*
X126296420Y-81048860D01*
X126370080Y-80967580D01*
X126395480Y-80929480D01*
X126395480Y-80929480D01*
X126372620Y-80881220D01*
X126309120Y-80784700D01*
X126220220Y-80647540D01*
X126111000Y-80487520D01*
X125826520Y-80073500D01*
X125984000Y-79682340D01*
X126032260Y-79562960D01*
X126093220Y-79418180D01*
X126136400Y-79314040D01*
X126161800Y-79268320D01*
X126202440Y-79253080D01*
X126311660Y-79227680D01*
X126466600Y-79194660D01*
X126649480Y-79161640D01*
X126827280Y-79128620D01*
X126987300Y-79098140D01*
X127101600Y-79075280D01*
X127152400Y-79065120D01*
X127165100Y-79057500D01*
X127175260Y-79032100D01*
X127182880Y-78978760D01*
X127185420Y-78882240D01*
X127187960Y-78729840D01*
X127187960Y-78508860D01*
X127187960Y-78486000D01*
X127185420Y-78275180D01*
X127182880Y-78107540D01*
X127177800Y-77998320D01*
X127170180Y-77955140D01*
X127170180Y-77955140D01*
X127119380Y-77942440D01*
X127007620Y-77919580D01*
X126847600Y-77886560D01*
X126657100Y-77851000D01*
X126646940Y-77848460D01*
X126456440Y-77812900D01*
X126298960Y-77779880D01*
X126187200Y-77754480D01*
X126141480Y-77739240D01*
X126131320Y-77726540D01*
X126093220Y-77652880D01*
X126037340Y-77536040D01*
X125976380Y-77391260D01*
X125912880Y-77243940D01*
X125859540Y-77109320D01*
X125823980Y-77010260D01*
X125813820Y-76964540D01*
X125813820Y-76964540D01*
X125841760Y-76918820D01*
X125907800Y-76819760D01*
X125999240Y-76685140D01*
X126111000Y-76522580D01*
X126118620Y-76509880D01*
X126227840Y-76349860D01*
X126316740Y-76215240D01*
X126375160Y-76118720D01*
X126395480Y-76075540D01*
X126395480Y-76073000D01*
X126359920Y-76024740D01*
X126278640Y-75935840D01*
X126161800Y-75813920D01*
X126022100Y-75671680D01*
X125976380Y-75628500D01*
X125821440Y-75476100D01*
X125714760Y-75377040D01*
X125646180Y-75323700D01*
X125613160Y-75311000D01*
X125613160Y-75313540D01*
X125564900Y-75341480D01*
X125463300Y-75407520D01*
X125326140Y-75501500D01*
X125163580Y-75610720D01*
X125153420Y-75618340D01*
X124993400Y-75727560D01*
X124861320Y-75816460D01*
X124764800Y-75879960D01*
X124724160Y-75905360D01*
X124716540Y-75905360D01*
X124653040Y-75885040D01*
X124538740Y-75846940D01*
X124399040Y-75791060D01*
X124251720Y-75732640D01*
X124117100Y-75676760D01*
X124015500Y-75628500D01*
X123967240Y-75603100D01*
X123967240Y-75600560D01*
X123949460Y-75542140D01*
X123921520Y-75422760D01*
X123888500Y-75257660D01*
X123850400Y-75062080D01*
X123845320Y-75031600D01*
X123809760Y-74841100D01*
X123779280Y-74683620D01*
X123756420Y-74574400D01*
X123743720Y-74528680D01*
X123718320Y-74523600D01*
X123624340Y-74515980D01*
X123482100Y-74513440D01*
X123309380Y-74510900D01*
X123129040Y-74513440D01*
X122953780Y-74515980D01*
X122801380Y-74521060D01*
X122694700Y-74528680D01*
X122648980Y-74538840D01*
X122646440Y-74541380D01*
X122631200Y-74599800D01*
X122605800Y-74719180D01*
X122570240Y-74884280D01*
X122532140Y-75082400D01*
X122527060Y-75115420D01*
X122491500Y-75305920D01*
X122458480Y-75460860D01*
X122435620Y-75570080D01*
X122422920Y-75610720D01*
X122407680Y-75620880D01*
X122328940Y-75653900D01*
X122201940Y-75707240D01*
X122041920Y-75770740D01*
X121676160Y-75920600D01*
X121229120Y-75610720D01*
X121185940Y-75582780D01*
X121025920Y-75473560D01*
X120891300Y-75384660D01*
X120799860Y-75326240D01*
X120761760Y-75303380D01*
X120759220Y-75305920D01*
X120713500Y-75344020D01*
X120624600Y-75427840D01*
X120502680Y-75547220D01*
X120362980Y-75686920D01*
X120258840Y-75791060D01*
X120134380Y-75918060D01*
X120055640Y-76001880D01*
X120012460Y-76057760D01*
X119997220Y-76090780D01*
X120002300Y-76111100D01*
X120030240Y-76156820D01*
X120096280Y-76255880D01*
X120187720Y-76393040D01*
X120296940Y-76550520D01*
X120388380Y-76685140D01*
X120484900Y-76835000D01*
X120548400Y-76941680D01*
X120571260Y-76995020D01*
X120566180Y-77017880D01*
X120533160Y-77104240D01*
X120479820Y-77238860D01*
X120413780Y-77396340D01*
X120256300Y-77751940D01*
X120022620Y-77795120D01*
X119882920Y-77823060D01*
X119684800Y-77861160D01*
X119496840Y-77896720D01*
X119202200Y-77955140D01*
X119192040Y-79037180D01*
X119237760Y-79057500D01*
X119280940Y-79070200D01*
X119390160Y-79093060D01*
X119545100Y-79123540D01*
X119730520Y-79159100D01*
X119885460Y-79189580D01*
X120045480Y-79217520D01*
X120157240Y-79240380D01*
X120208040Y-79250540D01*
X120220740Y-79268320D01*
X120261380Y-79344520D01*
X120317260Y-79466440D01*
X120378220Y-79613760D01*
X120441720Y-79763620D01*
X120497600Y-79903320D01*
X120538240Y-80010000D01*
X120550940Y-80065880D01*
X120530620Y-80109060D01*
X120469660Y-80200500D01*
X120383300Y-80332580D01*
X120276620Y-80490060D01*
X120167400Y-80647540D01*
X120078500Y-80782160D01*
X120015000Y-80878680D01*
X119989600Y-80921860D01*
X120002300Y-80952340D01*
X120063260Y-81028540D01*
X120182640Y-81150460D01*
X120357900Y-81325720D01*
X120388380Y-81353660D01*
X120528080Y-81488280D01*
X120647460Y-81597500D01*
X120728740Y-81671160D01*
X120766840Y-81696560D01*
D10*
G36*
X127725714Y-124467979D02*
X127688746Y-124674891D01*
X127595012Y-124959800D01*
X127470272Y-125257897D01*
X127340281Y-125504374D01*
X127313376Y-125542413D01*
X127313376Y-124971299D01*
X127248326Y-124658062D01*
X127059112Y-124450622D01*
X126754639Y-124357329D01*
X126653636Y-124352792D01*
X126319516Y-124413777D01*
X126098248Y-124591165D01*
X125998734Y-124876608D01*
X125993896Y-124971299D01*
X126058946Y-125284536D01*
X126248159Y-125491975D01*
X126552633Y-125585269D01*
X126653636Y-125589805D01*
X126987606Y-125531492D01*
X127148441Y-125424870D01*
X127282315Y-125187030D01*
X127313376Y-124971299D01*
X127313376Y-125542413D01*
X127279856Y-125589805D01*
X127203749Y-125716925D01*
X127085220Y-125956365D01*
X126943792Y-126267585D01*
X126862876Y-126455714D01*
X126611635Y-127024272D01*
X126339718Y-127591808D01*
X126059494Y-128136693D01*
X125783334Y-128637296D01*
X125746493Y-128698955D01*
X125746493Y-124971299D01*
X125742598Y-124655064D01*
X125724834Y-124469516D01*
X125684089Y-124380476D01*
X125611247Y-124353762D01*
X125581558Y-124352792D01*
X125460831Y-124391671D01*
X125418325Y-124536331D01*
X125416623Y-124600195D01*
X125396189Y-124775430D01*
X125299798Y-124840018D01*
X125169220Y-124847598D01*
X124993985Y-124827163D01*
X124929397Y-124730773D01*
X124921818Y-124600195D01*
X124895898Y-124419104D01*
X124799459Y-124355345D01*
X124756883Y-124352792D01*
X124672553Y-124367401D01*
X124623074Y-124434012D01*
X124599330Y-124586807D01*
X124592206Y-124859964D01*
X124591948Y-124971299D01*
X124595843Y-125287533D01*
X124613606Y-125473081D01*
X124654351Y-125562122D01*
X124727193Y-125588835D01*
X124756883Y-125589805D01*
X124870559Y-125557518D01*
X124916426Y-125431472D01*
X124921818Y-125301169D01*
X124935609Y-125107245D01*
X125005564Y-125027706D01*
X125169220Y-125012533D01*
X125335441Y-125028623D01*
X125403617Y-125110237D01*
X125416623Y-125301169D01*
X125435073Y-125500103D01*
X125507099Y-125580370D01*
X125581558Y-125589805D01*
X125665887Y-125575197D01*
X125715367Y-125508586D01*
X125739111Y-125355791D01*
X125746234Y-125082634D01*
X125746493Y-124971299D01*
X125746493Y-128698955D01*
X125523610Y-129071986D01*
X125292692Y-129419132D01*
X125102952Y-129657103D01*
X124971691Y-129762512D01*
X124850102Y-129749002D01*
X124628445Y-129675892D01*
X124353465Y-129558746D01*
X124344545Y-129554546D01*
X124344545Y-125456490D01*
X124300706Y-125363405D01*
X124146623Y-125361159D01*
X124128776Y-125364422D01*
X123907011Y-125338945D01*
X123713128Y-125210310D01*
X123607755Y-125023790D01*
X123602337Y-124971299D01*
X123674303Y-124776398D01*
X123848393Y-124622991D01*
X124061896Y-124558309D01*
X124139632Y-124566645D01*
X124295982Y-124579616D01*
X124344279Y-124497533D01*
X124344545Y-124485434D01*
X124304247Y-124399720D01*
X124160303Y-124359936D01*
X123973441Y-124352792D01*
X123619195Y-124407653D01*
X123388088Y-124571882D01*
X123280717Y-124844956D01*
X123272467Y-124971299D01*
X123334642Y-125283869D01*
X123520769Y-125487787D01*
X123830252Y-125582526D01*
X123973441Y-125589805D01*
X124212962Y-125575515D01*
X124324243Y-125524291D01*
X124344545Y-125456490D01*
X124344545Y-129554546D01*
X124338315Y-129551614D01*
X123782041Y-129351938D01*
X123251238Y-129302886D01*
X123025065Y-129344843D01*
X123025065Y-124971299D01*
X123021169Y-124655064D01*
X123003406Y-124469516D01*
X122962661Y-124380476D01*
X122889819Y-124353762D01*
X122860129Y-124352792D01*
X122754651Y-124378769D01*
X122706125Y-124485106D01*
X122694414Y-124703279D01*
X122693634Y-125053766D01*
X122483571Y-124703279D01*
X122315995Y-124469431D01*
X122160269Y-124365267D01*
X122072014Y-124352792D01*
X121969505Y-124361063D01*
X121909414Y-124409024D01*
X121880429Y-124531397D01*
X121871238Y-124762906D01*
X121870519Y-124971299D01*
X121874415Y-125287533D01*
X121892178Y-125473081D01*
X121932923Y-125562122D01*
X122005765Y-125588835D01*
X122035454Y-125589805D01*
X122140932Y-125563829D01*
X122189459Y-125457492D01*
X122201169Y-125239318D01*
X122201950Y-124888831D01*
X122412012Y-125239318D01*
X122579588Y-125473167D01*
X122735315Y-125577330D01*
X122823570Y-125589805D01*
X122926078Y-125581535D01*
X122986169Y-125533574D01*
X123015154Y-125411200D01*
X123024345Y-125179692D01*
X123025065Y-124971299D01*
X123025065Y-129344843D01*
X122707590Y-129403738D01*
X122406558Y-129515415D01*
X122130534Y-129630832D01*
X121904037Y-129721797D01*
X121788052Y-129764513D01*
X121671124Y-129720399D01*
X121623116Y-129679033D01*
X121623116Y-124971299D01*
X121558066Y-124658062D01*
X121368853Y-124450622D01*
X121064380Y-124357329D01*
X120963376Y-124352792D01*
X120629257Y-124413777D01*
X120407988Y-124591165D01*
X120308475Y-124876608D01*
X120303636Y-124971299D01*
X120368686Y-125284536D01*
X120557900Y-125491975D01*
X120862373Y-125585269D01*
X120963376Y-125589805D01*
X121297347Y-125531492D01*
X121458181Y-125424870D01*
X121592055Y-125187030D01*
X121623116Y-124971299D01*
X121623116Y-129679033D01*
X121472824Y-129549536D01*
X121204180Y-129261799D01*
X121128311Y-129173924D01*
X120820139Y-128802270D01*
X120557799Y-128458429D01*
X120319659Y-128108116D01*
X120221168Y-127944614D01*
X120221168Y-124765130D01*
X120182515Y-124549020D01*
X120049854Y-124419720D01*
X119798131Y-124360961D01*
X119586168Y-124352792D01*
X119149090Y-124352792D01*
X119149090Y-124971299D01*
X119152986Y-125287533D01*
X119170749Y-125473081D01*
X119211494Y-125562122D01*
X119284336Y-125588835D01*
X119314026Y-125589805D01*
X119443361Y-125541485D01*
X119478961Y-125383637D01*
X119502327Y-125241227D01*
X119605269Y-125185232D01*
X119751103Y-125177468D01*
X120029350Y-125129793D01*
X120181932Y-124980235D01*
X120221168Y-124765130D01*
X120221168Y-127944614D01*
X120084084Y-127717046D01*
X119829442Y-127250935D01*
X119534100Y-126675499D01*
X119465195Y-126538182D01*
X119262554Y-126135996D01*
X119082532Y-125783910D01*
X118939373Y-125509385D01*
X118847322Y-125339880D01*
X118823488Y-125301169D01*
X118710287Y-125033262D01*
X118719598Y-124726701D01*
X118797920Y-124532928D01*
X118978246Y-124300761D01*
X119219229Y-124067825D01*
X119460117Y-123889418D01*
X119561428Y-123837986D01*
X119674414Y-123766742D01*
X119879280Y-123613489D01*
X120142796Y-123403692D01*
X120328847Y-123249858D01*
X120711606Y-122943273D01*
X121096040Y-122660849D01*
X121454115Y-122420844D01*
X121757798Y-122241518D01*
X121979055Y-122141129D01*
X122054077Y-122126169D01*
X122197245Y-122183013D01*
X122321204Y-122287915D01*
X122391177Y-122376911D01*
X122421535Y-122473628D01*
X122410852Y-122618694D01*
X122357698Y-122852739D01*
X122292752Y-123097589D01*
X122187923Y-123480459D01*
X122126300Y-123752087D01*
X122127106Y-123931449D01*
X122209564Y-124037520D01*
X122392895Y-124089274D01*
X122696322Y-124105686D01*
X123139068Y-124105733D01*
X123313701Y-124105390D01*
X123806616Y-124101848D01*
X124153601Y-124090121D01*
X124373529Y-124068554D01*
X124485275Y-124035495D01*
X124509480Y-124000648D01*
X124488521Y-123874660D01*
X124433133Y-123637674D01*
X124354548Y-123337181D01*
X124340407Y-123285787D01*
X124233088Y-122839153D01*
X124198894Y-122525369D01*
X124238676Y-122329028D01*
X124353285Y-122234721D01*
X124398992Y-122224488D01*
X124610553Y-122255090D01*
X124929874Y-122383811D01*
X125339801Y-122601071D01*
X125823175Y-122897287D01*
X126362841Y-123262878D01*
X126715487Y-123518187D01*
X127119546Y-123822697D01*
X127404754Y-124051510D01*
X127588878Y-124221333D01*
X127689689Y-124348872D01*
X127724955Y-124450833D01*
X127725714Y-124467979D01*
X127725714Y-124467979D01*
X127725714Y-124467979D01*
G37*
X127725714Y-124467979D02*
X127688746Y-124674891D01*
X127595012Y-124959800D01*
X127470272Y-125257897D01*
X127340281Y-125504374D01*
X127313376Y-125542413D01*
X127313376Y-124971299D01*
X127248326Y-124658062D01*
X127059112Y-124450622D01*
X126754639Y-124357329D01*
X126653636Y-124352792D01*
X126319516Y-124413777D01*
X126098248Y-124591165D01*
X125998734Y-124876608D01*
X125993896Y-124971299D01*
X126058946Y-125284536D01*
X126248159Y-125491975D01*
X126552633Y-125585269D01*
X126653636Y-125589805D01*
X126987606Y-125531492D01*
X127148441Y-125424870D01*
X127282315Y-125187030D01*
X127313376Y-124971299D01*
X127313376Y-125542413D01*
X127279856Y-125589805D01*
X127203749Y-125716925D01*
X127085220Y-125956365D01*
X126943792Y-126267585D01*
X126862876Y-126455714D01*
X126611635Y-127024272D01*
X126339718Y-127591808D01*
X126059494Y-128136693D01*
X125783334Y-128637296D01*
X125746493Y-128698955D01*
X125746493Y-124971299D01*
X125742598Y-124655064D01*
X125724834Y-124469516D01*
X125684089Y-124380476D01*
X125611247Y-124353762D01*
X125581558Y-124352792D01*
X125460831Y-124391671D01*
X125418325Y-124536331D01*
X125416623Y-124600195D01*
X125396189Y-124775430D01*
X125299798Y-124840018D01*
X125169220Y-124847598D01*
X124993985Y-124827163D01*
X124929397Y-124730773D01*
X124921818Y-124600195D01*
X124895898Y-124419104D01*
X124799459Y-124355345D01*
X124756883Y-124352792D01*
X124672553Y-124367401D01*
X124623074Y-124434012D01*
X124599330Y-124586807D01*
X124592206Y-124859964D01*
X124591948Y-124971299D01*
X124595843Y-125287533D01*
X124613606Y-125473081D01*
X124654351Y-125562122D01*
X124727193Y-125588835D01*
X124756883Y-125589805D01*
X124870559Y-125557518D01*
X124916426Y-125431472D01*
X124921818Y-125301169D01*
X124935609Y-125107245D01*
X125005564Y-125027706D01*
X125169220Y-125012533D01*
X125335441Y-125028623D01*
X125403617Y-125110237D01*
X125416623Y-125301169D01*
X125435073Y-125500103D01*
X125507099Y-125580370D01*
X125581558Y-125589805D01*
X125665887Y-125575197D01*
X125715367Y-125508586D01*
X125739111Y-125355791D01*
X125746234Y-125082634D01*
X125746493Y-124971299D01*
X125746493Y-128698955D01*
X125523610Y-129071986D01*
X125292692Y-129419132D01*
X125102952Y-129657103D01*
X124971691Y-129762512D01*
X124850102Y-129749002D01*
X124628445Y-129675892D01*
X124353465Y-129558746D01*
X124344545Y-129554546D01*
X124344545Y-125456490D01*
X124300706Y-125363405D01*
X124146623Y-125361159D01*
X124128776Y-125364422D01*
X123907011Y-125338945D01*
X123713128Y-125210310D01*
X123607755Y-125023790D01*
X123602337Y-124971299D01*
X123674303Y-124776398D01*
X123848393Y-124622991D01*
X124061896Y-124558309D01*
X124139632Y-124566645D01*
X124295982Y-124579616D01*
X124344279Y-124497533D01*
X124344545Y-124485434D01*
X124304247Y-124399720D01*
X124160303Y-124359936D01*
X123973441Y-124352792D01*
X123619195Y-124407653D01*
X123388088Y-124571882D01*
X123280717Y-124844956D01*
X123272467Y-124971299D01*
X123334642Y-125283869D01*
X123520769Y-125487787D01*
X123830252Y-125582526D01*
X123973441Y-125589805D01*
X124212962Y-125575515D01*
X124324243Y-125524291D01*
X124344545Y-125456490D01*
X124344545Y-129554546D01*
X124338315Y-129551614D01*
X123782041Y-129351938D01*
X123251238Y-129302886D01*
X123025065Y-129344843D01*
X123025065Y-124971299D01*
X123021169Y-124655064D01*
X123003406Y-124469516D01*
X122962661Y-124380476D01*
X122889819Y-124353762D01*
X122860129Y-124352792D01*
X122754651Y-124378769D01*
X122706125Y-124485106D01*
X122694414Y-124703279D01*
X122693634Y-125053766D01*
X122483571Y-124703279D01*
X122315995Y-124469431D01*
X122160269Y-124365267D01*
X122072014Y-124352792D01*
X121969505Y-124361063D01*
X121909414Y-124409024D01*
X121880429Y-124531397D01*
X121871238Y-124762906D01*
X121870519Y-124971299D01*
X121874415Y-125287533D01*
X121892178Y-125473081D01*
X121932923Y-125562122D01*
X122005765Y-125588835D01*
X122035454Y-125589805D01*
X122140932Y-125563829D01*
X122189459Y-125457492D01*
X122201169Y-125239318D01*
X122201950Y-124888831D01*
X122412012Y-125239318D01*
X122579588Y-125473167D01*
X122735315Y-125577330D01*
X122823570Y-125589805D01*
X122926078Y-125581535D01*
X122986169Y-125533574D01*
X123015154Y-125411200D01*
X123024345Y-125179692D01*
X123025065Y-124971299D01*
X123025065Y-129344843D01*
X122707590Y-129403738D01*
X122406558Y-129515415D01*
X122130534Y-129630832D01*
X121904037Y-129721797D01*
X121788052Y-129764513D01*
X121671124Y-129720399D01*
X121623116Y-129679033D01*
X121623116Y-124971299D01*
X121558066Y-124658062D01*
X121368853Y-124450622D01*
X121064380Y-124357329D01*
X120963376Y-124352792D01*
X120629257Y-124413777D01*
X120407988Y-124591165D01*
X120308475Y-124876608D01*
X120303636Y-124971299D01*
X120368686Y-125284536D01*
X120557900Y-125491975D01*
X120862373Y-125585269D01*
X120963376Y-125589805D01*
X121297347Y-125531492D01*
X121458181Y-125424870D01*
X121592055Y-125187030D01*
X121623116Y-124971299D01*
X121623116Y-129679033D01*
X121472824Y-129549536D01*
X121204180Y-129261799D01*
X121128311Y-129173924D01*
X120820139Y-128802270D01*
X120557799Y-128458429D01*
X120319659Y-128108116D01*
X120221168Y-127944614D01*
X120221168Y-124765130D01*
X120182515Y-124549020D01*
X120049854Y-124419720D01*
X119798131Y-124360961D01*
X119586168Y-124352792D01*
X119149090Y-124352792D01*
X119149090Y-124971299D01*
X119152986Y-125287533D01*
X119170749Y-125473081D01*
X119211494Y-125562122D01*
X119284336Y-125588835D01*
X119314026Y-125589805D01*
X119443361Y-125541485D01*
X119478961Y-125383637D01*
X119502327Y-125241227D01*
X119605269Y-125185232D01*
X119751103Y-125177468D01*
X120029350Y-125129793D01*
X120181932Y-124980235D01*
X120221168Y-124765130D01*
X120221168Y-127944614D01*
X120084084Y-127717046D01*
X119829442Y-127250935D01*
X119534100Y-126675499D01*
X119465195Y-126538182D01*
X119262554Y-126135996D01*
X119082532Y-125783910D01*
X118939373Y-125509385D01*
X118847322Y-125339880D01*
X118823488Y-125301169D01*
X118710287Y-125033262D01*
X118719598Y-124726701D01*
X118797920Y-124532928D01*
X118978246Y-124300761D01*
X119219229Y-124067825D01*
X119460117Y-123889418D01*
X119561428Y-123837986D01*
X119674414Y-123766742D01*
X119879280Y-123613489D01*
X120142796Y-123403692D01*
X120328847Y-123249858D01*
X120711606Y-122943273D01*
X121096040Y-122660849D01*
X121454115Y-122420844D01*
X121757798Y-122241518D01*
X121979055Y-122141129D01*
X122054077Y-122126169D01*
X122197245Y-122183013D01*
X122321204Y-122287915D01*
X122391177Y-122376911D01*
X122421535Y-122473628D01*
X122410852Y-122618694D01*
X122357698Y-122852739D01*
X122292752Y-123097589D01*
X122187923Y-123480459D01*
X122126300Y-123752087D01*
X122127106Y-123931449D01*
X122209564Y-124037520D01*
X122392895Y-124089274D01*
X122696322Y-124105686D01*
X123139068Y-124105733D01*
X123313701Y-124105390D01*
X123806616Y-124101848D01*
X124153601Y-124090121D01*
X124373529Y-124068554D01*
X124485275Y-124035495D01*
X124509480Y-124000648D01*
X124488521Y-123874660D01*
X124433133Y-123637674D01*
X124354548Y-123337181D01*
X124340407Y-123285787D01*
X124233088Y-122839153D01*
X124198894Y-122525369D01*
X124238676Y-122329028D01*
X124353285Y-122234721D01*
X124398992Y-122224488D01*
X124610553Y-122255090D01*
X124929874Y-122383811D01*
X125339801Y-122601071D01*
X125823175Y-122897287D01*
X126362841Y-123262878D01*
X126715487Y-123518187D01*
X127119546Y-123822697D01*
X127404754Y-124051510D01*
X127588878Y-124221333D01*
X127689689Y-124348872D01*
X127724955Y-124450833D01*
X127725714Y-124467979D01*
X127725714Y-124467979D01*
G36*
X124213542Y-121358681D02*
X124085402Y-121705555D01*
X123869417Y-121982770D01*
X123753302Y-122112644D01*
X123698034Y-122225302D01*
X123696066Y-122374019D01*
X123739854Y-122612070D01*
X123764294Y-122724978D01*
X123848312Y-123121812D01*
X123886110Y-123385578D01*
X123865383Y-123544618D01*
X123773822Y-123627277D01*
X123599122Y-123661896D01*
X123351440Y-123675813D01*
X123066450Y-123679805D01*
X122850118Y-123666737D01*
X122753550Y-123641451D01*
X122699692Y-123476732D01*
X122723559Y-123171316D01*
X122824776Y-122729778D01*
X122829985Y-122710942D01*
X122964775Y-122226128D01*
X122701192Y-121990596D01*
X122475647Y-121692415D01*
X122381576Y-121348176D01*
X122414480Y-120998477D01*
X122569862Y-120683915D01*
X122843223Y-120445085D01*
X122874290Y-120428262D01*
X123223719Y-120331095D01*
X123570075Y-120379270D01*
X123877140Y-120556559D01*
X124108691Y-120846735D01*
X124179692Y-121013105D01*
X124213542Y-121358681D01*
X124213542Y-121358681D01*
X124213542Y-121358681D01*
G37*
X124213542Y-121358681D02*
X124085402Y-121705555D01*
X123869417Y-121982770D01*
X123753302Y-122112644D01*
X123698034Y-122225302D01*
X123696066Y-122374019D01*
X123739854Y-122612070D01*
X123764294Y-122724978D01*
X123848312Y-123121812D01*
X123886110Y-123385578D01*
X123865383Y-123544618D01*
X123773822Y-123627277D01*
X123599122Y-123661896D01*
X123351440Y-123675813D01*
X123066450Y-123679805D01*
X122850118Y-123666737D01*
X122753550Y-123641451D01*
X122699692Y-123476732D01*
X122723559Y-123171316D01*
X122824776Y-122729778D01*
X122829985Y-122710942D01*
X122964775Y-122226128D01*
X122701192Y-121990596D01*
X122475647Y-121692415D01*
X122381576Y-121348176D01*
X122414480Y-120998477D01*
X122569862Y-120683915D01*
X122843223Y-120445085D01*
X122874290Y-120428262D01*
X123223719Y-120331095D01*
X123570075Y-120379270D01*
X123877140Y-120556559D01*
X124108691Y-120846735D01*
X124179692Y-121013105D01*
X124213542Y-121358681D01*
X124213542Y-121358681D01*
G36*
X119869921Y-124773422D02*
X119808831Y-124888831D01*
X119652394Y-125007559D01*
X119533056Y-124972350D01*
X119479586Y-124793993D01*
X119478961Y-124765130D01*
X119523119Y-124571179D01*
X119636417Y-124519150D01*
X119790085Y-124619830D01*
X119808831Y-124641429D01*
X119869921Y-124773422D01*
X119869921Y-124773422D01*
X119869921Y-124773422D01*
G37*
X119869921Y-124773422D02*
X119808831Y-124888831D01*
X119652394Y-125007559D01*
X119533056Y-124972350D01*
X119479586Y-124793993D01*
X119478961Y-124765130D01*
X119523119Y-124571179D01*
X119636417Y-124519150D01*
X119790085Y-124619830D01*
X119808831Y-124641429D01*
X119869921Y-124773422D01*
X119869921Y-124773422D01*
G36*
X121278176Y-124948300D02*
X121254806Y-125088268D01*
X121183355Y-125209199D01*
X121061495Y-125360484D01*
X120964528Y-125424848D01*
X120963376Y-125424870D01*
X120867357Y-125362542D01*
X120745448Y-125212317D01*
X120743397Y-125209199D01*
X120652594Y-125038160D01*
X120663440Y-124897983D01*
X120724042Y-124776244D01*
X120846518Y-124621105D01*
X120963376Y-124558961D01*
X121083963Y-124624490D01*
X121202711Y-124776244D01*
X121278176Y-124948300D01*
X121278176Y-124948300D01*
X121278176Y-124948300D01*
G37*
X121278176Y-124948300D02*
X121254806Y-125088268D01*
X121183355Y-125209199D01*
X121061495Y-125360484D01*
X120964528Y-125424848D01*
X120963376Y-125424870D01*
X120867357Y-125362542D01*
X120745448Y-125212317D01*
X120743397Y-125209199D01*
X120652594Y-125038160D01*
X120663440Y-124897983D01*
X120724042Y-124776244D01*
X120846518Y-124621105D01*
X120963376Y-124558961D01*
X121083963Y-124624490D01*
X121202711Y-124776244D01*
X121278176Y-124948300D01*
X121278176Y-124948300D01*
G36*
X126968435Y-124948300D02*
X126945065Y-125088268D01*
X126873615Y-125209199D01*
X126751755Y-125360484D01*
X126654788Y-125424848D01*
X126653636Y-125424870D01*
X126557616Y-125362542D01*
X126435708Y-125212317D01*
X126433657Y-125209199D01*
X126342854Y-125038160D01*
X126353699Y-124897983D01*
X126414301Y-124776244D01*
X126536778Y-124621105D01*
X126653636Y-124558961D01*
X126774223Y-124624490D01*
X126892971Y-124776244D01*
X126968435Y-124948300D01*
X126968435Y-124948300D01*
X126968435Y-124948300D01*
G37*
X126968435Y-124948300D02*
X126945065Y-125088268D01*
X126873615Y-125209199D01*
X126751755Y-125360484D01*
X126654788Y-125424848D01*
X126653636Y-125424870D01*
X126557616Y-125362542D01*
X126435708Y-125212317D01*
X126433657Y-125209199D01*
X126342854Y-125038160D01*
X126353699Y-124897983D01*
X126414301Y-124776244D01*
X126536778Y-124621105D01*
X126653636Y-124558961D01*
X126774223Y-124624490D01*
X126892971Y-124776244D01*
X126968435Y-124948300D01*
X126968435Y-124948300D01*
D18*
X133545942Y-77588533D02*
X133850742Y-78299733D01*
X133850742Y-77588533D02*
X133545942Y-78299733D01*
X134003143Y-78096533D02*
X134220857Y-78096533D01*
X133959600Y-78299733D02*
X134112000Y-77588533D01*
X134264400Y-78299733D01*
X134656286Y-78299733D02*
X134395029Y-78299733D01*
X134525657Y-78299733D02*
X134525657Y-77588533D01*
X134482114Y-77690133D01*
X134438572Y-77757867D01*
X134395029Y-77791733D01*
D19*
X139446096Y-127770000D02*
X139350858Y-127722381D01*
X139208001Y-127722381D01*
X139065143Y-127770000D01*
X138969905Y-127865238D01*
X138922286Y-127960476D01*
X138874667Y-128150952D01*
X138874667Y-128293810D01*
X138922286Y-128484286D01*
X138969905Y-128579524D01*
X139065143Y-128674762D01*
X139208001Y-128722381D01*
X139303239Y-128722381D01*
X139446096Y-128674762D01*
X139493715Y-128627143D01*
X139493715Y-128293810D01*
X139303239Y-128293810D01*
X139922286Y-128722381D02*
X139922286Y-127722381D01*
X140493715Y-128722381D01*
X140493715Y-127722381D01*
X140969905Y-128722381D02*
X140969905Y-127722381D01*
X141208000Y-127722381D01*
X141350858Y-127770000D01*
X141446096Y-127865238D01*
X141493715Y-127960476D01*
X141541334Y-128150952D01*
X141541334Y-128293810D01*
X141493715Y-128484286D01*
X141446096Y-128579524D01*
X141350858Y-128674762D01*
X141208000Y-128722381D01*
X140969905Y-128722381D01*
X139446096Y-125230000D02*
X139350858Y-125182381D01*
X139208001Y-125182381D01*
X139065143Y-125230000D01*
X138969905Y-125325238D01*
X138922286Y-125420476D01*
X138874667Y-125610952D01*
X138874667Y-125753810D01*
X138922286Y-125944286D01*
X138969905Y-126039524D01*
X139065143Y-126134762D01*
X139208001Y-126182381D01*
X139303239Y-126182381D01*
X139446096Y-126134762D01*
X139493715Y-126087143D01*
X139493715Y-125753810D01*
X139303239Y-125753810D01*
X139922286Y-126182381D02*
X139922286Y-125182381D01*
X140493715Y-126182381D01*
X140493715Y-125182381D01*
X140969905Y-126182381D02*
X140969905Y-125182381D01*
X141208000Y-125182381D01*
X141350858Y-125230000D01*
X141446096Y-125325238D01*
X141493715Y-125420476D01*
X141541334Y-125610952D01*
X141541334Y-125753810D01*
X141493715Y-125944286D01*
X141446096Y-126039524D01*
X141350858Y-126134762D01*
X141208000Y-126182381D01*
X140969905Y-126182381D01*
D20*
X138793714Y-122697143D02*
X139308000Y-122697143D01*
X139050857Y-123597143D02*
X139050857Y-122697143D01*
X139393714Y-123682857D02*
X140079428Y-123682857D01*
X140593714Y-123125714D02*
X140293714Y-123125714D01*
X140293714Y-123597143D02*
X140293714Y-122697143D01*
X140722285Y-122697143D01*
X141536571Y-123597143D02*
X141022286Y-123597143D01*
X141279428Y-123597143D02*
X141279428Y-122697143D01*
X141193714Y-122825714D01*
X141108000Y-122911429D01*
X141022286Y-122954286D01*
X138729429Y-120157143D02*
X139243715Y-120157143D01*
X138986572Y-121057143D02*
X138986572Y-120157143D01*
X139329429Y-121142857D02*
X140015143Y-121142857D01*
X140743714Y-120971429D02*
X140700857Y-121014286D01*
X140572286Y-121057143D01*
X140486572Y-121057143D01*
X140358000Y-121014286D01*
X140272286Y-120928571D01*
X140229429Y-120842857D01*
X140186572Y-120671429D01*
X140186572Y-120542857D01*
X140229429Y-120371429D01*
X140272286Y-120285714D01*
X140358000Y-120200000D01*
X140486572Y-120157143D01*
X140572286Y-120157143D01*
X140700857Y-120200000D01*
X140743714Y-120242857D01*
X141086572Y-120242857D02*
X141129429Y-120200000D01*
X141215143Y-120157143D01*
X141429429Y-120157143D01*
X141515143Y-120200000D01*
X141558000Y-120242857D01*
X141600857Y-120328571D01*
X141600857Y-120414286D01*
X141558000Y-120542857D01*
X141043714Y-121057143D01*
X141600857Y-121057143D01*
D19*
X139446096Y-117610000D02*
X139350858Y-117562381D01*
X139208001Y-117562381D01*
X139065143Y-117610000D01*
X138969905Y-117705238D01*
X138922286Y-117800476D01*
X138874667Y-117990952D01*
X138874667Y-118133810D01*
X138922286Y-118324286D01*
X138969905Y-118419524D01*
X139065143Y-118514762D01*
X139208001Y-118562381D01*
X139303239Y-118562381D01*
X139446096Y-118514762D01*
X139493715Y-118467143D01*
X139493715Y-118133810D01*
X139303239Y-118133810D01*
X139922286Y-118562381D02*
X139922286Y-117562381D01*
X140493715Y-118562381D01*
X140493715Y-117562381D01*
X140969905Y-118562381D02*
X140969905Y-117562381D01*
X141208000Y-117562381D01*
X141350858Y-117610000D01*
X141446096Y-117705238D01*
X141493715Y-117800476D01*
X141541334Y-117990952D01*
X141541334Y-118133810D01*
X141493715Y-118324286D01*
X141446096Y-118419524D01*
X141350858Y-118514762D01*
X141208000Y-118562381D01*
X140969905Y-118562381D01*
X139192096Y-115070000D02*
X139096858Y-115022381D01*
X138954001Y-115022381D01*
X138811143Y-115070000D01*
X138715905Y-115165238D01*
X138668286Y-115260476D01*
X138620667Y-115450952D01*
X138620667Y-115593810D01*
X138668286Y-115784286D01*
X138715905Y-115879524D01*
X138811143Y-115974762D01*
X138954001Y-116022381D01*
X139049239Y-116022381D01*
X139192096Y-115974762D01*
X139239715Y-115927143D01*
X139239715Y-115593810D01*
X139049239Y-115593810D01*
X139668286Y-116022381D02*
X139668286Y-115022381D01*
X140239715Y-116022381D01*
X140239715Y-115022381D01*
X140715905Y-116022381D02*
X140715905Y-115022381D01*
X140954000Y-115022381D01*
X141096858Y-115070000D01*
X141192096Y-115165238D01*
X141239715Y-115260476D01*
X141287334Y-115450952D01*
X141287334Y-115593810D01*
X141239715Y-115784286D01*
X141192096Y-115879524D01*
X141096858Y-115974762D01*
X140954000Y-116022381D01*
X140715905Y-116022381D01*
X139446096Y-112530000D02*
X139350858Y-112482381D01*
X139208001Y-112482381D01*
X139065143Y-112530000D01*
X138969905Y-112625238D01*
X138922286Y-112720476D01*
X138874667Y-112910952D01*
X138874667Y-113053810D01*
X138922286Y-113244286D01*
X138969905Y-113339524D01*
X139065143Y-113434762D01*
X139208001Y-113482381D01*
X139303239Y-113482381D01*
X139446096Y-113434762D01*
X139493715Y-113387143D01*
X139493715Y-113053810D01*
X139303239Y-113053810D01*
X139922286Y-113482381D02*
X139922286Y-112482381D01*
X140493715Y-113482381D01*
X140493715Y-112482381D01*
X140969905Y-113482381D02*
X140969905Y-112482381D01*
X141208000Y-112482381D01*
X141350858Y-112530000D01*
X141446096Y-112625238D01*
X141493715Y-112720476D01*
X141541334Y-112910952D01*
X141541334Y-113053810D01*
X141493715Y-113244286D01*
X141446096Y-113339524D01*
X141350858Y-113434762D01*
X141208000Y-113482381D01*
X140969905Y-113482381D01*
X139446096Y-109990000D02*
X139350858Y-109942381D01*
X139208001Y-109942381D01*
X139065143Y-109990000D01*
X138969905Y-110085238D01*
X138922286Y-110180476D01*
X138874667Y-110370952D01*
X138874667Y-110513810D01*
X138922286Y-110704286D01*
X138969905Y-110799524D01*
X139065143Y-110894762D01*
X139208001Y-110942381D01*
X139303239Y-110942381D01*
X139446096Y-110894762D01*
X139493715Y-110847143D01*
X139493715Y-110513810D01*
X139303239Y-110513810D01*
X139922286Y-110942381D02*
X139922286Y-109942381D01*
X140493715Y-110942381D01*
X140493715Y-109942381D01*
X140969905Y-110942381D02*
X140969905Y-109942381D01*
X141208000Y-109942381D01*
X141350858Y-109990000D01*
X141446096Y-110085238D01*
X141493715Y-110180476D01*
X141541334Y-110370952D01*
X141541334Y-110513810D01*
X141493715Y-110704286D01*
X141446096Y-110799524D01*
X141350858Y-110894762D01*
X141208000Y-110942381D01*
X140969905Y-110942381D01*
X139446096Y-107450000D02*
X139350858Y-107402381D01*
X139208001Y-107402381D01*
X139065143Y-107450000D01*
X138969905Y-107545238D01*
X138922286Y-107640476D01*
X138874667Y-107830952D01*
X138874667Y-107973810D01*
X138922286Y-108164286D01*
X138969905Y-108259524D01*
X139065143Y-108354762D01*
X139208001Y-108402381D01*
X139303239Y-108402381D01*
X139446096Y-108354762D01*
X139493715Y-108307143D01*
X139493715Y-107973810D01*
X139303239Y-107973810D01*
X139922286Y-108402381D02*
X139922286Y-107402381D01*
X140493715Y-108402381D01*
X140493715Y-107402381D01*
X140969905Y-108402381D02*
X140969905Y-107402381D01*
X141208000Y-107402381D01*
X141350858Y-107450000D01*
X141446096Y-107545238D01*
X141493715Y-107640476D01*
X141541334Y-107830952D01*
X141541334Y-107973810D01*
X141493715Y-108164286D01*
X141446096Y-108259524D01*
X141350858Y-108354762D01*
X141208000Y-108402381D01*
X140969905Y-108402381D01*
X139446096Y-104910000D02*
X139350858Y-104862381D01*
X139208001Y-104862381D01*
X139065143Y-104910000D01*
X138969905Y-105005238D01*
X138922286Y-105100476D01*
X138874667Y-105290952D01*
X138874667Y-105433810D01*
X138922286Y-105624286D01*
X138969905Y-105719524D01*
X139065143Y-105814762D01*
X139208001Y-105862381D01*
X139303239Y-105862381D01*
X139446096Y-105814762D01*
X139493715Y-105767143D01*
X139493715Y-105433810D01*
X139303239Y-105433810D01*
X139922286Y-105862381D02*
X139922286Y-104862381D01*
X140493715Y-105862381D01*
X140493715Y-104862381D01*
X140969905Y-105862381D02*
X140969905Y-104862381D01*
X141208000Y-104862381D01*
X141350858Y-104910000D01*
X141446096Y-105005238D01*
X141493715Y-105100476D01*
X141541334Y-105290952D01*
X141541334Y-105433810D01*
X141493715Y-105624286D01*
X141446096Y-105719524D01*
X141350858Y-105814762D01*
X141208000Y-105862381D01*
X140969905Y-105862381D01*
X139446096Y-102370000D02*
X139350858Y-102322381D01*
X139208001Y-102322381D01*
X139065143Y-102370000D01*
X138969905Y-102465238D01*
X138922286Y-102560476D01*
X138874667Y-102750952D01*
X138874667Y-102893810D01*
X138922286Y-103084286D01*
X138969905Y-103179524D01*
X139065143Y-103274762D01*
X139208001Y-103322381D01*
X139303239Y-103322381D01*
X139446096Y-103274762D01*
X139493715Y-103227143D01*
X139493715Y-102893810D01*
X139303239Y-102893810D01*
X139922286Y-103322381D02*
X139922286Y-102322381D01*
X140493715Y-103322381D01*
X140493715Y-102322381D01*
X140969905Y-103322381D02*
X140969905Y-102322381D01*
X141208000Y-102322381D01*
X141350858Y-102370000D01*
X141446096Y-102465238D01*
X141493715Y-102560476D01*
X141541334Y-102750952D01*
X141541334Y-102893810D01*
X141493715Y-103084286D01*
X141446096Y-103179524D01*
X141350858Y-103274762D01*
X141208000Y-103322381D01*
X140969905Y-103322381D01*
D21*
X139303239Y-99950000D02*
X139230858Y-99913810D01*
X139122286Y-99913810D01*
X139013715Y-99950000D01*
X138941334Y-100022381D01*
X138905143Y-100094762D01*
X138868953Y-100239524D01*
X138868953Y-100348095D01*
X138905143Y-100492857D01*
X138941334Y-100565238D01*
X139013715Y-100637619D01*
X139122286Y-100673810D01*
X139194667Y-100673810D01*
X139303239Y-100637619D01*
X139339429Y-100601429D01*
X139339429Y-100348095D01*
X139194667Y-100348095D01*
X139665143Y-100673810D02*
X139665143Y-99913810D01*
X140099429Y-100673810D01*
X140099429Y-99913810D01*
X140461333Y-100673810D02*
X140461333Y-99913810D01*
X140642286Y-99913810D01*
X140750857Y-99950000D01*
X140823238Y-100022381D01*
X140859429Y-100094762D01*
X140895619Y-100239524D01*
X140895619Y-100348095D01*
X140859429Y-100492857D01*
X140823238Y-100565238D01*
X140750857Y-100637619D01*
X140642286Y-100673810D01*
X140461333Y-100673810D01*
X141185143Y-100456667D02*
X141547048Y-100456667D01*
X141112762Y-100673810D02*
X141366095Y-99913810D01*
X141619429Y-100673810D01*
X139303239Y-97410000D02*
X139230858Y-97373810D01*
X139122286Y-97373810D01*
X139013715Y-97410000D01*
X138941334Y-97482381D01*
X138905143Y-97554762D01*
X138868953Y-97699524D01*
X138868953Y-97808095D01*
X138905143Y-97952857D01*
X138941334Y-98025238D01*
X139013715Y-98097619D01*
X139122286Y-98133810D01*
X139194667Y-98133810D01*
X139303239Y-98097619D01*
X139339429Y-98061429D01*
X139339429Y-97808095D01*
X139194667Y-97808095D01*
X139665143Y-98133810D02*
X139665143Y-97373810D01*
X140099429Y-98133810D01*
X140099429Y-97373810D01*
X140461333Y-98133810D02*
X140461333Y-97373810D01*
X140642286Y-97373810D01*
X140750857Y-97410000D01*
X140823238Y-97482381D01*
X140859429Y-97554762D01*
X140895619Y-97699524D01*
X140895619Y-97808095D01*
X140859429Y-97952857D01*
X140823238Y-98025238D01*
X140750857Y-98097619D01*
X140642286Y-98133810D01*
X140461333Y-98133810D01*
X141185143Y-97916667D02*
X141547048Y-97916667D01*
X141112762Y-98133810D02*
X141366095Y-97373810D01*
X141619429Y-98133810D01*
X139303239Y-94870000D02*
X139230858Y-94833810D01*
X139122286Y-94833810D01*
X139013715Y-94870000D01*
X138941334Y-94942381D01*
X138905143Y-95014762D01*
X138868953Y-95159524D01*
X138868953Y-95268095D01*
X138905143Y-95412857D01*
X138941334Y-95485238D01*
X139013715Y-95557619D01*
X139122286Y-95593810D01*
X139194667Y-95593810D01*
X139303239Y-95557619D01*
X139339429Y-95521429D01*
X139339429Y-95268095D01*
X139194667Y-95268095D01*
X139665143Y-95593810D02*
X139665143Y-94833810D01*
X140099429Y-95593810D01*
X140099429Y-94833810D01*
X140461333Y-95593810D02*
X140461333Y-94833810D01*
X140642286Y-94833810D01*
X140750857Y-94870000D01*
X140823238Y-94942381D01*
X140859429Y-95014762D01*
X140895619Y-95159524D01*
X140895619Y-95268095D01*
X140859429Y-95412857D01*
X140823238Y-95485238D01*
X140750857Y-95557619D01*
X140642286Y-95593810D01*
X140461333Y-95593810D01*
X141185143Y-95376667D02*
X141547048Y-95376667D01*
X141112762Y-95593810D02*
X141366095Y-94833810D01*
X141619429Y-95593810D01*
X139303239Y-92330000D02*
X139230858Y-92293810D01*
X139122286Y-92293810D01*
X139013715Y-92330000D01*
X138941334Y-92402381D01*
X138905143Y-92474762D01*
X138868953Y-92619524D01*
X138868953Y-92728095D01*
X138905143Y-92872857D01*
X138941334Y-92945238D01*
X139013715Y-93017619D01*
X139122286Y-93053810D01*
X139194667Y-93053810D01*
X139303239Y-93017619D01*
X139339429Y-92981429D01*
X139339429Y-92728095D01*
X139194667Y-92728095D01*
X139665143Y-93053810D02*
X139665143Y-92293810D01*
X140099429Y-93053810D01*
X140099429Y-92293810D01*
X140461333Y-93053810D02*
X140461333Y-92293810D01*
X140642286Y-92293810D01*
X140750857Y-92330000D01*
X140823238Y-92402381D01*
X140859429Y-92474762D01*
X140895619Y-92619524D01*
X140895619Y-92728095D01*
X140859429Y-92872857D01*
X140823238Y-92945238D01*
X140750857Y-93017619D01*
X140642286Y-93053810D01*
X140461333Y-93053810D01*
X141185143Y-92836667D02*
X141547048Y-92836667D01*
X141112762Y-93053810D02*
X141366095Y-92293810D01*
X141619429Y-93053810D01*
X139303239Y-89790000D02*
X139230858Y-89753810D01*
X139122286Y-89753810D01*
X139013715Y-89790000D01*
X138941334Y-89862381D01*
X138905143Y-89934762D01*
X138868953Y-90079524D01*
X138868953Y-90188095D01*
X138905143Y-90332857D01*
X138941334Y-90405238D01*
X139013715Y-90477619D01*
X139122286Y-90513810D01*
X139194667Y-90513810D01*
X139303239Y-90477619D01*
X139339429Y-90441429D01*
X139339429Y-90188095D01*
X139194667Y-90188095D01*
X139665143Y-90513810D02*
X139665143Y-89753810D01*
X140099429Y-90513810D01*
X140099429Y-89753810D01*
X140461333Y-90513810D02*
X140461333Y-89753810D01*
X140642286Y-89753810D01*
X140750857Y-89790000D01*
X140823238Y-89862381D01*
X140859429Y-89934762D01*
X140895619Y-90079524D01*
X140895619Y-90188095D01*
X140859429Y-90332857D01*
X140823238Y-90405238D01*
X140750857Y-90477619D01*
X140642286Y-90513810D01*
X140461333Y-90513810D01*
X141185143Y-90296667D02*
X141547048Y-90296667D01*
X141112762Y-90513810D02*
X141366095Y-89753810D01*
X141619429Y-90513810D01*
X139303239Y-87250000D02*
X139230858Y-87213810D01*
X139122286Y-87213810D01*
X139013715Y-87250000D01*
X138941334Y-87322381D01*
X138905143Y-87394762D01*
X138868953Y-87539524D01*
X138868953Y-87648095D01*
X138905143Y-87792857D01*
X138941334Y-87865238D01*
X139013715Y-87937619D01*
X139122286Y-87973810D01*
X139194667Y-87973810D01*
X139303239Y-87937619D01*
X139339429Y-87901429D01*
X139339429Y-87648095D01*
X139194667Y-87648095D01*
X139665143Y-87973810D02*
X139665143Y-87213810D01*
X140099429Y-87973810D01*
X140099429Y-87213810D01*
X140461333Y-87973810D02*
X140461333Y-87213810D01*
X140642286Y-87213810D01*
X140750857Y-87250000D01*
X140823238Y-87322381D01*
X140859429Y-87394762D01*
X140895619Y-87539524D01*
X140895619Y-87648095D01*
X140859429Y-87792857D01*
X140823238Y-87865238D01*
X140750857Y-87937619D01*
X140642286Y-87973810D01*
X140461333Y-87973810D01*
X141185143Y-87756667D02*
X141547048Y-87756667D01*
X141112762Y-87973810D02*
X141366095Y-87213810D01*
X141619429Y-87973810D01*
D22*
X138791334Y-84796381D02*
X138910381Y-85796381D01*
X139005619Y-85082095D01*
X139100857Y-85796381D01*
X139219905Y-84796381D01*
X139386572Y-85510667D02*
X139624667Y-85510667D01*
X139338953Y-85796381D02*
X139505620Y-84796381D01*
X139672286Y-85796381D01*
X139838953Y-85796381D02*
X139838953Y-84796381D01*
X140124667Y-85796381D02*
X139910381Y-85224952D01*
X140124667Y-84796381D02*
X139838953Y-85367810D01*
X140338953Y-85272571D02*
X140505619Y-85272571D01*
X140577048Y-85796381D02*
X140338953Y-85796381D01*
X140338953Y-84796381D01*
X140577048Y-84796381D01*
X140791334Y-84796381D02*
X140791334Y-85605905D01*
X140815143Y-85701143D01*
X140838953Y-85748762D01*
X140886572Y-85796381D01*
X140981810Y-85796381D01*
X141029429Y-85748762D01*
X141053238Y-85701143D01*
X141077048Y-85605905D01*
X141077048Y-84796381D01*
X141315144Y-85796381D02*
X141315144Y-84796381D01*
X141505620Y-84796381D01*
X141553239Y-84844000D01*
X141577048Y-84891619D01*
X141600858Y-84986857D01*
X141600858Y-85129714D01*
X141577048Y-85224952D01*
X141553239Y-85272571D01*
X141505620Y-85320190D01*
X141315144Y-85320190D01*
D19*
X139446096Y-82558000D02*
X139350858Y-82510381D01*
X139208001Y-82510381D01*
X139065143Y-82558000D01*
X138969905Y-82653238D01*
X138922286Y-82748476D01*
X138874667Y-82938952D01*
X138874667Y-83081810D01*
X138922286Y-83272286D01*
X138969905Y-83367524D01*
X139065143Y-83462762D01*
X139208001Y-83510381D01*
X139303239Y-83510381D01*
X139446096Y-83462762D01*
X139493715Y-83415143D01*
X139493715Y-83081810D01*
X139303239Y-83081810D01*
X139922286Y-83510381D02*
X139922286Y-82510381D01*
X140493715Y-83510381D01*
X140493715Y-82510381D01*
X140969905Y-83510381D02*
X140969905Y-82510381D01*
X141208000Y-82510381D01*
X141350858Y-82558000D01*
X141446096Y-82653238D01*
X141493715Y-82748476D01*
X141541334Y-82938952D01*
X141541334Y-83081810D01*
X141493715Y-83272286D01*
X141446096Y-83367524D01*
X141350858Y-83462762D01*
X141208000Y-83510381D01*
X140969905Y-83510381D01*
X138922286Y-80081429D02*
X139684191Y-80081429D01*
X139303239Y-80462381D02*
X139303239Y-79700476D01*
X140636572Y-79462381D02*
X140160381Y-79462381D01*
X140112762Y-79938571D01*
X140160381Y-79890952D01*
X140255619Y-79843333D01*
X140493715Y-79843333D01*
X140588953Y-79890952D01*
X140636572Y-79938571D01*
X140684191Y-80033810D01*
X140684191Y-80271905D01*
X140636572Y-80367143D01*
X140588953Y-80414762D01*
X140493715Y-80462381D01*
X140255619Y-80462381D01*
X140160381Y-80414762D01*
X140112762Y-80367143D01*
X140969905Y-79462381D02*
X141303238Y-80462381D01*
X141636572Y-79462381D01*
X127984571Y-127722381D02*
X128556000Y-127722381D01*
X128270285Y-128722381D02*
X128270285Y-127722381D01*
X128651238Y-128817619D02*
X129413143Y-128817619D01*
X130222667Y-128627143D02*
X130175048Y-128674762D01*
X130032191Y-128722381D01*
X129936953Y-128722381D01*
X129794095Y-128674762D01*
X129698857Y-128579524D01*
X129651238Y-128484286D01*
X129603619Y-128293810D01*
X129603619Y-128150952D01*
X129651238Y-127960476D01*
X129698857Y-127865238D01*
X129794095Y-127770000D01*
X129936953Y-127722381D01*
X130032191Y-127722381D01*
X130175048Y-127770000D01*
X130222667Y-127817619D01*
X130841714Y-127722381D02*
X131032191Y-127722381D01*
X131127429Y-127770000D01*
X131222667Y-127865238D01*
X131270286Y-128055714D01*
X131270286Y-128389048D01*
X131222667Y-128579524D01*
X131127429Y-128674762D01*
X131032191Y-128722381D01*
X130841714Y-128722381D01*
X130746476Y-128674762D01*
X130651238Y-128579524D01*
X130603619Y-128389048D01*
X130603619Y-128055714D01*
X130651238Y-127865238D01*
X130746476Y-127770000D01*
X130841714Y-127722381D01*
X132175048Y-128722381D02*
X131698857Y-128722381D01*
X131698857Y-127722381D01*
X132698857Y-127722381D02*
X132794096Y-127722381D01*
X132889334Y-127770000D01*
X132936953Y-127817619D01*
X132984572Y-127912857D01*
X133032191Y-128103333D01*
X133032191Y-128341429D01*
X132984572Y-128531905D01*
X132936953Y-128627143D01*
X132889334Y-128674762D01*
X132794096Y-128722381D01*
X132698857Y-128722381D01*
X132603619Y-128674762D01*
X132556000Y-128627143D01*
X132508381Y-128531905D01*
X132460762Y-128341429D01*
X132460762Y-128103333D01*
X132508381Y-127912857D01*
X132556000Y-127817619D01*
X132603619Y-127770000D01*
X132698857Y-127722381D01*
X128595714Y-125182381D02*
X129167143Y-125182381D01*
X128881428Y-126182381D02*
X128881428Y-125182381D01*
X129262381Y-126277619D02*
X130024286Y-126277619D01*
X130595715Y-125658571D02*
X130262381Y-125658571D01*
X130262381Y-126182381D02*
X130262381Y-125182381D01*
X130738572Y-125182381D01*
X131119524Y-126182381D02*
X131119524Y-125182381D01*
X132071905Y-126182381D02*
X131595714Y-126182381D01*
X131595714Y-125182381D01*
X132357619Y-125277619D02*
X132405238Y-125230000D01*
X132500476Y-125182381D01*
X132738572Y-125182381D01*
X132833810Y-125230000D01*
X132881429Y-125277619D01*
X132929048Y-125372857D01*
X132929048Y-125468095D01*
X132881429Y-125610952D01*
X132310000Y-126182381D01*
X132929048Y-126182381D01*
X128595714Y-122642381D02*
X129167143Y-122642381D01*
X128881428Y-123642381D02*
X128881428Y-122642381D01*
X129262381Y-123737619D02*
X130024286Y-123737619D01*
X130595715Y-123118571D02*
X130262381Y-123118571D01*
X130262381Y-123642381D02*
X130262381Y-122642381D01*
X130738572Y-122642381D01*
X131119524Y-123642381D02*
X131119524Y-122642381D01*
X132071905Y-123642381D02*
X131595714Y-123642381D01*
X131595714Y-122642381D01*
X132310000Y-122642381D02*
X132929048Y-122642381D01*
X132595714Y-123023333D01*
X132738572Y-123023333D01*
X132833810Y-123070952D01*
X132881429Y-123118571D01*
X132929048Y-123213810D01*
X132929048Y-123451905D01*
X132881429Y-123547143D01*
X132833810Y-123594762D01*
X132738572Y-123642381D01*
X132452857Y-123642381D01*
X132357619Y-123594762D01*
X132310000Y-123547143D01*
X128595714Y-120102381D02*
X129167143Y-120102381D01*
X128881428Y-121102381D02*
X128881428Y-120102381D01*
X129262381Y-121197619D02*
X130024286Y-121197619D01*
X130595715Y-120578571D02*
X130262381Y-120578571D01*
X130262381Y-121102381D02*
X130262381Y-120102381D01*
X130738572Y-120102381D01*
X131119524Y-121102381D02*
X131119524Y-120102381D01*
X132071905Y-121102381D02*
X131595714Y-121102381D01*
X131595714Y-120102381D01*
X132595714Y-120102381D02*
X132690953Y-120102381D01*
X132786191Y-120150000D01*
X132833810Y-120197619D01*
X132881429Y-120292857D01*
X132929048Y-120483333D01*
X132929048Y-120721429D01*
X132881429Y-120911905D01*
X132833810Y-121007143D01*
X132786191Y-121054762D01*
X132690953Y-121102381D01*
X132595714Y-121102381D01*
X132500476Y-121054762D01*
X132452857Y-121007143D01*
X132405238Y-120911905D01*
X132357619Y-120721429D01*
X132357619Y-120483333D01*
X132405238Y-120292857D01*
X132452857Y-120197619D01*
X132500476Y-120150000D01*
X132595714Y-120102381D01*
X127984571Y-117562381D02*
X128556000Y-117562381D01*
X128270285Y-118562381D02*
X128270285Y-117562381D01*
X128651238Y-118657619D02*
X129413143Y-118657619D01*
X130222667Y-118467143D02*
X130175048Y-118514762D01*
X130032191Y-118562381D01*
X129936953Y-118562381D01*
X129794095Y-118514762D01*
X129698857Y-118419524D01*
X129651238Y-118324286D01*
X129603619Y-118133810D01*
X129603619Y-117990952D01*
X129651238Y-117800476D01*
X129698857Y-117705238D01*
X129794095Y-117610000D01*
X129936953Y-117562381D01*
X130032191Y-117562381D01*
X130175048Y-117610000D01*
X130222667Y-117657619D01*
X130841714Y-117562381D02*
X131032191Y-117562381D01*
X131127429Y-117610000D01*
X131222667Y-117705238D01*
X131270286Y-117895714D01*
X131270286Y-118229048D01*
X131222667Y-118419524D01*
X131127429Y-118514762D01*
X131032191Y-118562381D01*
X130841714Y-118562381D01*
X130746476Y-118514762D01*
X130651238Y-118419524D01*
X130603619Y-118229048D01*
X130603619Y-117895714D01*
X130651238Y-117705238D01*
X130746476Y-117610000D01*
X130841714Y-117562381D01*
X132175048Y-118562381D02*
X131698857Y-118562381D01*
X131698857Y-117562381D01*
X133032191Y-118562381D02*
X132460762Y-118562381D01*
X132746476Y-118562381D02*
X132746476Y-117562381D01*
X132651238Y-117705238D01*
X132556000Y-117800476D01*
X132460762Y-117848095D01*
X128397238Y-115927143D02*
X128349619Y-115974762D01*
X128206762Y-116022381D01*
X128111524Y-116022381D01*
X127968666Y-115974762D01*
X127873428Y-115879524D01*
X127825809Y-115784286D01*
X127778190Y-115593810D01*
X127778190Y-115450952D01*
X127825809Y-115260476D01*
X127873428Y-115165238D01*
X127968666Y-115070000D01*
X128111524Y-115022381D01*
X128206762Y-115022381D01*
X128349619Y-115070000D01*
X128397238Y-115117619D01*
X128778190Y-115736667D02*
X129254381Y-115736667D01*
X128682952Y-116022381D02*
X129016285Y-115022381D01*
X129349619Y-116022381D01*
X129682952Y-116022381D02*
X129682952Y-115022381D01*
X130254381Y-116022381D01*
X130254381Y-115022381D01*
X130492476Y-116117619D02*
X131254381Y-116117619D01*
X131349619Y-115022381D02*
X131921048Y-115022381D01*
X131635333Y-116022381D02*
X131635333Y-115022381D01*
X132254381Y-116022381D02*
X132254381Y-115022381D01*
X132492476Y-115022381D01*
X132635334Y-115070000D01*
X132730572Y-115165238D01*
X132778191Y-115260476D01*
X132825810Y-115450952D01*
X132825810Y-115593810D01*
X132778191Y-115784286D01*
X132730572Y-115879524D01*
X132635334Y-115974762D01*
X132492476Y-116022381D01*
X132254381Y-116022381D01*
X128278191Y-113387143D02*
X128230572Y-113434762D01*
X128087715Y-113482381D01*
X127992477Y-113482381D01*
X127849619Y-113434762D01*
X127754381Y-113339524D01*
X127706762Y-113244286D01*
X127659143Y-113053810D01*
X127659143Y-112910952D01*
X127706762Y-112720476D01*
X127754381Y-112625238D01*
X127849619Y-112530000D01*
X127992477Y-112482381D01*
X128087715Y-112482381D01*
X128230572Y-112530000D01*
X128278191Y-112577619D01*
X128659143Y-113196667D02*
X129135334Y-113196667D01*
X128563905Y-113482381D02*
X128897238Y-112482381D01*
X129230572Y-113482381D01*
X129563905Y-113482381D02*
X129563905Y-112482381D01*
X130135334Y-113482381D01*
X130135334Y-112482381D01*
X130373429Y-113577619D02*
X131135334Y-113577619D01*
X131944858Y-113482381D02*
X131611524Y-113006190D01*
X131373429Y-113482381D02*
X131373429Y-112482381D01*
X131754382Y-112482381D01*
X131849620Y-112530000D01*
X131897239Y-112577619D01*
X131944858Y-112672857D01*
X131944858Y-112815714D01*
X131897239Y-112910952D01*
X131849620Y-112958571D01*
X131754382Y-113006190D01*
X131373429Y-113006190D01*
X132373429Y-113482381D02*
X132373429Y-112482381D01*
X132611524Y-112482381D01*
X132754382Y-112530000D01*
X132849620Y-112625238D01*
X132897239Y-112720476D01*
X132944858Y-112910952D01*
X132944858Y-113053810D01*
X132897239Y-113244286D01*
X132849620Y-113339524D01*
X132754382Y-113434762D01*
X132611524Y-113482381D01*
X132373429Y-113482381D01*
X127825809Y-110037619D02*
X127873428Y-109990000D01*
X127968666Y-109942381D01*
X128206762Y-109942381D01*
X128302000Y-109990000D01*
X128349619Y-110037619D01*
X128397238Y-110132857D01*
X128397238Y-110228095D01*
X128349619Y-110370952D01*
X127778190Y-110942381D01*
X128397238Y-110942381D01*
X128730571Y-109942381D02*
X129349619Y-109942381D01*
X129016285Y-110323333D01*
X129159143Y-110323333D01*
X129254381Y-110370952D01*
X129302000Y-110418571D01*
X129349619Y-110513810D01*
X129349619Y-110751905D01*
X129302000Y-110847143D01*
X129254381Y-110894762D01*
X129159143Y-110942381D01*
X128873428Y-110942381D01*
X128778190Y-110894762D01*
X128730571Y-110847143D01*
X129730571Y-110037619D02*
X129778190Y-109990000D01*
X129873428Y-109942381D01*
X130111524Y-109942381D01*
X130206762Y-109990000D01*
X130254381Y-110037619D01*
X130302000Y-110132857D01*
X130302000Y-110228095D01*
X130254381Y-110370952D01*
X129682952Y-110942381D01*
X130302000Y-110942381D01*
X130492476Y-111037619D02*
X131254381Y-111037619D01*
X131349619Y-109942381D02*
X131921048Y-109942381D01*
X131635333Y-110942381D02*
X131635333Y-109942381D01*
X132159143Y-109942381D02*
X132825810Y-110942381D01*
X132825810Y-109942381D02*
X132159143Y-110942381D01*
X127706762Y-107497619D02*
X127754381Y-107450000D01*
X127849619Y-107402381D01*
X128087715Y-107402381D01*
X128182953Y-107450000D01*
X128230572Y-107497619D01*
X128278191Y-107592857D01*
X128278191Y-107688095D01*
X128230572Y-107830952D01*
X127659143Y-108402381D01*
X128278191Y-108402381D01*
X128611524Y-107402381D02*
X129230572Y-107402381D01*
X128897238Y-107783333D01*
X129040096Y-107783333D01*
X129135334Y-107830952D01*
X129182953Y-107878571D01*
X129230572Y-107973810D01*
X129230572Y-108211905D01*
X129182953Y-108307143D01*
X129135334Y-108354762D01*
X129040096Y-108402381D01*
X128754381Y-108402381D01*
X128659143Y-108354762D01*
X128611524Y-108307143D01*
X129611524Y-107497619D02*
X129659143Y-107450000D01*
X129754381Y-107402381D01*
X129992477Y-107402381D01*
X130087715Y-107450000D01*
X130135334Y-107497619D01*
X130182953Y-107592857D01*
X130182953Y-107688095D01*
X130135334Y-107830952D01*
X129563905Y-108402381D01*
X130182953Y-108402381D01*
X130373429Y-108497619D02*
X131135334Y-108497619D01*
X131944858Y-108402381D02*
X131611524Y-107926190D01*
X131373429Y-108402381D02*
X131373429Y-107402381D01*
X131754382Y-107402381D01*
X131849620Y-107450000D01*
X131897239Y-107497619D01*
X131944858Y-107592857D01*
X131944858Y-107735714D01*
X131897239Y-107830952D01*
X131849620Y-107878571D01*
X131754382Y-107926190D01*
X131373429Y-107926190D01*
X132278191Y-107402381D02*
X132944858Y-108402381D01*
X132944858Y-107402381D02*
X132278191Y-108402381D01*
X128619524Y-105771905D02*
X128619524Y-104971905D01*
X128962381Y-105048095D02*
X129000476Y-105010000D01*
X129076667Y-104971905D01*
X129267143Y-104971905D01*
X129343333Y-105010000D01*
X129381429Y-105048095D01*
X129419524Y-105124286D01*
X129419524Y-105200476D01*
X129381429Y-105314762D01*
X128924286Y-105771905D01*
X129419524Y-105771905D01*
X130219524Y-105695714D02*
X130181429Y-105733810D01*
X130067143Y-105771905D01*
X129990953Y-105771905D01*
X129876667Y-105733810D01*
X129800476Y-105657619D01*
X129762381Y-105581429D01*
X129724286Y-105429048D01*
X129724286Y-105314762D01*
X129762381Y-105162381D01*
X129800476Y-105086190D01*
X129876667Y-105010000D01*
X129990953Y-104971905D01*
X130067143Y-104971905D01*
X130181429Y-105010000D01*
X130219524Y-105048095D01*
X130371905Y-105848095D02*
X130981429Y-105848095D01*
X131133810Y-105733810D02*
X131248096Y-105771905D01*
X131438572Y-105771905D01*
X131514762Y-105733810D01*
X131552858Y-105695714D01*
X131590953Y-105619524D01*
X131590953Y-105543333D01*
X131552858Y-105467143D01*
X131514762Y-105429048D01*
X131438572Y-105390952D01*
X131286191Y-105352857D01*
X131210000Y-105314762D01*
X131171905Y-105276667D01*
X131133810Y-105200476D01*
X131133810Y-105124286D01*
X131171905Y-105048095D01*
X131210000Y-105010000D01*
X131286191Y-104971905D01*
X131476667Y-104971905D01*
X131590953Y-105010000D01*
X132390953Y-105695714D02*
X132352858Y-105733810D01*
X132238572Y-105771905D01*
X132162382Y-105771905D01*
X132048096Y-105733810D01*
X131971905Y-105657619D01*
X131933810Y-105581429D01*
X131895715Y-105429048D01*
X131895715Y-105314762D01*
X131933810Y-105162381D01*
X131971905Y-105086190D01*
X132048096Y-105010000D01*
X132162382Y-104971905D01*
X132238572Y-104971905D01*
X132352858Y-105010000D01*
X132390953Y-105048095D01*
X133114763Y-105771905D02*
X132733810Y-105771905D01*
X132733810Y-104971905D01*
X128600476Y-103231905D02*
X128600476Y-102431905D01*
X128943333Y-102508095D02*
X128981428Y-102470000D01*
X129057619Y-102431905D01*
X129248095Y-102431905D01*
X129324285Y-102470000D01*
X129362381Y-102508095D01*
X129400476Y-102584286D01*
X129400476Y-102660476D01*
X129362381Y-102774762D01*
X128905238Y-103231905D01*
X129400476Y-103231905D01*
X130200476Y-103155714D02*
X130162381Y-103193810D01*
X130048095Y-103231905D01*
X129971905Y-103231905D01*
X129857619Y-103193810D01*
X129781428Y-103117619D01*
X129743333Y-103041429D01*
X129705238Y-102889048D01*
X129705238Y-102774762D01*
X129743333Y-102622381D01*
X129781428Y-102546190D01*
X129857619Y-102470000D01*
X129971905Y-102431905D01*
X130048095Y-102431905D01*
X130162381Y-102470000D01*
X130200476Y-102508095D01*
X130352857Y-103308095D02*
X130962381Y-103308095D01*
X131114762Y-103193810D02*
X131229048Y-103231905D01*
X131419524Y-103231905D01*
X131495714Y-103193810D01*
X131533810Y-103155714D01*
X131571905Y-103079524D01*
X131571905Y-103003333D01*
X131533810Y-102927143D01*
X131495714Y-102889048D01*
X131419524Y-102850952D01*
X131267143Y-102812857D01*
X131190952Y-102774762D01*
X131152857Y-102736667D01*
X131114762Y-102660476D01*
X131114762Y-102584286D01*
X131152857Y-102508095D01*
X131190952Y-102470000D01*
X131267143Y-102431905D01*
X131457619Y-102431905D01*
X131571905Y-102470000D01*
X131914762Y-103231905D02*
X131914762Y-102431905D01*
X132105238Y-102431905D01*
X132219524Y-102470000D01*
X132295715Y-102546190D01*
X132333810Y-102622381D01*
X132371905Y-102774762D01*
X132371905Y-102889048D01*
X132333810Y-103041429D01*
X132295715Y-103117619D01*
X132219524Y-103193810D01*
X132105238Y-103231905D01*
X131914762Y-103231905D01*
X132676667Y-103003333D02*
X133057619Y-103003333D01*
X132600476Y-103231905D02*
X132867143Y-102431905D01*
X133133810Y-103231905D01*
X129556095Y-99782381D02*
X129889428Y-100782381D01*
X130222762Y-99782381D01*
X130556095Y-100782381D02*
X130556095Y-99782381D01*
X130794190Y-99782381D01*
X130937048Y-99830000D01*
X131032286Y-99925238D01*
X131079905Y-100020476D01*
X131127524Y-100210952D01*
X131127524Y-100353810D01*
X131079905Y-100544286D01*
X131032286Y-100639524D01*
X130937048Y-100734762D01*
X130794190Y-100782381D01*
X130556095Y-100782381D01*
X131556095Y-100782381D02*
X131556095Y-99782381D01*
X131794190Y-99782381D01*
X131937048Y-99830000D01*
X132032286Y-99925238D01*
X132079905Y-100020476D01*
X132127524Y-100210952D01*
X132127524Y-100353810D01*
X132079905Y-100544286D01*
X132032286Y-100639524D01*
X131937048Y-100734762D01*
X131794190Y-100782381D01*
X131556095Y-100782381D01*
X132508476Y-100496667D02*
X132984667Y-100496667D01*
X132413238Y-100782381D02*
X132746571Y-99782381D01*
X133079905Y-100782381D01*
X130381524Y-98242381D02*
X130381524Y-97242381D01*
X130619619Y-97242381D01*
X130762477Y-97290000D01*
X130857715Y-97385238D01*
X130905334Y-97480476D01*
X130952953Y-97670952D01*
X130952953Y-97813810D01*
X130905334Y-98004286D01*
X130857715Y-98099524D01*
X130762477Y-98194762D01*
X130619619Y-98242381D01*
X130381524Y-98242381D01*
X131333905Y-97956667D02*
X131810096Y-97956667D01*
X131238667Y-98242381D02*
X131572000Y-97242381D01*
X131905334Y-98242381D01*
X132810096Y-98147143D02*
X132762477Y-98194762D01*
X132619620Y-98242381D01*
X132524382Y-98242381D01*
X132381524Y-98194762D01*
X132286286Y-98099524D01*
X132238667Y-98004286D01*
X132191048Y-97813810D01*
X132191048Y-97670952D01*
X132238667Y-97480476D01*
X132286286Y-97385238D01*
X132381524Y-97290000D01*
X132524382Y-97242381D01*
X132619620Y-97242381D01*
X132762477Y-97290000D01*
X132810096Y-97337619D01*
X130881524Y-95607143D02*
X130833905Y-95654762D01*
X130691048Y-95702381D01*
X130595810Y-95702381D01*
X130452952Y-95654762D01*
X130357714Y-95559524D01*
X130310095Y-95464286D01*
X130262476Y-95273810D01*
X130262476Y-95130952D01*
X130310095Y-94940476D01*
X130357714Y-94845238D01*
X130452952Y-94750000D01*
X130595810Y-94702381D01*
X130691048Y-94702381D01*
X130833905Y-94750000D01*
X130881524Y-94797619D01*
X131310095Y-95702381D02*
X131310095Y-94702381D01*
X131310095Y-95178571D02*
X131881524Y-95178571D01*
X131881524Y-95702381D02*
X131881524Y-94702381D01*
X132881524Y-95702381D02*
X132310095Y-95702381D01*
X132595809Y-95702381D02*
X132595809Y-94702381D01*
X132500571Y-94845238D01*
X132405333Y-94940476D01*
X132310095Y-94988095D01*
X130881524Y-93067143D02*
X130833905Y-93114762D01*
X130691048Y-93162381D01*
X130595810Y-93162381D01*
X130452952Y-93114762D01*
X130357714Y-93019524D01*
X130310095Y-92924286D01*
X130262476Y-92733810D01*
X130262476Y-92590952D01*
X130310095Y-92400476D01*
X130357714Y-92305238D01*
X130452952Y-92210000D01*
X130595810Y-92162381D01*
X130691048Y-92162381D01*
X130833905Y-92210000D01*
X130881524Y-92257619D01*
X131310095Y-93162381D02*
X131310095Y-92162381D01*
X131310095Y-92638571D02*
X131881524Y-92638571D01*
X131881524Y-93162381D02*
X131881524Y-92162381D01*
X132310095Y-92257619D02*
X132357714Y-92210000D01*
X132452952Y-92162381D01*
X132691048Y-92162381D01*
X132786286Y-92210000D01*
X132833905Y-92257619D01*
X132881524Y-92352857D01*
X132881524Y-92448095D01*
X132833905Y-92590952D01*
X132262476Y-93162381D01*
X132881524Y-93162381D01*
X130881524Y-90527143D02*
X130833905Y-90574762D01*
X130691048Y-90622381D01*
X130595810Y-90622381D01*
X130452952Y-90574762D01*
X130357714Y-90479524D01*
X130310095Y-90384286D01*
X130262476Y-90193810D01*
X130262476Y-90050952D01*
X130310095Y-89860476D01*
X130357714Y-89765238D01*
X130452952Y-89670000D01*
X130595810Y-89622381D01*
X130691048Y-89622381D01*
X130833905Y-89670000D01*
X130881524Y-89717619D01*
X131310095Y-90622381D02*
X131310095Y-89622381D01*
X131310095Y-90098571D02*
X131881524Y-90098571D01*
X131881524Y-90622381D02*
X131881524Y-89622381D01*
X132262476Y-89622381D02*
X132881524Y-89622381D01*
X132548190Y-90003333D01*
X132691048Y-90003333D01*
X132786286Y-90050952D01*
X132833905Y-90098571D01*
X132881524Y-90193810D01*
X132881524Y-90431905D01*
X132833905Y-90527143D01*
X132786286Y-90574762D01*
X132691048Y-90622381D01*
X132405333Y-90622381D01*
X132310095Y-90574762D01*
X132262476Y-90527143D01*
X129873524Y-87130000D02*
X129778286Y-87082381D01*
X129635429Y-87082381D01*
X129492571Y-87130000D01*
X129397333Y-87225238D01*
X129349714Y-87320476D01*
X129302095Y-87510952D01*
X129302095Y-87653810D01*
X129349714Y-87844286D01*
X129397333Y-87939524D01*
X129492571Y-88034762D01*
X129635429Y-88082381D01*
X129730667Y-88082381D01*
X129873524Y-88034762D01*
X129921143Y-87987143D01*
X129921143Y-87653810D01*
X129730667Y-87653810D01*
X130349714Y-88082381D02*
X130349714Y-87082381D01*
X130921143Y-88082381D01*
X130921143Y-87082381D01*
X131397333Y-88082381D02*
X131397333Y-87082381D01*
X131635428Y-87082381D01*
X131778286Y-87130000D01*
X131873524Y-87225238D01*
X131921143Y-87320476D01*
X131968762Y-87510952D01*
X131968762Y-87653810D01*
X131921143Y-87844286D01*
X131873524Y-87939524D01*
X131778286Y-88034762D01*
X131635428Y-88082381D01*
X131397333Y-88082381D01*
X132349714Y-87796667D02*
X132825905Y-87796667D01*
X132254476Y-88082381D02*
X132587809Y-87082381D01*
X132921143Y-88082381D01*
X130849810Y-85542381D02*
X130849810Y-84542381D01*
X131278381Y-85494762D02*
X131421238Y-85542381D01*
X131659334Y-85542381D01*
X131754572Y-85494762D01*
X131802191Y-85447143D01*
X131849810Y-85351905D01*
X131849810Y-85256667D01*
X131802191Y-85161429D01*
X131754572Y-85113810D01*
X131659334Y-85066190D01*
X131468857Y-85018571D01*
X131373619Y-84970952D01*
X131326000Y-84923333D01*
X131278381Y-84828095D01*
X131278381Y-84732857D01*
X131326000Y-84637619D01*
X131373619Y-84590000D01*
X131468857Y-84542381D01*
X131706953Y-84542381D01*
X131849810Y-84590000D01*
X132278381Y-85542381D02*
X132278381Y-84542381D01*
X132659334Y-84542381D01*
X132754572Y-84590000D01*
X132802191Y-84637619D01*
X132849810Y-84732857D01*
X132849810Y-84875714D01*
X132802191Y-84970952D01*
X132754572Y-85018571D01*
X132659334Y-85066190D01*
X132278381Y-85066190D01*
X129357619Y-83002381D02*
X129024285Y-82526190D01*
X128786190Y-83002381D02*
X128786190Y-82002381D01*
X129167143Y-82002381D01*
X129262381Y-82050000D01*
X129310000Y-82097619D01*
X129357619Y-82192857D01*
X129357619Y-82335714D01*
X129310000Y-82430952D01*
X129262381Y-82478571D01*
X129167143Y-82526190D01*
X128786190Y-82526190D01*
X129786190Y-82478571D02*
X130119524Y-82478571D01*
X130262381Y-83002381D02*
X129786190Y-83002381D01*
X129786190Y-82002381D01*
X130262381Y-82002381D01*
X130643333Y-82954762D02*
X130786190Y-83002381D01*
X131024286Y-83002381D01*
X131119524Y-82954762D01*
X131167143Y-82907143D01*
X131214762Y-82811905D01*
X131214762Y-82716667D01*
X131167143Y-82621429D01*
X131119524Y-82573810D01*
X131024286Y-82526190D01*
X130833809Y-82478571D01*
X130738571Y-82430952D01*
X130690952Y-82383333D01*
X130643333Y-82288095D01*
X130643333Y-82192857D01*
X130690952Y-82097619D01*
X130738571Y-82050000D01*
X130833809Y-82002381D01*
X131071905Y-82002381D01*
X131214762Y-82050000D01*
X131643333Y-82478571D02*
X131976667Y-82478571D01*
X132119524Y-83002381D02*
X131643333Y-83002381D01*
X131643333Y-82002381D01*
X132119524Y-82002381D01*
X132405238Y-82002381D02*
X132976667Y-82002381D01*
X132690952Y-83002381D02*
X132690952Y-82002381D01*
D23*
X133985239Y-130587714D02*
X133947144Y-130625810D01*
X133832858Y-130663905D01*
X133756668Y-130663905D01*
X133642382Y-130625810D01*
X133566191Y-130549619D01*
X133528096Y-130473429D01*
X133490001Y-130321048D01*
X133490001Y-130206762D01*
X133528096Y-130054381D01*
X133566191Y-129978190D01*
X133642382Y-129902000D01*
X133756668Y-129863905D01*
X133832858Y-129863905D01*
X133947144Y-129902000D01*
X133985239Y-129940095D01*
X134328096Y-130663905D02*
X134328096Y-129863905D01*
X134670953Y-130435333D02*
X135051905Y-130435333D01*
X134594762Y-130663905D02*
X134861429Y-129863905D01*
X135128096Y-130663905D01*
X135356667Y-130435333D02*
X135737619Y-130435333D01*
X135280476Y-130663905D02*
X135547143Y-129863905D01*
X135813810Y-130663905D01*
X136080476Y-130359143D02*
X136690000Y-130359143D01*
X137070952Y-130663905D02*
X137070952Y-129863905D01*
X137375714Y-129863905D01*
X137451905Y-129902000D01*
X137490000Y-129940095D01*
X137528095Y-130016286D01*
X137528095Y-130130571D01*
X137490000Y-130206762D01*
X137451905Y-130244857D01*
X137375714Y-130282952D01*
X137070952Y-130282952D01*
X138290000Y-130663905D02*
X137832857Y-130663905D01*
X138061428Y-130663905D02*
X138061428Y-129863905D01*
X137985238Y-129978190D01*
X137909047Y-130054381D01*
X137832857Y-130092476D01*
D19*
X128810000Y-80081429D02*
X129571905Y-80081429D01*
X129190953Y-80462381D02*
X129190953Y-79700476D01*
X129952857Y-79462381D02*
X130571905Y-79462381D01*
X130238571Y-79843333D01*
X130381429Y-79843333D01*
X130476667Y-79890952D01*
X130524286Y-79938571D01*
X130571905Y-80033810D01*
X130571905Y-80271905D01*
X130524286Y-80367143D01*
X130476667Y-80414762D01*
X130381429Y-80462381D01*
X130095714Y-80462381D01*
X130000476Y-80414762D01*
X129952857Y-80367143D01*
X131000476Y-80367143D02*
X131048095Y-80414762D01*
X131000476Y-80462381D01*
X130952857Y-80414762D01*
X131000476Y-80367143D01*
X131000476Y-80462381D01*
X131381428Y-79462381D02*
X132000476Y-79462381D01*
X131667142Y-79843333D01*
X131810000Y-79843333D01*
X131905238Y-79890952D01*
X131952857Y-79938571D01*
X132000476Y-80033810D01*
X132000476Y-80271905D01*
X131952857Y-80367143D01*
X131905238Y-80414762D01*
X131810000Y-80462381D01*
X131524285Y-80462381D01*
X131429047Y-80414762D01*
X131381428Y-80367143D01*
X132286190Y-79462381D02*
X132619523Y-80462381D01*
X132952857Y-79462381D01*
D18*
X127880533Y-101186343D02*
X128456267Y-101186343D01*
X128524000Y-101164571D01*
X128557867Y-101142800D01*
X128591733Y-101099257D01*
X128591733Y-101012171D01*
X128557867Y-100968629D01*
X128524000Y-100946857D01*
X128456267Y-100925086D01*
X127880533Y-100925086D01*
X128591733Y-100467886D02*
X128591733Y-100729143D01*
X128591733Y-100598515D02*
X127880533Y-100598515D01*
X127982133Y-100642058D01*
X128049867Y-100685600D01*
X128083733Y-100729143D01*
X115824000Y-95072200D02*
X115857867Y-95093971D01*
X115891733Y-95159285D01*
X115891733Y-95202828D01*
X115857867Y-95268143D01*
X115790133Y-95311685D01*
X115722400Y-95333457D01*
X115586933Y-95355228D01*
X115485333Y-95355228D01*
X115349867Y-95333457D01*
X115282133Y-95311685D01*
X115214400Y-95268143D01*
X115180533Y-95202828D01*
X115180533Y-95159285D01*
X115214400Y-95093971D01*
X115248267Y-95072200D01*
X115891733Y-94636771D02*
X115891733Y-94898028D01*
X115891733Y-94767400D02*
X115180533Y-94767400D01*
X115282133Y-94810943D01*
X115349867Y-94854485D01*
X115383733Y-94898028D01*
X115824000Y-102184200D02*
X115857867Y-102205971D01*
X115891733Y-102271285D01*
X115891733Y-102314828D01*
X115857867Y-102380143D01*
X115790133Y-102423685D01*
X115722400Y-102445457D01*
X115586933Y-102467228D01*
X115485333Y-102467228D01*
X115349867Y-102445457D01*
X115282133Y-102423685D01*
X115214400Y-102380143D01*
X115180533Y-102314828D01*
X115180533Y-102271285D01*
X115214400Y-102205971D01*
X115248267Y-102184200D01*
X115248267Y-102010028D02*
X115214400Y-101988257D01*
X115180533Y-101944714D01*
X115180533Y-101835857D01*
X115214400Y-101792314D01*
X115248267Y-101770543D01*
X115316000Y-101748771D01*
X115383733Y-101748771D01*
X115485333Y-101770543D01*
X115891733Y-102031800D01*
X115891733Y-101748771D01*
X127431800Y-92710000D02*
X127410029Y-92743867D01*
X127344715Y-92777733D01*
X127301172Y-92777733D01*
X127235857Y-92743867D01*
X127192315Y-92676133D01*
X127170543Y-92608400D01*
X127148772Y-92472933D01*
X127148772Y-92371333D01*
X127170543Y-92235867D01*
X127192315Y-92168133D01*
X127235857Y-92100400D01*
X127301172Y-92066533D01*
X127344715Y-92066533D01*
X127410029Y-92100400D01*
X127431800Y-92134267D01*
X127584200Y-92066533D02*
X127867229Y-92066533D01*
X127714829Y-92337467D01*
X127780143Y-92337467D01*
X127823686Y-92371333D01*
X127845457Y-92405200D01*
X127867229Y-92472933D01*
X127867229Y-92642267D01*
X127845457Y-92710000D01*
X127823686Y-92743867D01*
X127780143Y-92777733D01*
X127649515Y-92777733D01*
X127605972Y-92743867D01*
X127584200Y-92710000D01*
X119811800Y-109220000D02*
X119790029Y-109253867D01*
X119724715Y-109287733D01*
X119681172Y-109287733D01*
X119615857Y-109253867D01*
X119572315Y-109186133D01*
X119550543Y-109118400D01*
X119528772Y-108982933D01*
X119528772Y-108881333D01*
X119550543Y-108745867D01*
X119572315Y-108678133D01*
X119615857Y-108610400D01*
X119681172Y-108576533D01*
X119724715Y-108576533D01*
X119790029Y-108610400D01*
X119811800Y-108644267D01*
X120203686Y-108813600D02*
X120203686Y-109287733D01*
X120094829Y-108542667D02*
X119985972Y-109050667D01*
X120269000Y-109050667D01*
X127431800Y-95504000D02*
X127410029Y-95537867D01*
X127344715Y-95571733D01*
X127301172Y-95571733D01*
X127235857Y-95537867D01*
X127192315Y-95470133D01*
X127170543Y-95402400D01*
X127148772Y-95266933D01*
X127148772Y-95165333D01*
X127170543Y-95029867D01*
X127192315Y-94962133D01*
X127235857Y-94894400D01*
X127301172Y-94860533D01*
X127344715Y-94860533D01*
X127410029Y-94894400D01*
X127431800Y-94928267D01*
X127845457Y-94860533D02*
X127627743Y-94860533D01*
X127605972Y-95199200D01*
X127627743Y-95165333D01*
X127671286Y-95131467D01*
X127780143Y-95131467D01*
X127823686Y-95165333D01*
X127845457Y-95199200D01*
X127867229Y-95266933D01*
X127867229Y-95436267D01*
X127845457Y-95504000D01*
X127823686Y-95537867D01*
X127780143Y-95571733D01*
X127671286Y-95571733D01*
X127627743Y-95537867D01*
X127605972Y-95504000D01*
X102971600Y-104766533D02*
X102971600Y-105274533D01*
X102949828Y-105376133D01*
X102906285Y-105443867D01*
X102840971Y-105477733D01*
X102797428Y-105477733D01*
X103428800Y-105477733D02*
X103167543Y-105477733D01*
X103298171Y-105477733D02*
X103298171Y-104766533D01*
X103254628Y-104868133D01*
X103211086Y-104935867D01*
X103167543Y-104969733D01*
X119811800Y-119126000D02*
X119790029Y-119159867D01*
X119724715Y-119193733D01*
X119681172Y-119193733D01*
X119615857Y-119159867D01*
X119572315Y-119092133D01*
X119550543Y-119024400D01*
X119528772Y-118888933D01*
X119528772Y-118787333D01*
X119550543Y-118651867D01*
X119572315Y-118584133D01*
X119615857Y-118516400D01*
X119681172Y-118482533D01*
X119724715Y-118482533D01*
X119790029Y-118516400D01*
X119811800Y-118550267D01*
X120203686Y-118482533D02*
X120116600Y-118482533D01*
X120073057Y-118516400D01*
X120051286Y-118550267D01*
X120007743Y-118651867D01*
X119985972Y-118787333D01*
X119985972Y-119058267D01*
X120007743Y-119126000D01*
X120029515Y-119159867D01*
X120073057Y-119193733D01*
X120160143Y-119193733D01*
X120203686Y-119159867D01*
X120225457Y-119126000D01*
X120247229Y-119058267D01*
X120247229Y-118888933D01*
X120225457Y-118821200D01*
X120203686Y-118787333D01*
X120160143Y-118753467D01*
X120073057Y-118753467D01*
X120029515Y-118787333D01*
X120007743Y-118821200D01*
X119985972Y-118888933D01*
X102971600Y-117212533D02*
X102971600Y-117720533D01*
X102949828Y-117822133D01*
X102906285Y-117889867D01*
X102840971Y-117923733D01*
X102797428Y-117923733D01*
X103167543Y-117280267D02*
X103189314Y-117246400D01*
X103232857Y-117212533D01*
X103341714Y-117212533D01*
X103385257Y-117246400D01*
X103407028Y-117280267D01*
X103428800Y-117348000D01*
X103428800Y-117415733D01*
X103407028Y-117517333D01*
X103145771Y-117923733D01*
X103428800Y-117923733D01*
X123349657Y-110862533D02*
X123349657Y-111438267D01*
X123371429Y-111506000D01*
X123393200Y-111539867D01*
X123436743Y-111573733D01*
X123523829Y-111573733D01*
X123567371Y-111539867D01*
X123589143Y-111506000D01*
X123610914Y-111438267D01*
X123610914Y-110862533D01*
X123806857Y-110930267D02*
X123828628Y-110896400D01*
X123872171Y-110862533D01*
X123981028Y-110862533D01*
X124024571Y-110896400D01*
X124046342Y-110930267D01*
X124068114Y-110998000D01*
X124068114Y-111065733D01*
X124046342Y-111167333D01*
X123785085Y-111573733D01*
X124068114Y-111573733D01*
M02*
