%TF.GenerationSoftware,KiCad,Pcbnew,5.0.0-fee4fd1~66~ubuntu16.04.1*%
%TF.CreationDate,2018-09-04T19:38:39-03:00*%
%TF.ProjectId,tourk5,746F75726B352E6B696361645F706362,1*%
%TF.SameCoordinates,Original*%
%TF.FileFunction,Copper,L2,Bot,Signal*%
%TF.FilePolarity,Positive*%
%FSLAX46Y46*%
G04 Gerber Fmt 4.6, Leading zero omitted, Abs format (unit mm)*
G04 Created by KiCad (PCBNEW 5.0.0-fee4fd1~66~ubuntu16.04.1) date Tue Sep  4 19:38:39 2018*
%MOMM*%
%LPD*%
G01*
G04 APERTURE LIST*
%TA.AperFunction,NonConductor*%
%ADD10C,0.150000*%
%TD*%
%TA.AperFunction,NonConductor*%
%ADD11C,0.300000*%
%TD*%
%TA.AperFunction,ComponentPad*%
%ADD12C,1.600000*%
%TD*%
%TA.AperFunction,ComponentPad*%
%ADD13O,1.600000X1.600000*%
%TD*%
%TA.AperFunction,ComponentPad*%
%ADD14R,1.700000X1.700000*%
%TD*%
%TA.AperFunction,ComponentPad*%
%ADD15O,1.700000X1.700000*%
%TD*%
%TA.AperFunction,ComponentPad*%
%ADD16R,1.800000X1.800000*%
%TD*%
%TA.AperFunction,ComponentPad*%
%ADD17C,1.800000*%
%TD*%
%TA.AperFunction,ComponentPad*%
%ADD18O,1.500000X1.500000*%
%TD*%
%TA.AperFunction,ComponentPad*%
%ADD19R,1.500000X1.500000*%
%TD*%
%TA.AperFunction,ViaPad*%
%ADD20C,1.600000*%
%TD*%
%TA.AperFunction,Conductor*%
%ADD21C,0.800000*%
%TD*%
G04 APERTURE END LIST*
D10*
X152000000Y-110000000D02*
X152000000Y-96000000D01*
X148000000Y-96000000D02*
X152000000Y-96000000D01*
X152000000Y-110000000D02*
X148000000Y-110000000D01*
X148000000Y-96000000D02*
X127000000Y-96000000D01*
X127000000Y-110000000D02*
X148000000Y-110000000D01*
D11*
X144321428Y-100428571D02*
X144250000Y-100500000D01*
X144178571Y-100642857D01*
X144178571Y-101000000D01*
X144250000Y-101142857D01*
X144321428Y-101214285D01*
X144464285Y-101285714D01*
X144607142Y-101285714D01*
X144821428Y-101214285D01*
X145678571Y-100357142D01*
X145678571Y-101285714D01*
X144178571Y-102214285D02*
X144178571Y-102357142D01*
X144250000Y-102500000D01*
X144321428Y-102571428D01*
X144464285Y-102642857D01*
X144750000Y-102714285D01*
X145107142Y-102714285D01*
X145392857Y-102642857D01*
X145535714Y-102571428D01*
X145607142Y-102500000D01*
X145678571Y-102357142D01*
X145678571Y-102214285D01*
X145607142Y-102071428D01*
X145535714Y-102000000D01*
X145392857Y-101928571D01*
X145107142Y-101857142D01*
X144750000Y-101857142D01*
X144464285Y-101928571D01*
X144321428Y-102000000D01*
X144250000Y-102071428D01*
X144178571Y-102214285D01*
X145678571Y-104142857D02*
X145678571Y-103285714D01*
X145678571Y-103714285D02*
X144178571Y-103714285D01*
X144392857Y-103571428D01*
X144535714Y-103428571D01*
X144607142Y-103285714D01*
X144821428Y-105000000D02*
X144750000Y-104857142D01*
X144678571Y-104785714D01*
X144535714Y-104714285D01*
X144464285Y-104714285D01*
X144321428Y-104785714D01*
X144250000Y-104857142D01*
X144178571Y-105000000D01*
X144178571Y-105285714D01*
X144250000Y-105428571D01*
X144321428Y-105500000D01*
X144464285Y-105571428D01*
X144535714Y-105571428D01*
X144678571Y-105500000D01*
X144750000Y-105428571D01*
X144821428Y-105285714D01*
X144821428Y-105000000D01*
X144892857Y-104857142D01*
X144964285Y-104785714D01*
X145107142Y-104714285D01*
X145392857Y-104714285D01*
X145535714Y-104785714D01*
X145607142Y-104857142D01*
X145678571Y-105000000D01*
X145678571Y-105285714D01*
X145607142Y-105428571D01*
X145535714Y-105500000D01*
X145392857Y-105571428D01*
X145107142Y-105571428D01*
X144964285Y-105500000D01*
X144892857Y-105428571D01*
X144821428Y-105285714D01*
D10*
X127000000Y-96000000D02*
X127000000Y-96000000D01*
X127000000Y-96000000D02*
X127000000Y-110000000D01*
D12*
%TO.P,R2,1*%
%TO.N,Net-(D2-Pad2)*%
X149000000Y-108000000D03*
D13*
%TO.P,R2,2*%
%TO.N,Net-(C1-Pad1)*%
X149000000Y-97840000D03*
%TD*%
D14*
%TO.P,J1,1*%
%TO.N,Net-(C1-Pad2)*%
X129000000Y-101000000D03*
D15*
%TO.P,J1,2*%
%TO.N,Net-(J1-Pad2)*%
X129000000Y-103540000D03*
%TO.P,J1,3*%
%TO.N,Net-(D2-Pad1)*%
X129000000Y-106080000D03*
%TD*%
D12*
%TO.P,C1,1*%
%TO.N,Net-(C1-Pad1)*%
X138000000Y-98000000D03*
%TO.P,C1,2*%
%TO.N,Net-(C1-Pad2)*%
X133000000Y-98000000D03*
%TD*%
D13*
%TO.P,R1,2*%
%TO.N,Net-(C1-Pad1)*%
X145000000Y-97840000D03*
D12*
%TO.P,R1,1*%
%TO.N,Net-(D2-Pad2)*%
X145000000Y-108000000D03*
%TD*%
D16*
%TO.P,D1,1*%
%TO.N,Net-(C1-Pad1)*%
X135650000Y-103000000D03*
D17*
%TO.P,D1,2*%
%TO.N,Net-(C1-Pad2)*%
X133110000Y-103000000D03*
%TD*%
D18*
%TO.P,D2,2*%
%TO.N,Net-(D2-Pad2)*%
X140570000Y-108000000D03*
D19*
%TO.P,D2,1*%
%TO.N,Net-(D2-Pad1)*%
X132950000Y-108000000D03*
%TD*%
D20*
%TO.N,Net-(C1-Pad1)*%
X140000000Y-98000000D03*
X143000000Y-98000000D03*
%TD*%
D21*
%TO.N,Net-(C1-Pad1)*%
X135650000Y-103000000D02*
X137000000Y-103000000D01*
X138000000Y-102000000D02*
X138000000Y-98000000D01*
X137000000Y-103000000D02*
X138000000Y-102000000D01*
X138000000Y-98000000D02*
X140000000Y-98000000D01*
X144840000Y-98000000D02*
X145000000Y-97840000D01*
X143000000Y-98000000D02*
X144840000Y-98000000D01*
X149000000Y-97840000D02*
X145000000Y-97840000D01*
%TO.N,Net-(C1-Pad2)*%
X129000000Y-99350000D02*
X130350000Y-98000000D01*
X129000000Y-101000000D02*
X129000000Y-99350000D01*
X130350000Y-98000000D02*
X133000000Y-98000000D01*
X133000000Y-102890000D02*
X133110000Y-103000000D01*
X133000000Y-98000000D02*
X133000000Y-102890000D01*
%TO.N,Net-(D2-Pad1)*%
X130920000Y-108000000D02*
X129000000Y-106080000D01*
X132950000Y-108000000D02*
X130920000Y-108000000D01*
%TO.N,Net-(D2-Pad2)*%
X140570000Y-108000000D02*
X145000000Y-108000000D01*
X149000000Y-108000000D02*
X145000000Y-108000000D01*
%TD*%
M02*
