%TF.GenerationSoftware,KiCad,Pcbnew,5.0.0-fee4fd1~66~ubuntu16.04.1*%
%TF.CreationDate,2018-09-04T19:38:39-03:00*%
%TF.ProjectId,tourk5,746F75726B352E6B696361645F706362,1*%
%TF.SameCoordinates,Original*%
%TF.FileFunction,Legend,Top*%
%TF.FilePolarity,Positive*%
%FSLAX46Y46*%
G04 Gerber Fmt 4.6, Leading zero omitted, Abs format (unit mm)*
G04 Created by KiCad (PCBNEW 5.0.0-fee4fd1~66~ubuntu16.04.1) date Tue Sep  4 19:38:39 2018*
%MOMM*%
%LPD*%
G01*
G04 APERTURE LIST*
%ADD10C,0.150000*%
%ADD11C,0.200000*%
%ADD12C,0.120000*%
G04 APERTURE END LIST*
D10*
X152000000Y-110000000D02*
X152000000Y-96000000D01*
X148000000Y-96000000D02*
X152000000Y-96000000D01*
X152000000Y-110000000D02*
X148000000Y-110000000D01*
X148000000Y-96000000D02*
X127000000Y-96000000D01*
X127000000Y-110000000D02*
X148000000Y-110000000D01*
D11*
X139071428Y-100602380D02*
X139071428Y-99602380D01*
X139642857Y-100602380D02*
X139214285Y-100030952D01*
X139642857Y-99602380D02*
X139071428Y-100173809D01*
X140071428Y-100602380D02*
X140071428Y-99602380D01*
X141119047Y-100507142D02*
X141071428Y-100554761D01*
X140928571Y-100602380D01*
X140833333Y-100602380D01*
X140690476Y-100554761D01*
X140595238Y-100459523D01*
X140547619Y-100364285D01*
X140500000Y-100173809D01*
X140500000Y-100030952D01*
X140547619Y-99840476D01*
X140595238Y-99745238D01*
X140690476Y-99650000D01*
X140833333Y-99602380D01*
X140928571Y-99602380D01*
X141071428Y-99650000D01*
X141119047Y-99697619D01*
X141500000Y-100316666D02*
X141976190Y-100316666D01*
X141404761Y-100602380D02*
X141738095Y-99602380D01*
X142071428Y-100602380D01*
X142404761Y-100602380D02*
X142404761Y-99602380D01*
X142642857Y-99602380D01*
X142785714Y-99650000D01*
X142880952Y-99745238D01*
X142928571Y-99840476D01*
X142976190Y-100030952D01*
X142976190Y-100173809D01*
X142928571Y-100364285D01*
X142880952Y-100459523D01*
X142785714Y-100554761D01*
X142642857Y-100602380D01*
X142404761Y-100602380D01*
X139166666Y-101302380D02*
X139738095Y-101302380D01*
X139452380Y-102302380D02*
X139452380Y-101302380D01*
X140261904Y-101302380D02*
X140452380Y-101302380D01*
X140547619Y-101350000D01*
X140642857Y-101445238D01*
X140690476Y-101635714D01*
X140690476Y-101969047D01*
X140642857Y-102159523D01*
X140547619Y-102254761D01*
X140452380Y-102302380D01*
X140261904Y-102302380D01*
X140166666Y-102254761D01*
X140071428Y-102159523D01*
X140023809Y-101969047D01*
X140023809Y-101635714D01*
X140071428Y-101445238D01*
X140166666Y-101350000D01*
X140261904Y-101302380D01*
X141119047Y-101302380D02*
X141119047Y-102111904D01*
X141166666Y-102207142D01*
X141214285Y-102254761D01*
X141309523Y-102302380D01*
X141500000Y-102302380D01*
X141595238Y-102254761D01*
X141642857Y-102207142D01*
X141690476Y-102111904D01*
X141690476Y-101302380D01*
X142738095Y-102302380D02*
X142404761Y-101826190D01*
X142166666Y-102302380D02*
X142166666Y-101302380D01*
X142547619Y-101302380D01*
X142642857Y-101350000D01*
X142690476Y-101397619D01*
X142738095Y-101492857D01*
X142738095Y-101635714D01*
X142690476Y-101730952D01*
X142642857Y-101778571D01*
X142547619Y-101826190D01*
X142166666Y-101826190D01*
D10*
X127000000Y-96000000D02*
X127000000Y-96000000D01*
X127000000Y-96000000D02*
X127000000Y-110000000D01*
D12*
%TO.C,R2*%
X147630000Y-106190000D02*
X150370000Y-106190000D01*
X150370000Y-106190000D02*
X150370000Y-99650000D01*
X150370000Y-99650000D02*
X147630000Y-99650000D01*
X147630000Y-99650000D02*
X147630000Y-106190000D01*
X149000000Y-106960000D02*
X149000000Y-106190000D01*
X149000000Y-98880000D02*
X149000000Y-99650000D01*
%TO.C,J1*%
X127670000Y-107410000D02*
X130330000Y-107410000D01*
X127670000Y-102270000D02*
X127670000Y-107410000D01*
X130330000Y-102270000D02*
X130330000Y-107410000D01*
X127670000Y-102270000D02*
X130330000Y-102270000D01*
X127670000Y-101000000D02*
X127670000Y-99670000D01*
X127670000Y-99670000D02*
X129000000Y-99670000D01*
%TO.C,C1*%
X137770000Y-99070000D02*
X133230000Y-99070000D01*
X137770000Y-96930000D02*
X133230000Y-96930000D01*
X137770000Y-99070000D02*
X137770000Y-99055000D01*
X137770000Y-96945000D02*
X137770000Y-96930000D01*
X133230000Y-99070000D02*
X133230000Y-99055000D01*
X133230000Y-96945000D02*
X133230000Y-96930000D01*
%TO.C,R1*%
X145000000Y-98880000D02*
X145000000Y-99650000D01*
X145000000Y-106960000D02*
X145000000Y-106190000D01*
X143630000Y-99650000D02*
X143630000Y-106190000D01*
X146370000Y-99650000D02*
X143630000Y-99650000D01*
X146370000Y-106190000D02*
X146370000Y-99650000D01*
X143630000Y-106190000D02*
X146370000Y-106190000D01*
%TO.C,D1*%
X132707665Y-104078608D02*
G75*
G03X135940000Y-104235516I1672335J1078608D01*
G01*
X132707665Y-101921392D02*
G75*
G02X135940000Y-101764484I1672335J-1078608D01*
G01*
X133338870Y-104079837D02*
G75*
G03X135420961Y-104080000I1041130J1079837D01*
G01*
X133338870Y-101920163D02*
G75*
G02X135420961Y-101920000I1041130J-1079837D01*
G01*
X135940000Y-104236000D02*
X135940000Y-104080000D01*
X135940000Y-101920000D02*
X135940000Y-101764000D01*
%TO.C,D2*%
X135576000Y-107080000D02*
X135576000Y-108920000D01*
X135816000Y-107080000D02*
X135816000Y-108920000D01*
X135696000Y-107080000D02*
X135696000Y-108920000D01*
X139580000Y-108000000D02*
X138400000Y-108000000D01*
X133940000Y-108000000D02*
X135120000Y-108000000D01*
X138400000Y-107080000D02*
X135120000Y-107080000D01*
X138400000Y-108920000D02*
X138400000Y-107080000D01*
X135120000Y-108920000D02*
X138400000Y-108920000D01*
X135120000Y-107080000D02*
X135120000Y-108920000D01*
%TD*%
%TO.C,R2*%
D10*
X147083333Y-107452380D02*
X146750000Y-106976190D01*
X146511904Y-107452380D02*
X146511904Y-106452380D01*
X146892857Y-106452380D01*
X146988095Y-106500000D01*
X147035714Y-106547619D01*
X147083333Y-106642857D01*
X147083333Y-106785714D01*
X147035714Y-106880952D01*
X146988095Y-106928571D01*
X146892857Y-106976190D01*
X146511904Y-106976190D01*
X147464285Y-106547619D02*
X147511904Y-106500000D01*
X147607142Y-106452380D01*
X147845238Y-106452380D01*
X147940476Y-106500000D01*
X147988095Y-106547619D01*
X148035714Y-106642857D01*
X148035714Y-106738095D01*
X147988095Y-106880952D01*
X147416666Y-107452380D01*
X148035714Y-107452380D01*
%TO.C,J1*%
X128666666Y-108452380D02*
X128666666Y-109166666D01*
X128619047Y-109309523D01*
X128523809Y-109404761D01*
X128380952Y-109452380D01*
X128285714Y-109452380D01*
X129666666Y-109452380D02*
X129095238Y-109452380D01*
X129380952Y-109452380D02*
X129380952Y-108452380D01*
X129285714Y-108595238D01*
X129190476Y-108690476D01*
X129095238Y-108738095D01*
%TO.C,C1*%
X130833333Y-98357142D02*
X130785714Y-98404761D01*
X130642857Y-98452380D01*
X130547619Y-98452380D01*
X130404761Y-98404761D01*
X130309523Y-98309523D01*
X130261904Y-98214285D01*
X130214285Y-98023809D01*
X130214285Y-97880952D01*
X130261904Y-97690476D01*
X130309523Y-97595238D01*
X130404761Y-97500000D01*
X130547619Y-97452380D01*
X130642857Y-97452380D01*
X130785714Y-97500000D01*
X130833333Y-97547619D01*
X131785714Y-98452380D02*
X131214285Y-98452380D01*
X131500000Y-98452380D02*
X131500000Y-97452380D01*
X131404761Y-97595238D01*
X131309523Y-97690476D01*
X131214285Y-97738095D01*
%TO.C,R1*%
X143083333Y-107452380D02*
X142750000Y-106976190D01*
X142511904Y-107452380D02*
X142511904Y-106452380D01*
X142892857Y-106452380D01*
X142988095Y-106500000D01*
X143035714Y-106547619D01*
X143083333Y-106642857D01*
X143083333Y-106785714D01*
X143035714Y-106880952D01*
X142988095Y-106928571D01*
X142892857Y-106976190D01*
X142511904Y-106976190D01*
X144035714Y-107452380D02*
X143464285Y-107452380D01*
X143750000Y-107452380D02*
X143750000Y-106452380D01*
X143654761Y-106595238D01*
X143559523Y-106690476D01*
X143464285Y-106738095D01*
%TO.C,D1*%
X137261904Y-103452380D02*
X137261904Y-102452380D01*
X137500000Y-102452380D01*
X137642857Y-102500000D01*
X137738095Y-102595238D01*
X137785714Y-102690476D01*
X137833333Y-102880952D01*
X137833333Y-103023809D01*
X137785714Y-103214285D01*
X137738095Y-103309523D01*
X137642857Y-103404761D01*
X137500000Y-103452380D01*
X137261904Y-103452380D01*
X138785714Y-103452380D02*
X138214285Y-103452380D01*
X138500000Y-103452380D02*
X138500000Y-102452380D01*
X138404761Y-102595238D01*
X138309523Y-102690476D01*
X138214285Y-102738095D01*
%TO.C,D2*%
X136261904Y-106452380D02*
X136261904Y-105452380D01*
X136500000Y-105452380D01*
X136642857Y-105500000D01*
X136738095Y-105595238D01*
X136785714Y-105690476D01*
X136833333Y-105880952D01*
X136833333Y-106023809D01*
X136785714Y-106214285D01*
X136738095Y-106309523D01*
X136642857Y-106404761D01*
X136500000Y-106452380D01*
X136261904Y-106452380D01*
X137214285Y-105547619D02*
X137261904Y-105500000D01*
X137357142Y-105452380D01*
X137595238Y-105452380D01*
X137690476Y-105500000D01*
X137738095Y-105547619D01*
X137785714Y-105642857D01*
X137785714Y-105738095D01*
X137738095Y-105880952D01*
X137166666Y-106452380D01*
X137785714Y-106452380D01*
X131238095Y-108952380D02*
X131238095Y-107952380D01*
X131809523Y-108952380D02*
X131380952Y-108380952D01*
X131809523Y-107952380D02*
X131238095Y-108523809D01*
%TD*%
M02*
